<?xml version="1.0" encoding="UTF-8" standalone="no"?>
<!DOCTYPE svg PUBLIC "-//W3C//DTD SVG 1.1//EN" "http://www.w3.org/Graphics/SVG/1.1/DTD/svg11.dtd">
<!-- Created with Vectornator (http://vectornator.io/) -->
<svg height="100%" stroke-miterlimit="10" style="fill-rule:nonzero;clip-rule:evenodd;stroke-linecap:round;stroke-linejoin:round;" version="1.1" viewBox="1636.84 411.78 313.934 317.813" width="100%" xml:space="preserve" xmlns="http://www.w3.org/2000/svg" xmlns:vectornator="http://vectornator.io" xmlns:xlink="http://www.w3.org/1999/xlink">
<defs>
<path d="M1707.79 541.312C1707.79 541.312 1707.83 539.384 1709.67 538.392C1711.5 537.4 1710.98 536.824 1711.6 535.747C1712.21 534.671 1714.42 532.165 1716.98 531.283C1719.55 530.4 1720.39 530.406 1722.78 530.286C1725.17 530.165 1727.07 530.183 1730.79 529.267C1734.6 528.328 1737.33 525.541 1738.35 524.648C1739.38 523.755 1741.63 520.776 1741.59 518.119C1741.55 515.304 1740.7 514.966 1741.14 513.202C1741.22 512.871 1741.23 512.889 1741.23 512.889C1741.23 512.889 1740.47 512.633 1740.3 511.974C1740.12 511.315 1740.45 510.846 1741.22 510.547C1741.99 510.248 1742.29 510.26 1742.83 510.373C1743.37 510.485 1743.86 510.695 1744.02 511.409C1744.17 512.124 1743.34 512.81 1742.8 512.924C1742.8 512.924 1742.94 514.22 1743.02 515.476C1743.16 517.731 1744.21 517.179 1744.65 517.007C1745.08 516.836 1745.49 516.883 1745.55 516.478C1746.02 513.028 1745.74 512.869 1745.74 512.869C1745.74 512.869 1744.94 512.506 1744.91 511.788C1744.88 511.07 1744.95 510.367 1746.24 510.215C1747.53 510.064 1747.73 509.956 1748.44 510.558C1748.44 510.558 1748.66 510.807 1748.77 511.228C1748.89 511.648 1748.78 512.289 1748.2 512.625C1747.62 512.961 1747.27 512.999 1747.27 512.999C1747.27 512.999 1747.31 512.592 1747.41 513.988C1747.49 514.955 1747.07 516.244 1746.79 516.806C1746.79 516.806 1746.97 518.087 1747.29 518.775C1748.16 520.671 1747.43 522.993 1746.14 524.559C1746.14 524.559 1745.28 525.605 1745.13 525.879C1744.98 526.154 1744.06 528.31 1743.89 529.212C1743.73 530.114 1743.34 532.902 1741.52 535.202C1740.33 536.704 1739.15 538.213 1735.13 538.962C1731.1 539.711 1726.13 539.573 1724.24 539.694C1722.34 539.815 1720.85 539.591 1718.56 540.774C1716.26 541.957 1716.41 542.07 1715.21 542.289C1714.01 542.508 1713.43 543.185 1713.43 543.185C1713.43 543.185 1709.22 545.316 1707.79 541.312Z" id="Fill"/>
</defs>
<g id="floppy" vectornator:layerName="floppy">
<path d="M1651.12 526.151C1651.12 526.151 1678.5 692.171 1689.17 723.149C1692.68 733.321 1764.36 716.951 1764.36 716.951L1885.58 696.627L1947.66 678.515L1942.83 627.537C1942.83 627.537 1933.19 571.118 1930.12 556.731C1927.04 542.343 1927.57 539.512 1927.57 539.512C1927.57 539.512 1930.46 538.73 1931.68 537.099C1932.89 535.468 1932.69 531.849 1932.69 531.849C1932.69 531.849 1924.86 478.457 1920.25 457.518C1915.65 436.578 1917.77 436.647 1910.48 430.337C1903.2 424.027 1892.98 413.661 1883.89 415.013C1874.8 416.365 1851.63 424.093 1851.63 424.093C1851.63 424.093 1848.56 415.565 1842.13 416.222C1835.69 416.88 1678.98 446.139 1668.21 454.611L1665.6 457.752C1665.6 457.752 1662.64 455.658 1660.72 455.408C1658.8 455.158 1644.45 456.392 1644.45 456.392C1644.45 456.392 1639.24 457.868 1640.04 466.984C1640.83 476.1 1651.12 526.151 1651.12 526.151Z" fill="#131313" fill-rule="nonzero" opacity="1" stroke="#131313" stroke-linecap="square" stroke-linejoin="round" stroke-width="6.22662" vectornator:layerName="Curve 7"/>
<path d="M1645.9 462.005C1645.9 462.005 1658.84 458.906 1661.06 459.696C1663.28 460.486 1665.18 460.581 1666.13 463.325C1667.08 466.069 1669.17 478.16 1670.1 480.476C1671.03 482.791 1673.78 489.433 1674.74 494.863C1675.7 500.293 1676.52 503.655 1677.76 506.576C1679.01 509.496 1680.21 517.601 1680.3 522.108C1680.4 526.615 1680.1 539.013 1680.57 542.338C1681.03 545.663 1681.61 551.622 1683.27 553.228C1684.93 554.835 1688.35 559.556 1696.34 559.676C1704.33 559.795 1712.76 556.799 1720.34 555.152C1727.92 553.504 1760.21 547.227 1766.5 546.555C1772.8 545.883 1810.91 539.051 1820.57 536.747C1830.22 534.443 1837.89 533.408 1846.21 532.418C1854.53 531.427 1864.66 529.929 1867.91 527.196C1871.16 524.463 1870.48 523.53 1870.78 521.981C1871.07 520.433 1870.51 512.447 1868.13 505.364C1865.76 498.281 1862.59 484.684 1861.57 476.118C1860.55 467.552 1857.77 443.712 1857.31 440.19C1856.86 436.668 1856.16 430.211 1856.48 428.756C1856.79 427.302 1857.37 426.757 1857.37 426.757C1857.37 426.757 1868.74 423.955 1877.29 421.828C1877.29 421.828 1882.54 418.47 1885.32 419.231C1888.1 419.993 1898.2 426.761 1898.2 426.761C1898.2 426.761 1908.64 435.199 1909.06 436.35C1909.06 436.35 1914.34 455.378 1918.66 479.586C1922.98 503.793 1925.85 515.642 1925.85 515.642C1925.85 515.642 1929.12 526.924 1929.12 529.529C1929.12 529.529 1931.9 535.102 1918.92 536.017L1911.38 538.094C1911.38 538.094 1908.14 548.13 1912 565.946C1915.86 583.761 1914.3 578.593 1916.7 594.251C1919.1 609.908 1931.95 676.559 1929.46 678.184C1926.26 680.277 1923.48 683.922 1921.69 679.907C1918.92 673.697 1908.72 598.877 1908.33 595.831C1907.01 585.57 1905.89 579.72 1904.62 573.957C1903.35 568.195 1902.78 563.074 1901.67 558.348C1900.56 553.622 1899.93 549.584 1899.71 546.363C1899.48 543.142 1899.44 541.066 1899.44 541.066C1899.44 541.066 1897.56 539.873 1891.05 541.095C1884.53 542.317 1875.52 544.662 1868.92 545.728C1862.32 546.794 1845.44 549.555 1844.78 549.552C1844.12 549.55 1828.6 550.845 1820.88 552.08C1813.16 553.316 1749.41 563.593 1748.41 563.299C1747.41 563.005 1715.96 571.638 1704.77 575.283C1704.77 575.283 1698.99 576.774 1695.66 577.691C1692.32 578.609 1692.16 580.419 1693.28 585.443C1694.39 590.466 1695.59 601.217 1695.59 601.217C1695.59 601.217 1700.73 626.974 1703.01 641.909C1705.3 656.845 1706.85 663.267 1708.12 669.938C1709.38 676.609 1710.84 686.332 1711.96 692.293C1713.08 698.254 1712 705.814 1712.96 708.702C1713.93 711.59 1717.6 720 1717.6 720C1717.6 720 1709.14 722.129 1701.05 723.157C1692.97 724.185 1693.53 718.937 1692.72 717.291C1691.92 715.646 1690.36 697.592 1687.78 685.843C1685.2 674.094 1682.06 659.118 1680.91 653.812C1679.76 648.505 1671.48 604.007 1670.01 593.991C1668.54 583.975 1657.81 528.003 1655.67 518.238C1653.53 508.474 1648.66 490.885 1647.53 481.531C1646.39 472.178 1641.05 466.083 1645.9 462.005Z" fill="#403f3f" fill-rule="nonzero" opacity="1" stroke="none" vectornator:layerName="Curve 1"/>
<path d="M1722.57 442.167C1733.16 440.57 1777.65 428.117 1786.84 427.179C1797.83 426.057 1825.22 419.673 1831.52 419.119C1837.81 418.565 1841.4 419.14 1843.83 420.977C1846.76 423.188 1846.1 421.186 1848.47 428.863C1850.83 436.539 1854.21 448.586 1854.97 457.858C1856.85 480.969 1858.3 485.826 1862.71 503.274C1866.16 516.923 1865.93 524.303 1853.14 526.035C1840.35 527.767 1830.01 529.529 1830.01 529.529C1830.01 529.529 1794.22 537.02 1792.26 537.333C1790.3 537.646 1765.37 542.25 1756.87 543.601C1748.37 544.953 1734.23 547.411 1728.33 548.742C1722.42 550.073 1704.71 554.88 1701.05 555.743C1690.59 558.212 1687.96 552.09 1687.96 552.09C1687.96 552.09 1686.58 552.193 1685.71 542.734C1684.85 533.274 1684.44 522.279 1684.12 516.495C1683.67 508.412 1681 500.081 1679.73 493.975C1678.46 487.869 1674.26 474.062 1672.13 467.738C1666.96 452.35 1677.98 448.891 1722.57 442.167Z" fill="#c8c3c3" fill-rule="nonzero" opacity="1" stroke="none" vectornator:layerName="Curve 3"/>
<path d="M1768.82 526.469L1757.96 464.695C1757.96 464.695 1755.86 457.773 1757.5 456.182C1759.14 454.591 1773.39 447.521 1787.7 447.67C1787.7 447.67 1797 447.291 1798.73 451.669C1800.46 456.048 1801.99 466.672 1805.75 492.439C1805.75 492.439 1808.72 505.44 1809.88 510.158C1811.04 514.875 1812.87 522.476 1808.7 524.681C1804.54 526.885 1794.5 528.012 1789.01 528.943C1783.52 529.874 1770.44 532.129 1768.82 526.469Z" fill="#000002" fill-rule="nonzero" opacity="1" stroke="none" vectornator:layerName="Curve ) 4"/>
<path d="M1774.96 525.402L1802.64 521.26C1802.64 521.26 1805.46 521.366 1806.22 519.598C1806.98 517.83 1805.18 511.531 1805.18 511.531C1805.18 511.531 1801.99 500.958 1799.45 483.111C1796.91 465.265 1796.25 457.08 1796.25 457.08C1796.25 457.08 1795.79 453.306 1793.22 452.565C1790.65 451.824 1785.22 453.225 1780.79 453.405C1776.37 453.586 1769.46 455.65 1769.46 455.65L1762.7 457.635C1762.7 457.635 1761.65 457.975 1762.02 459.75C1762.39 461.526 1764.59 471.207 1765.39 476.355C1766.18 481.503 1768.08 494.736 1769.33 501.424C1770.58 508.113 1772.75 521.9 1772.75 521.9C1772.75 521.9 1772.65 525.922 1774.96 525.402Z" fill="#343333" fill-rule="nonzero" opacity="1" stroke="none" vectornator:layerName="Curve 2"/>
<path d="M1879.69 529.578L1863.57 444.117L1862.71 437.608C1862.71 437.608 1862.59 436.52 1867.41 435.164C1872.23 433.808 1888.69 431.091 1888.69 431.091C1888.69 431.091 1890.46 430.807 1891.59 431.746C1892.72 432.685 1901.33 440.747 1901.33 440.747C1901.33 440.747 1902.56 441.296 1903.26 444.068C1903.96 446.84 1910.48 484.271 1910.48 484.271L1914.16 501.795C1914.16 501.795 1916.36 506.892 1916.53 511.086C1916.7 515.281 1918.89 525.611 1918.89 525.611C1918.89 525.611 1919.35 527.168 1916.31 527.858C1913.27 528.548 1902.66 530.707 1902.66 530.707L1891.79 532.781C1891.79 532.781 1888.7 533.779 1887.61 533.993C1886.52 534.208 1881.85 535.554 1879.69 529.578Z" fill="#000000" fill-rule="nonzero" opacity="1" stroke="none" vectornator:layerName="Curve 4"/>
<path d="M1871.26 458.842L1902.94 472.441C1902.94 472.441 1904.09 473.136 1904.21 475.305C1904.33 477.474 1905.41 483.359 1905.41 483.359C1905.41 483.359 1905.91 484.91 1904.48 483.967C1903.04 483.024 1872.49 468.122 1872.49 468.122C1872.49 468.122 1870 459.593 1871.26 458.842Z" fill="#2d2c2c" fill-rule="nonzero" opacity="1" stroke="none" vectornator:layerName="Curve 8"/>
<path d="M1874 472.853L1905.81 489.255L1907.56 496.025C1907.56 496.025 1907.64 497.112 1905.74 495.988C1903.84 494.863 1880.86 482.75 1880.86 482.75C1880.86 482.75 1876.24 481.294 1876.07 481.113C1875.91 480.931 1871.61 472.942 1874 472.853Z" fill="#2d2c2c" fill-rule="nonzero" opacity="1" stroke="none" vectornator:layerName="Curve 9"/>
<path d="M1877.3 485.845L1906.13 500.545C1906.13 500.545 1908.17 501.796 1908.82 503.507C1909.47 505.219 1910.3 511.047 1910.3 511.047C1910.3 511.047 1910.54 511.979 1902.78 507.227C1895.02 502.475 1882.64 495.791 1882.64 495.791L1878.2 493.873C1878.2 493.873 1875.52 485.971 1877.3 485.845Z" fill="#2d2c2c" fill-rule="nonzero" opacity="1" stroke="none" vectornator:layerName="Curve 10"/>
<path d="M1879.55 499.065L1910.65 516.394C1910.65 516.394 1911.79 517.754 1911.95 520.019C1912.1 522.284 1911.87 523.229 1911.87 523.229L1882.47 507.083C1882.47 507.083 1881.47 506.734 1880.67 504.981C1879.86 503.228 1878.2 499.354 1879.55 499.065Z" fill="#2d2c2c" fill-rule="nonzero" opacity="1" stroke="none" vectornator:layerName="Curve 11"/>
<path d="M1882.91 511.676L1904.81 523.233L1905.28 524.645L1898.08 525.687C1898.08 525.687 1886.15 518.596 1884.66 518.486C1883.16 518.376 1882.6 518.736 1882.6 518.736L1881.94 512.978C1881.94 512.978 1881.41 511.443 1882.91 511.676Z" fill="#2d2c2c" fill-rule="nonzero" opacity="1" stroke="none" vectornator:layerName="Curve 12"/>
<path d="M1883.93 522.636C1883.93 522.636 1885.47 522.105 1887.74 523.57C1890.02 525.036 1892.68 527.454 1892.68 527.454L1893.25 528.532L1886.23 529.453L1884.92 529.529L1883.93 522.636Z" fill="#2d2c2c" fill-rule="nonzero" opacity="1" stroke="none" vectornator:layerName="Curve 13"/>
<path d="M1898.69 444.024L1889.17 435.725L1881.97 436.646L1893.79 443.655C1893.79 443.655 1899.57 447.356 1898.69 444.024Z" fill="#2d2c2c" fill-rule="nonzero" opacity="1" stroke="none" vectornator:layerName="Curve 5"/>
<path d="M1900.04 455.192L1900.05 450.477L1878.35 438.358L1867.64 439.925C1867.64 439.925 1865.81 439.582 1874.49 443.931C1883.18 448.28 1892.44 452.441 1892.44 452.441L1899.12 456.42C1899.12 456.42 1900.28 456.29 1900.04 455.192Z" fill="#2d2c2c" fill-rule="nonzero" opacity="1" stroke="none" vectornator:layerName="Curve 6"/>
<path d="M1869.5 445.425L1900.36 460.672C1900.36 460.672 1901.3 460.854 1901.65 462.092C1902 463.33 1903.03 466.984 1903.03 466.984L1870.77 453.693L1868.21 446.817C1868.21 446.817 1867.65 444.599 1869.5 445.425Z" fill="#2d2c2c" fill-rule="nonzero" opacity="1" stroke="none" vectornator:layerName="Curve 7"/>
<path d="M1935.3 677.583C1933.31 666.614 1918.86 572.959 1917.19 563.935C1915.27 553.519 1913.21 545.537 1915.98 544.381C1918.75 543.224 1923.65 543.266 1923.65 543.266C1923.65 543.266 1925.61 556.721 1931.1 588.094C1934.4 606.989 1945.02 660.903 1943.45 673.697C1943.02 677.211 1935.61 679.276 1935.3 677.583Z" fill="#2a2a2a" fill-rule="nonzero" opacity="1" stroke="none" vectornator:layerName="Curve 14"/>
<path d="M1885.58 692.45C1878.64 692.45 1781.02 711.202 1734.3 718.635C1719.8 720.942 1720.33 713.859 1719.74 713.155C1718.57 711.761 1717.77 709.933 1717.56 707.587C1716.91 700.236 1714.94 685.528 1710.73 662.65C1706.51 639.771 1706.35 634.784 1704.3 626.151C1702.25 617.519 1700.97 609.985 1701.06 608.495C1701.15 607.006 1700.44 606.798 1706.94 605.818C1713.44 604.838 1730.58 600.959 1739.62 598.81C1748.65 596.66 1773.09 592.177 1784.87 590.47C1796.65 588.763 1816.74 584.121 1826.83 582.624C1836.91 581.128 1859.37 576.644 1867.67 574.964C1875.97 573.284 1877.16 573.945 1880.15 572.601C1883.14 571.257 1884.14 570.809 1888.64 570.054C1893.14 569.299 1897.9 568.978 1897.9 568.978C1897.9 568.978 1899.17 568.677 1900.36 573.511C1901.54 578.345 1903.04 585.219 1903.04 585.219C1903.04 585.219 1904.44 589.457 1904.5 592.469C1904.56 595.481 1905.3 601.193 1905.46 602.292C1905.61 603.39 1905.2 606.872 1906.01 609.478C1906.82 612.083 1908.01 617.074 1908.13 618.706C1908.25 620.338 1908.87 627.556 1908.87 627.556L1914.63 665.702L1914.63 673.697L1910.3 684.246C1910.3 684.246 1893.57 692.45 1885.58 692.45Z" fill="#d5d5d5" fill-rule="nonzero" opacity="1" stroke="none" vectornator:layerName="Curve 15"/>
<path d="M1700.16 602.75C1700.16 602.75 1714.22 600.411 1724.1 597.825C1733.98 595.239 1743.44 593.884 1750.55 592.543C1757.66 591.201 1768.02 590.491 1770.4 589.357C1772.77 588.223 1783.76 586.697 1787.32 586.261C1790.88 585.825 1807.09 580.917 1816.71 578.963C1826.33 577.008 1857.41 571.241 1857.41 571.241L1877.18 568.868C1877.18 568.868 1883.06 566.17 1888.47 565.897C1893.88 565.624 1898.56 565.675 1898.89 564.914C1899.21 564.153 1897.86 557.313 1897.13 555.493C1896.39 553.674 1896.63 547.897 1896.63 547.897C1896.63 547.897 1896.86 543.778 1894.8 543.615C1892.73 543.452 1889.98 544.75 1887.79 545.075C1885.59 545.4 1880.97 546.421 1879.63 546.959C1878.3 547.497 1858.64 551.766 1851.01 552.614C1843.38 553.463 1829.51 555.519 1823.01 555.877C1816.52 556.234 1805.2 558.53 1798.37 559.835C1791.54 561.139 1765.39 565.161 1750.12 567.797C1734.85 570.433 1723.66 574.294 1714.29 577.053C1704.92 579.811 1697.36 580.194 1696.85 581.717C1696.33 583.239 1697.62 586.668 1698.27 590.818C1698.91 594.968 1698.73 599.796 1700.16 602.75Z" fill="#ff5e35" fill-rule="nonzero" opacity="1" stroke="none" vectornator:layerName="Curve 16"/>
<path d="M1719.55 627.901C1719.55 627.901 1722.48 627.059 1727.81 626.192C1733.13 625.326 1734.17 625.494 1738.63 624.405C1743.08 623.316 1743.35 624.182 1749.02 622.713C1754.69 621.244 1759.84 619.938 1759.84 619.938L1837.78 607.131C1837.78 607.131 1860.86 600.957 1865.72 599.64C1870.57 598.324 1876.33 596.805 1880.65 595.921C1884.98 595.037 1888.4 594.891 1890.96 594.601C1893.52 594.31 1896.22 594.348 1895.83 592.293C1895.44 590.238 1893.73 590.673 1892.45 590.456C1891.17 590.239 1879.84 591.89 1879.84 591.89L1850.36 598.299C1850.36 598.299 1834.15 601.534 1831.66 602.122C1829.17 602.711 1820.51 603.754 1820.51 603.754L1761.33 615.079C1761.33 615.079 1757.31 615.824 1753.89 616.561C1750.48 617.298 1744.1 618.222 1740.29 619.048C1736.48 619.874 1731.73 619.376 1728.22 620.678C1724.7 621.98 1721.38 621.546 1719.79 622.863C1718.2 624.18 1715.89 625.842 1719.55 627.901Z" fill="#000000" fill-rule="nonzero" opacity="1" stroke="none" vectornator:layerName="Curve 17"/>
<path d="M1898.2 653.374C1898.2 653.374 1895.38 654.133 1890.27 654.887C1885.16 655.64 1884.17 655.468 1879.89 656.442C1875.61 657.417 1875.36 656.595 1869.91 657.913C1864.46 659.231 1859.52 660.402 1859.52 660.402L1784.7 671.545C1784.7 671.545 1762.52 677.095 1757.85 678.279C1753.18 679.463 1747.65 680.827 1743.49 681.609C1739.34 682.39 1736.07 682.487 1733.61 682.73C1731.15 682.973 1728.56 682.904 1728.91 684.85C1729.27 686.796 1730.91 686.406 1732.13 686.626C1733.35 686.847 1744.23 685.426 1744.23 685.426L1772.55 679.733C1772.55 679.733 1788.11 676.876 1790.5 676.351C1792.9 675.826 1801.2 674.946 1801.2 674.946L1858.03 664.974C1858.03 664.974 1861.89 664.319 1865.17 663.665C1868.45 663.011 1874.57 662.216 1878.23 661.482C1881.89 660.749 1886.44 661.277 1889.82 660.09C1893.2 658.903 1896.38 659.354 1897.92 658.13C1899.46 656.905 1901.68 655.364 1898.2 653.374Z" fill="#000000" fill-rule="nonzero" opacity="1" stroke="none" vectornator:layerName="Curve 35"/>
<path d="M1779.1 648.328C1779.1 648.328 1759.65 650.894 1754.88 651.479C1750.11 652.064 1747.76 650.896 1742.26 651.931C1736.77 652.965 1733.08 654.883 1731.42 651.406C1729.76 647.929 1734.48 646.87 1738.86 646.656C1743.23 646.442 1759.39 643.417 1759.39 643.417L1804.68 634.685L1849.74 626.977L1865.95 623.039C1865.95 623.039 1874.66 622.47 1876.88 621.586C1879.1 620.703 1881.38 618.726 1885.27 618.792C1889.16 618.857 1892.62 619.774 1892.62 619.774L1893.26 622.363C1893.26 622.363 1891.89 625.079 1889.45 624.66C1887.01 624.242 1883.47 624.691 1881.16 625.349C1878.84 626.008 1876.11 627.245 1874.18 627.871C1872.25 628.497 1871.09 629.526 1867.89 629.83C1864.69 630.135 1790.76 642.716 1790.76 642.716L1779.1 648.328Z" fill="#000000" fill-rule="nonzero" opacity="1" stroke="none" vectornator:layerName="Curve 18"/>
<path d="M1684.33 480.671C1684.33 480.671 1677.09 476.17 1678.25 470.84C1679.4 465.511 1680.01 465.008 1683.1 463.229C1686.2 461.451 1690.44 460.181 1692.7 461.426C1694.97 462.671 1694.87 462.225 1695.38 460.645C1695.89 459.064 1702.16 456.998 1703.75 461.81C1705.33 466.622 1704.91 473.505 1707.25 475.048C1709.6 476.592 1709.71 475.994 1710.88 475.69C1712.05 475.387 1712.89 474.698 1712.24 473.438C1711.59 472.178 1708.94 466.556 1709.47 462.791C1710 459.025 1711.39 459.019 1712.34 458.711C1713.29 458.403 1716.72 458.387 1718.28 460.811C1719.83 463.235 1721 465.204 1721 465.204C1721 465.204 1721.82 465.832 1721.8 464.209C1721.78 462.586 1721.56 457.218 1722.41 455.66C1723.25 454.102 1724.88 453.214 1726.85 453.301C1728.81 453.387 1731.13 455.379 1731.24 456.396C1731.35 457.413 1731.37 457.759 1731.37 457.759C1731.37 457.759 1732.07 452.35 1742.39 452.35C1745.93 452.35 1747.87 453.141 1748.57 455.408C1749.27 457.676 1749.03 460.421 1749.03 460.421C1749.03 460.421 1752.73 460.971 1753.32 464.215C1753.91 467.46 1753.56 477.004 1745.76 478.849C1737.96 480.693 1736.95 479.612 1734.74 478.878C1732.52 478.144 1731.19 476.491 1731.19 476.491C1731.19 476.491 1727.87 483.021 1720.82 482.724C1720.82 482.724 1718.1 482.703 1717 482.456C1715.9 482.21 1714.54 484.526 1710.67 485.826C1706.8 487.127 1699.23 486.026 1699.23 486.026C1699.23 486.026 1698.79 488.29 1695.25 489.155C1691.71 490.02 1685.17 492.643 1683.16 491.227C1681.15 489.811 1679.4 487.953 1679.73 486.028C1680.06 484.104 1680.8 481.661 1684.33 480.671Z" fill="#335020" fill-rule="nonzero" opacity="1" stroke="none" vectornator:layerName="Curve 20"/>
<path d="M1704.65 513.476C1704.65 513.476 1702.18 517.893 1700.12 518.735C1698.05 519.576 1696.47 518.616 1692.72 513.742C1688.96 508.867 1684.69 501.584 1684.4 499.504C1684.08 497.176 1683.5 495.378 1688.23 493.431C1692.96 491.485 1694.34 492.458 1695.33 494.385C1696.33 496.312 1697.03 498.122 1697.03 498.122C1697.03 498.122 1696.93 495.241 1699.01 494.852C1701.09 494.463 1702.5 495.241 1702.5 495.241L1703.27 496.354C1703.27 496.354 1702.38 491.977 1705.12 490.353C1707.85 488.728 1710.53 487.871 1712.63 489.57C1712.63 489.57 1714.5 485.276 1718.17 484.675C1719.93 484.388 1722.63 486.313 1722.63 486.313C1722.63 486.313 1724.87 481.542 1728.28 480.881C1731.69 480.221 1735.17 478.914 1738.08 481.86C1740.98 484.806 1739.59 483.377 1739.59 483.377C1739.59 483.377 1739.22 481.684 1741.19 480.855C1743.17 480.026 1746.4 479.725 1749.43 478.477C1752.45 477.229 1754.67 477.996 1756.26 480.472C1757.85 482.947 1757.05 487.626 1754.8 487.763C1752.55 487.9 1753.51 489.155 1753.51 489.155C1753.51 489.155 1757.2 489.534 1757.4 491.8C1757.62 494.16 1757.97 497.101 1754.19 497.628C1754.19 497.628 1758.75 497.628 1758.33 502.128C1758.26 502.965 1758.43 503.819 1756.4 505.008C1752.97 507.015 1747.4 508.096 1744.61 506.907C1740.17 505.014 1738.66 506.285 1737.71 507.468C1735.23 510.582 1734.3 510.582 1730.24 508.689C1730.24 508.689 1728.61 509.972 1728.13 509.972C1724.91 509.972 1723.24 506.405 1723.24 506.405C1723.24 506.405 1721.81 507.013 1722 506.729C1722.19 506.444 1723.31 511.937 1718.59 513.592C1716.57 514.301 1713.64 511.937 1713.64 511.937C1713.64 511.937 1713.86 514.73 1712 515.395C1710.15 516.06 1706.92 516.971 1704.65 513.476Z" fill="#335020" fill-rule="nonzero" opacity="1" stroke="none" vectornator:layerName="Curve 21"/>
<path d="M1681.98 473.438C1681.98 473.438 1680 469.044 1682.96 466.354C1685.92 463.664 1687.26 463.58 1687.26 463.58C1687.26 463.58 1693.16 462.876 1693.84 465.986C1694.27 467.991 1693.64 469.211 1691.23 469.344C1688.83 469.478 1686.49 468.342 1687.96 471.5C1689.43 474.657 1696.47 476.49 1697.4 481.728C1697.4 481.728 1698.6 486.561 1693.65 487.676C1688.71 488.792 1686.12 489.965 1684.55 488.393C1682.99 486.82 1682.69 485.821 1683.55 484.556C1684.41 483.291 1685.91 483.335 1688.66 483.662C1688.66 483.662 1690.67 483.846 1691.25 482.837C1691.83 481.829 1691.71 481.172 1687.51 478.401C1683.3 475.63 1682.74 475.295 1681.98 473.438Z" fill="#6fa947" fill-rule="nonzero" opacity="1" stroke="none" vectornator:layerName="Curve 23"/>
<path d="M1701.79 484.216C1701.79 484.216 1698.97 484.791 1698.71 480.985C1698.45 477.179 1698.56 474.004 1698.09 472.667C1697.61 471.331 1696.55 468.485 1696.42 466.119C1696.29 463.752 1696.61 462.314 1697.85 462.249C1699.1 462.183 1701.45 461.385 1701.92 463.048C1702.39 464.711 1702.99 465.961 1702.96 467.819C1702.93 469.678 1703.16 472.75 1703.16 472.75C1703.16 472.75 1704.24 476.945 1704.98 477.337C1706.5 478.138 1706.77 478.359 1709.3 477.888C1711.83 477.417 1713.32 477.057 1714.16 477.552C1715.17 478.138 1715.81 482.528 1712.19 483.379C1706.9 484.622 1702.92 484.112 1701.79 484.216Z" fill="#6fa947" fill-rule="nonzero" opacity="1" stroke="none" vectornator:layerName="Curve 24"/>
<path d="M1718.17 479.502C1717.84 479.398 1716.79 478.588 1715.73 476.776C1714.68 474.964 1714.89 473.684 1714.3 472.736C1713.71 471.788 1712.3 468.164 1711.83 466.323C1711.35 464.482 1711.08 461.971 1712.19 461.208C1714.16 459.86 1716.72 461.339 1717.18 462.39C1717.65 463.441 1717.59 464.683 1717.92 466.056C1718.26 467.429 1719.67 470.131 1719.67 470.131C1719.67 470.131 1720.31 471.725 1720.58 472.255C1720.85 472.784 1722.07 474.053 1722.99 473.585C1723.91 473.117 1724.44 472.958 1724.7 470.589C1724.95 468.22 1724.24 465.08 1724.13 463.733C1724.03 462.385 1723.55 459.787 1723.89 458.294C1724.22 456.801 1724.59 456.427 1725.68 456.393C1726.78 456.359 1728.74 456.616 1729.25 457.04C1729.76 457.463 1730.03 458.564 1729.78 460.581C1729.52 462.599 1730.41 467.86 1730.21 469.39C1730.01 470.921 1730.19 473.706 1729.42 474.751C1728.66 475.795 1727.03 482.315 1718.17 479.502Z" fill="#6fa947" fill-rule="nonzero" opacity="1" stroke="none" vectornator:layerName="Curve 25"/>
<path d="M1736.66 477.016C1736.66 477.016 1732.12 475.919 1731.66 471.247C1731.2 466.575 1730.92 461.505 1732.16 459.52C1733.4 457.534 1736.54 454.813 1738.86 454.242C1741.18 453.672 1744.23 454.388 1744.83 454.735C1745.43 455.083 1745.8 455.469 1745.71 457.039C1745.63 458.609 1746.33 461.319 1744.22 461.181C1742.11 461.043 1738.74 461.372 1738.24 461.716C1737.75 462.061 1735.37 462.941 1735.83 467.306C1736.29 471.671 1736.89 471.999 1738.3 472.362C1739.71 472.724 1742.39 472.204 1742.59 470.984C1742.78 469.765 1742.65 468.858 1742.65 468.858C1742.65 468.858 1740.19 468.802 1739.29 468.897C1738.38 468.993 1738.36 467.85 1738.63 466.819C1738.91 465.788 1738.75 465.315 1739.65 465C1740.55 464.686 1742.59 464.91 1744.38 464.248C1746.18 463.587 1748.24 462.28 1749.42 464.16C1750.6 466.039 1750.98 466.673 1750.54 469.552C1750.1 472.431 1749.69 473.73 1748.08 474.975C1746.47 476.221 1744.3 478.178 1741.49 478.137C1738.69 478.097 1736.66 477.016 1736.66 477.016Z" fill="#6fa947" fill-rule="nonzero" opacity="1" stroke="none" vectornator:layerName="Curve 26"/>
<path d="M1686.37 498.483C1686.37 498.483 1688.24 503.436 1689.43 505.704C1690.61 507.973 1694.01 511.742 1695.25 513.289C1696.5 514.836 1697.96 516.807 1699.27 516.192C1700.59 515.577 1701.84 513.233 1702.45 511.937C1703.06 510.642 1702.91 509.03 1702.91 509.03C1702.91 509.03 1702.97 507.924 1704.32 509.03C1705.67 510.135 1706.37 512.936 1707.69 513.289C1712.36 514.538 1712.02 511.931 1711.97 509.354C1711.92 506.776 1712.27 500.324 1712.17 497.457C1712.08 494.59 1712.1 493.213 1712.1 493.213C1712.1 493.213 1712.14 492.035 1710.33 491.851C1708.52 491.668 1706.74 492.04 1706.74 492.04C1706.74 492.04 1706.05 492.583 1706.16 494.508C1706.27 496.433 1706.91 502.004 1706.91 502.004C1706.91 502.004 1707.2 504.194 1706.98 504.476C1706.77 504.759 1705.52 504.785 1704.39 502.854C1703.25 500.924 1702.66 499.079 1702.66 499.079C1702.66 499.079 1702.47 498.452 1701.98 498.176C1701.49 497.9 1698.25 497.491 1698.29 498.949C1698.32 500.406 1698.73 503.872 1698.73 503.872C1698.73 503.872 1698.95 505.204 1698.27 505.627C1697.59 506.049 1696.6 503.596 1695.98 502.351C1695.37 501.106 1694.7 494.18 1691.08 494.679C1690.25 494.794 1685.9 496.162 1686.37 498.483Z" fill="#6fa947" fill-rule="nonzero" opacity="1" stroke="none" vectornator:layerName="Curve 27"/>
<path d="M1718.63 511.652C1718.63 511.652 1715.73 512.635 1715.14 510.953C1714.54 509.271 1714.57 505.669 1714.49 505.41C1714.4 505.15 1714.08 494.302 1714.18 492.704C1714.29 491.105 1714.97 490.084 1716.33 488.725C1717.68 487.366 1719.16 486.299 1720.38 487.788C1721.6 489.276 1723.9 492.868 1726.5 498.732C1729.09 504.597 1730.13 505.405 1729.77 506.367C1729.41 507.329 1727.07 509.679 1726.04 506.94C1725.01 504.201 1723.79 504.159 1723.79 504.159C1723.79 504.159 1721.79 504.317 1720.85 504.94C1719.9 505.562 1720.45 507.979 1720.37 509.03C1720.29 510.081 1719.9 510.94 1718.63 511.652Z" fill="#6fa947" fill-rule="nonzero" opacity="1" stroke="none" vectornator:layerName="Curve 28"/>
<path d="M1736.19 505.704C1736.19 505.704 1736.04 507.418 1735.26 507.956C1734.48 508.495 1731.91 508.461 1731.27 507.282C1730.63 506.104 1729.19 499.55 1728.39 497.628C1727.6 495.705 1725.11 491.627 1725.05 489.688C1724.98 487.75 1724.76 485.91 1726.67 484.329C1728.58 482.748 1732.17 481.631 1734.64 482.799C1737.1 483.966 1737.84 484.532 1738.19 486.249C1738.55 487.967 1739.2 490.853 1738.34 491.911C1737.47 492.969 1736.03 493.904 1736.03 493.904C1736.03 493.904 1734.99 494.473 1735.66 495.038C1736.32 495.602 1738.1 495.919 1738.1 495.919C1738.1 495.919 1739.47 496.84 1739.83 498.483C1740.19 500.127 1740.9 501.706 1740.9 501.706C1740.9 501.706 1741.86 503.904 1740.84 504.226C1739.82 504.547 1737.54 504.793 1737.23 504.13C1736.93 503.467 1736.61 501.467 1736.08 500.535C1735.55 499.603 1735.39 498.967 1733.75 499.28C1733.75 499.28 1732.73 499.1 1733.83 500.737C1734.92 502.375 1736.19 505.704 1736.19 505.704Z" fill="#6fa947" fill-rule="nonzero" opacity="1" stroke="none" vectornator:layerName="Curve 29"/>
<path d="M1745.45 505.081C1745.45 505.081 1743.76 504.592 1742.65 502.187C1741.53 499.783 1741.11 498.831 1740.88 495.619C1740.66 492.407 1741.41 488.374 1741.37 487.118C1741.33 485.861 1740.81 483.24 1741.67 482.733C1742.53 482.226 1743.1 482.256 1745.69 482.077C1748.29 481.899 1750.33 481.683 1751.49 481.363C1752.65 481.044 1754.01 481.092 1754.24 482.442C1754.46 483.792 1755 485.063 1754.61 485.407C1754.22 485.752 1753.25 485.834 1752.46 485.813C1751.67 485.793 1749.17 486.266 1749.17 486.266L1745.91 486.667C1745.91 486.667 1745.44 486.766 1745.43 487.842C1745.42 488.918 1745.7 491.391 1745.7 491.391C1745.7 491.391 1745.95 492.292 1747.08 492.142C1748.2 491.992 1750.54 491.377 1751.17 491.163C1751.81 490.949 1753.38 491.052 1753.86 491.315C1754.33 491.578 1755.24 492.504 1755.16 493.5C1755.08 494.495 1754.51 495.606 1754.01 495.791C1753.5 495.977 1751.92 496.089 1751.12 496.126C1750.32 496.163 1748.89 496.591 1748.89 496.591L1747.8 496.963C1747.8 496.963 1747.41 496.944 1747.18 497.539C1746.96 498.134 1746.75 498.822 1747.16 499.343C1747.57 499.863 1747.11 500.328 1749.52 500.105C1751.94 499.882 1753.24 498.859 1754.23 499.12C1755.21 499.38 1756.18 499.045 1756.39 501.816C1756.39 501.816 1756.65 503.605 1755.13 504.025C1753.61 504.445 1751.23 505.246 1750.37 505.506C1749.51 505.766 1746.89 505.896 1745.45 505.081Z" fill="#6fa947" fill-rule="nonzero" opacity="1" stroke="none" vectornator:layerName="Curve 30"/>
<path d="M1718.47 493.944C1718.47 493.944 1718.11 494.324 1718.18 495.982C1718.26 497.639 1718.83 499.615 1718.83 499.615C1718.83 499.615 1720.11 499.668 1721.44 499.023C1722.78 498.377 1722.74 498.358 1722.27 497.157C1721.8 495.957 1720.51 493.709 1720.51 493.709C1720.51 493.709 1720.07 492.629 1718.47 493.944Z" fill="#335020" fill-rule="nonzero" opacity="1" stroke="none" vectornator:layerName="Curve 32"/>
<path d="M1729.84 488.557C1729.84 488.557 1730.36 489.959 1730.87 491.014C1731.39 492.068 1731.47 492.882 1732.41 492.403C1733.35 491.925 1733.64 491.897 1734.09 490.862C1734.53 489.828 1734.23 488.067 1733.64 487.614C1733.04 487.161 1732.26 486.512 1731.08 487.014C1729.89 487.517 1729.84 488.557 1729.84 488.557Z" fill="#335020" fill-rule="nonzero" opacity="1" stroke="none" vectornator:layerName="Curve 33"/>
<path d="M1691.94 471.067C1691.94 471.067 1694.29 470.189 1694.85 470.409C1695.42 470.629 1695.22 472.628 1695.22 472.628L1694.98 473.808C1694.98 473.808 1693.91 473.693 1693.1 472.538C1692.29 471.384 1691.89 472.027 1691.94 471.067Z" fill="#d5d5d5" fill-rule="nonzero" opacity="1" stroke="none" vectornator:layerName="Curve 34"/>
<g opacity="1" vectornator:layerName="Curve 11">
<use fill="#6fa947" fill-rule="nonzero" stroke="none" xlink:href="#Fill"/>
<mask height="37.2378" id="StrokeMask" maskUnits="userSpaceOnUse" width="44.603" x="1706" y="508.305">
<rect fill="#ffffff" height="37.2378" stroke="none" width="44.603" x="1706" y="508.305"/>
<use fill="#000000" fill-rule="evenodd" stroke="none" xlink:href="#Fill"/>
</mask>
<use fill="none" mask="url(#StrokeMask)" stroke="#335020" stroke-linecap="butt" stroke-linejoin="round" stroke-width="3.58289" xlink:href="#Fill"/>
</g>
<path d="M1711.25 537.86C1711.25 537.86 1712.78 534.177 1715.88 532.606C1718.97 531.035 1719.77 530.857 1724.41 530.966C1724.41 530.966 1729.6 530.891 1733.25 528.918C1736.89 526.945 1740.52 524.108 1741.41 521.236C1742.3 518.364 1742.33 518.277 1741.9 516.699C1741.27 514.408 1741.27 514.169 1741.33 513.777C1741.39 513.385 1741.59 512.914 1741.59 512.914C1741.59 512.914 1742.23 513.01 1742.42 512.965L1742.57 514.175C1742.57 514.175 1742.78 516.523 1743.05 516.947C1743.31 517.37 1743.52 517.469 1743.9 517.512C1744.29 517.555 1744.75 517.397 1745.04 517.298C1745.34 517.199 1745.56 517.152 1745.66 517.028C1745.75 516.905 1745.91 516.935 1745.95 516.008C1745.99 515.081 1746.13 513.091 1746.13 513.091L1746.13 512.988C1746.13 512.988 1746.69 513.124 1746.96 513.043C1746.96 513.043 1747.4 514.335 1746.46 516.725C1746.46 516.725 1746.46 516.776 1746.46 516.869C1746.46 517.13 1746.49 517.728 1746.72 518.461C1747.05 519.453 1747.1 519.565 1747.12 520.32C1747.14 521.075 1747.01 521.34 1746.91 521.817C1746.8 522.293 1746.47 522.975 1745.09 524.807C1743.71 526.64 1743.87 527.026 1743.72 527.611C1743.58 528.196 1743.17 529.798 1741.07 531.108C1738.97 532.419 1737.12 532.792 1735.73 533.126C1734.34 533.46 1731.72 533.772 1730.05 533.988C1728.37 534.204 1723.77 535.321 1722.06 535.717C1720.34 536.114 1719.89 536.23 1719.17 536.633C1718.44 537.036 1715.24 539.225 1714.98 539.822L1715.26 539.941C1715.26 539.941 1716.7 539.671 1716.39 539.798C1716.09 539.924 1715.34 540.613 1716.3 540.541C1717.25 540.469 1716.6 540.966 1716.08 541.198C1715.56 541.43 1714.33 541.86 1713.99 542.116C1713.64 542.373 1713.41 542.41 1712.76 542.537C1712.12 542.663 1709.61 542.692 1709 541.891C1708.39 541.09 1708.36 540.535 1709.41 539.487C1710.45 538.439 1710.49 538.665 1710.77 538.429C1711.05 538.192 1711.18 538.068 1711.25 537.86Z" fill="#6fa947" fill-rule="nonzero" opacity="1" stroke="none" vectornator:layerName="Curve 1"/>
<path d="M1740.81 511.517L1743.39 511.186C1743.39 511.186 1743.05 510.549 1742.2 510.642C1741.36 510.734 1740.82 510.886 1740.81 511.517Z" fill="#4b7b2a" fill-rule="nonzero" opacity="1" stroke="none" vectornator:layerName="Curve 2"/>
<path d="M1745.43 511.319L1748.1 510.911C1748.1 510.911 1747.48 510.253 1746.63 510.422C1745.79 510.591 1745.43 510.679 1745.43 511.319Z" fill="#4b7b2a" fill-rule="nonzero" opacity="1" stroke="none" vectornator:layerName="Curve 3"/>
<path d="M1740.84 511.938L1741.69 511.811C1741.69 511.811 1742.03 512.143 1742.26 512.101C1742.5 512.059 1742.73 511.838 1742.77 511.654L1743.58 511.56C1743.58 511.56 1743.88 512.354 1742.55 512.418C1741.23 512.482 1741.05 512.513 1740.84 511.938Z" fill="#ffffff" fill-rule="nonzero" opacity="1" stroke="none" vectornator:layerName="Curve 4"/>
<path d="M1745.42 511.808L1746.36 511.666C1746.36 511.666 1746.48 512.076 1746.86 512.063C1747.25 512.051 1747.31 511.762 1747.35 511.583L1748.21 511.403C1748.21 511.403 1748.57 512.456 1747.04 512.512C1745.51 512.567 1745.48 512.129 1745.42 511.808Z" fill="#ffffff" fill-rule="nonzero" opacity="1" stroke="none" vectornator:layerName="Curve 5"/>
<path d="M1743.34 520.629C1743.43 520.786 1743.67 520.85 1743.57 520.92C1743.47 520.989 1743.33 521.398 1743.54 521.488C1743.74 521.579 1744.27 521.656 1744.45 521.419L1744.5 521.374C1744.5 521.374 1744.6 521.498 1744.83 521.48C1745.05 521.462 1745.47 521.317 1745.51 521.202C1745.56 521.087 1745.97 520.599 1745.48 520.207C1745.48 520.207 1745.12 520.192 1745.11 520.3C1745.09 520.453 1745.21 520.486 1745.26 520.483C1745.32 520.481 1745.4 520.661 1745.4 520.661C1745.4 520.661 1745.36 520.851 1745.28 520.919C1744.99 521.159 1744.77 521.072 1744.69 521.078C1744.62 521.084 1744.62 521.014 1744.6 520.983C1744.59 520.952 1744.52 520.834 1744.42 520.818C1744.32 520.803 1744.21 520.898 1744.21 521.004C1744.22 521.11 1744.22 521.173 1744.06 521.188C1743.9 521.203 1743.8 521.127 1743.85 521.083C1744.03 520.928 1743.87 520.774 1743.84 520.695C1743.82 520.616 1743.74 520.524 1743.59 520.373C1743.49 520.262 1743.21 520.392 1743.34 520.629Z" fill="#335020" fill-rule="nonzero" opacity="1" stroke="none" vectornator:layerName="Curve 6"/>
<path d="M1714.87 540.04C1714.87 540.04 1714.59 539.828 1715.23 539.372C1715.94 538.859 1718.31 536.683 1720.41 536.061C1722.51 535.439 1727.52 534.119 1730.09 533.985C1732.66 533.851 1735.68 532.887 1736.83 532.72C1737.99 532.553 1740.99 531.029 1740.99 531.029L1743.02 529.519L1742.85 530.891C1742.85 530.891 1742.22 534.292 1740.02 535.924C1737.82 537.556 1735.89 538.461 1733.24 538.82C1730.58 539.179 1726.41 539.012 1726.41 539.012L1722.89 539.065C1722.89 539.065 1720.28 539.407 1719.48 539.791C1718.68 540.175 1715.12 541.589 1715.12 541.589C1715.12 541.589 1716.4 540.177 1714.87 540.04Z" fill="#8ec369" fill-rule="nonzero" opacity="1" stroke="none" vectornator:layerName="Curve 9"/>
<path d="M1714.86 539.957C1714.86 539.957 1717.23 537.028 1722.02 535.749C1726.81 534.471 1731.84 533.695 1732.92 533.576C1734 533.458 1741.38 532.577 1743.46 528.522L1743.45 529.311L1742.98 529.796C1742.98 529.796 1740.94 532.376 1735.93 533.528C1735.93 533.528 1721.05 535.532 1717.75 538.075C1717.75 538.075 1715.67 539.531 1715.47 539.775C1715.26 540.018 1715.13 540.039 1714.86 539.957Z" fill="#335020" fill-rule="nonzero" opacity="1" stroke="none" vectornator:layerName="Curve 8"/>
</g>
</svg>
