<?xml version="1.0" encoding="UTF-8" standalone="no"?>
<!DOCTYPE svg PUBLIC "-//W3C//DTD SVG 1.1//EN" "http://www.w3.org/Graphics/SVG/1.1/DTD/svg11.dtd">
<!-- Created with Vectornator (http://vectornator.io/) -->
<svg height="100%" stroke-miterlimit="10" style="fill-rule:nonzero;clip-rule:evenodd;stroke-linecap:round;stroke-linejoin:round;" version="1.1" viewBox="1752.41 597.174 413.527 327.817" width="100%" xml:space="preserve" xmlns="http://www.w3.org/2000/svg" xmlns:vectornator="http://vectornator.io" xmlns:xlink="http://www.w3.org/1999/xlink">
<defs/>
<g id="folder-sludge" vectornator:layerName="folder sludge">
<path d="M1774.57 921.042C1774.57 921.042 1757.16 921.61 1755.65 910.834C1754.14 900.057 1755.4 886.831 1754.05 851.467C1752.7 816.104 1751.99 749.17 1752.69 732.02C1753.38 714.869 1755.39 662.805 1756.07 650.77C1756.74 638.735 1755.53 622.461 1757.75 616.692C1759.97 610.923 1764.45 606.189 1770.48 605.136C1776.51 604.083 1781.33 604.709 1781.33 604.709L1812.59 604.823C1812.59 604.823 1822.77 603.674 1832.9 603.691C1843.03 603.708 1853.73 602.303 1857.98 604.584C1862.23 606.865 1864.66 608.807 1864.99 615.466C1865.32 622.125 1864.59 627.852 1864.59 627.852C1864.59 627.852 1870.67 627.382 1898.3 627.694C1925.93 628.006 1943.06 628.667 1954.11 628.367C1965.17 628.067 1982.34 629.026 1988.63 628.927C1994.92 628.828 2017.23 629.678 2024.18 629.558C2031.13 629.437 2088.13 632.596 2088.13 632.596L2123.48 637.987L2134.43 634.797C2134.43 634.797 2146.66 651.76 2145.82 668.291C2144.99 684.821 2141.69 702.576 2140.79 710.151C2139.88 717.726 2137.76 738.834 2137.52 751.372C2137.28 763.91 2134.43 792.124 2134.43 792.124C2134.43 792.124 2134.93 832.596 2135.36 842.6C2135.78 852.605 2136.03 889.835 2136.1 895.338C2136.16 900.84 2136.06 908.039 2135.14 911.812C2134.21 915.585 2134.16 922.196 2125.08 922.979C2116 923.762 2100.74 924.385 2100.74 924.385L2016.1 924.991L1995.12 924.692L1904.07 922.079L1875.64 920.32C1875.64 920.32 1838.24 921.649 1823.77 921.298C1809.31 920.947 1778.13 921.091 1774.57 921.042Z" fill="#debf2d" fill-rule="nonzero" opacity="1" stroke="none" vectornator:layerName="Curve 1"/>
<path d="M1813.67 611.726C1813.67 611.726 1835.85 610.936 1843.02 610.822C1850.19 610.709 1855.44 609.424 1855.86 613.62C1856.28 617.815 1856.48 627.446 1856.48 627.446C1856.48 627.446 1856.25 631.88 1857.26 633.401C1858.26 634.921 1858.36 635.804 1864.07 635.453C1869.78 635.101 1884.78 634.865 1884.78 634.865C1884.78 634.865 1911.83 635.868 1928.34 636.008C1944.86 636.149 1990.11 637.636 2003.96 637.049C2017.8 636.461 2030.53 636.83 2048.74 637.484C2066.95 638.139 2090.39 641.05 2090.39 641.05L2112.46 643.355C2112.46 643.355 2132.12 655.066 2134.68 664.195C2137.24 673.325 2132.87 681.332 2132.87 681.332C2132.87 681.332 2131.88 689.073 2131.69 693.748C2131.5 698.422 2131.99 705.793 2131.62 707.449C2131.26 709.105 2129.58 736.311 2129.68 740.594C2129.77 744.877 2128.8 765.068 2128.8 765.068C2128.8 765.068 2129.19 774.625 2129.54 780.726C2129.89 786.828 2127.86 837.052 2127.86 837.052C2127.86 837.052 2127.06 842.912 2127.01 852.687C2126.96 862.462 2127.83 888.611 2127.69 893.01C2127.55 897.409 2128.63 903.162 2127.74 906.705C2126.86 910.247 2125.39 912.764 2122.4 914.071C2119.42 915.378 2095.89 917.251 2077.48 917.63C2059.06 918.01 2044.06 918.017 2044.06 918.017C2044.06 918.017 2029 916.999 2024.95 917.166C2020.9 917.333 2009.96 917.383 2004.45 917.11C1998.93 916.837 1903.53 913.613 1903.53 913.613L1891.52 912.096C1891.52 912.096 1867.11 912.246 1855.81 912.39C1844.51 912.535 1831.79 912.545 1824.49 912.262C1817.18 911.979 1811.48 913.413 1804.88 913.297C1798.29 913.181 1783.98 913.595 1777.88 913.312C1771.78 913.028 1766.8 912.585 1765.37 909.654C1763.95 906.723 1761.27 908.554 1761.78 885.475C1762.28 862.397 1760.94 803.3 1760.7 797.803C1760.45 792.305 1760.08 773.748 1760.25 764.354C1760.41 754.961 1761.62 736.157 1761.76 729.264C1761.9 722.371 1760.71 709.92 1761.48 703.897C1762.24 697.875 1762.78 665.778 1763.5 653.403C1764.22 641.028 1763.57 635.973 1763.71 630.887C1763.85 625.801 1763.7 611.787 1773.83 611.682C1783.97 611.577 1813.67 611.726 1813.67 611.726Z" fill="#ffe875" fill-rule="nonzero" opacity="1" stroke="none" vectornator:layerName="Curve 2"/>
<path d="M1775.16 615.91C1775.16 615.91 1774.62 598.789 1784.45 597.968C1794.27 597.147 1795.07 596.793 1801.6 597.742C1808.13 598.691 1813.33 599.915 1815.03 601.643C1816.73 603.37 1819.67 605.559 1819.51 613.293C1819.34 621.027 1818.79 638.037 1818.82 641.66C1818.85 645.283 1817.98 650.114 1817.66 653.4C1817.33 656.686 1818.36 660.404 1816.55 663.369C1814.73 666.334 1812.09 667.323 1806.82 668.569C1801.56 669.814 1792.07 669.677 1787.92 669.467C1783.77 669.256 1779.3 668.041 1777.73 666.032C1776.17 664.023 1773.93 661.242 1774.07 650.957C1774.21 640.672 1775.58 633.394 1775.6 629.951C1775.63 626.507 1775.36 618.067 1775.16 615.91Z" fill="#aeaeae" fill-rule="nonzero" opacity="1" stroke="none" vectornator:layerName="Curve 3"/>
<path d="M1758.46 704.328C1758.46 704.328 1796.53 701.997 1808.82 702.655C1821.11 703.312 1819.79 703.932 1831.4 703.622C1843.02 703.312 1887.2 705.517 1901.53 705.133C1915.86 704.748 1944.11 704.723 1979.76 704.443C2015.42 704.163 2040.19 706.736 2050.04 707.161C2059.89 707.585 2080.93 710.209 2087.9 709.49C2094.87 708.771 2109.97 710.83 2120.84 710.224C2131.71 709.617 2137.12 709.554 2137.12 709.554L2137.24 719.331L2132.32 718.135C2132.32 718.135 2118.1 717.282 2108.6 716.96C2099.1 716.639 2052.06 715.001 2031.34 714.02C2010.62 713.039 1983.01 711.416 1972.94 711.802C1962.87 712.188 1959.08 712.92 1948.11 712.845C1937.14 712.771 1880.85 711.629 1875.62 711.429C1870.38 711.23 1828.35 711.577 1819.24 711.358C1810.13 711.138 1790.64 709.137 1780.03 709.982C1769.42 710.827 1763.37 711.897 1761.66 712.673C1759.94 713.449 1758.46 704.328 1758.46 704.328Z" fill="#debf2d" fill-rule="nonzero" opacity="1" stroke="none" vectornator:layerName="Curve 4"/>
<path d="M1759.88 727.804C1759.88 727.804 1779.4 726.77 1794.97 726.755C1810.54 726.739 1826.31 727.253 1835.53 727.979C1844.75 728.706 1860.8 728.35 1870.65 728.368C1880.51 728.386 1905.38 727.922 1919.45 728.437C1933.52 728.952 1939.11 730.171 1945.8 729.169C1952.48 728.168 1983.48 731.615 1983.48 731.615C1983.48 731.615 2020.39 729.858 2042.78 731.173C2065.18 732.489 2079.22 733.055 2079.22 733.055C2079.22 733.055 2103.61 734.677 2109.81 734.582C2116 734.486 2127.09 733.334 2130.98 734.008C2134.87 734.682 2136.87 742.009 2136.87 742.009L2132 743.168C2132 743.168 2107.6 741.546 2097.65 741.526C2087.7 741.505 2083.18 740.822 2078.82 740.534C2074.46 740.247 2062.73 740.285 2062.73 740.285L2051.9 740.346L2014.71 736.752C2014.71 736.752 1997.94 739.535 1989.35 738.463C1980.77 737.391 1944.4 738.752 1944.4 738.752C1944.4 738.752 1920.6 737.199 1914 737.23C1907.4 737.26 1886.02 736.614 1877.85 736.592C1869.68 736.569 1834.41 734.542 1830.62 734.588C1826.83 734.635 1806.23 734.415 1801.36 734.356C1796.48 734.296 1781.1 735.518 1778.15 735.165C1775.2 734.812 1761.81 735.908 1761.81 735.908L1757.46 736.734L1759.88 727.804Z" fill="#debf2d" fill-rule="nonzero" opacity="1" stroke="none" vectornator:layerName="Curve 5"/>
<path d="M2090.58 905.953L2117.17 878.5L2118.78 906.077L2090.58 905.953Z" fill="#debf2d" fill-rule="nonzero" opacity="1" stroke="none" vectornator:layerName="Curve 6"/>
<path d="M1783.16 613.88C1783.16 613.88 1782.26 646.317 1782.4 650.544C1782.54 654.772 1781.08 660.594 1784.48 661.01C1787.87 661.426 1802.71 660.871 1802.71 660.871C1802.71 660.871 1807.7 661.495 1808.53 658.654C1809.36 655.812 1811.23 642.713 1811.02 638.623C1810.82 634.534 1812.55 620.049 1811.58 615.752C1810.61 611.455 1809.56 609.504 1808.01 608.771C1799.22 604.622 1784.19 605.976 1783.46 606.728C1782.73 607.48 1783.04 607.358 1783.16 613.88Z" fill="#ffffff" fill-rule="nonzero" opacity="1" stroke="none" vectornator:layerName="Curve 7"/>
<path d="M2037.39 632.098C2037.39 632.098 2043.5 651.024 2047.49 654.022C2051.48 657.02 2062.75 658.483 2062.75 658.483C2062.75 658.483 2068.2 652.833 2069.69 649.873C2071.18 646.913 2075.09 642.371 2078.96 642.979C2082.83 643.587 2085.5 644.804 2087.4 646.867C2089.29 648.93 2092.72 668.887 2091.91 674.198C2091.11 679.509 2087.12 690.323 2087.02 693.518C2086.92 696.714 2086.98 712.779 2092.25 711.476C2097.53 710.172 2102.38 709.574 2100.88 699.812C2099.39 690.051 2093.13 667.51 2095.96 659.887C2098.8 652.264 2116.06 639.586 2127.12 659.97C2127.12 659.97 2132.42 670.379 2134.81 706.954C2137.21 743.528 2139.7 747.338 2129.11 795.817C2118.53 844.296 2129.56 847.209 2133.32 848.23C2137.08 849.252 2147.39 848.562 2149.05 839.155C2150.72 829.748 2151.08 812.907 2149.25 797.889C2147.42 782.871 2138.46 756.166 2149.07 711.708C2159.43 668.314 2164.68 654.152 2162.24 645.662C2159.79 637.172 2144.9 629.438 2131.41 631.177C2117.92 632.917 2099.44 633.569 2083.01 631.17C2066.58 628.77 2044.25 624.881 2037.39 632.098Z" fill="#59c800" fill-rule="nonzero" opacity="1" stroke="none" vectornator:layerName="Curve 1"/>
<path d="M2070.37 627.361C2069.43 629.009 2073.36 627.244 2074.82 627.055C2076.77 626.804 2078.88 626.932 2080.83 627.216C2086.58 628.055 2091.89 630.749 2097.56 632.164C2099.73 632.704 2101.83 632.58 2104.01 632.805C2104.21 632.827 2105.69 632.859 2105.67 633.526C2105.65 634.393 2103.44 634.179 2103.09 634.163C2100.86 634.065 2098.65 633.711 2096.44 633.314C2090.3 632.207 2084.26 632.795 2078.11 631.355C2075.76 630.803 2071.5 625.377 2070.37 627.361Z" fill="#55bc00" fill-rule="nonzero" opacity="1" stroke="none" vectornator:layerName="Curve 21"/>
<path d="M2089.28 756.703C2091.14 759.448 2095.06 755.92 2095.81 753.781C2098.06 747.394 2096.51 740.933 2096.27 734.372C2095.99 726.754 2096.39 730.114 2094.34 729.647C2091.39 728.974 2089.91 732.879 2089.25 734.989C2087.43 740.819 2087.44 746.432 2089.02 752.284C2089.37 753.58 2090.04 756.729 2091.48 757.092" fill="#59c800" fill-rule="nonzero" opacity="1" stroke="none" vectornator:layerName="Curve 24"/>
<path d="M2046.87 656.417C2046.87 656.417 2063.25 660.164 2066.26 653.24C2069.26 646.316 2073.99 639.641 2080.89 641.182C2080.89 641.182 2086.36 642.674 2085.28 645.862C2085.28 645.862 2077.03 643.112 2074.12 648.323C2071.21 653.535 2069.9 664.192 2057.15 662.646C2057.15 662.646 2050.85 662.161 2046.87 656.417Z" fill="#54bc00" fill-rule="nonzero" opacity="1" stroke="none" vectornator:layerName="Curve 2"/>
<path d="M2090.81 711.476C2090.81 711.476 2091.52 709.071 2094.09 708.061C2096.66 707.05 2096.59 707.543 2097.76 705.147C2098.93 702.75 2099.66 696.401 2097.57 688.516C2095.48 680.632 2092.13 669.562 2094.23 660.082C2096.33 650.602 2099.94 646.186 2108.57 644.884C2117.2 643.582 2123.73 649.762 2124.98 653.44C2126.23 657.118 2125.64 660.702 2125.64 660.702C2125.64 660.702 2121.38 654.762 2117.94 653.442C2114.5 652.122 2110.2 650.938 2103.15 654.867C2103.15 654.867 2096.76 658.111 2096.19 666.521C2095.62 674.931 2098.01 679.145 2099.29 682.833C2100.57 686.521 2105 699.091 2102.34 704.488C2099.67 709.886 2094.73 712.77 2090.81 711.476Z" fill="#54bc00" fill-rule="nonzero" opacity="1" stroke="none" vectornator:layerName="Curve 3"/>
<path d="M2138.46 852.162C2138.46 852.162 2136.08 848.679 2138.79 846.097C2141.5 843.516 2147.96 838.469 2148.12 828.076C2148.29 817.684 2145.19 809.049 2145.39 797.217C2145.59 785.386 2144.12 783.03 2144.77 775.944C2145.42 768.857 2145.34 766.346 2145.34 766.346C2145.34 766.346 2149.32 774.735 2151.26 783.837C2153.38 793.826 2154.97 805.082 2155.19 806.524C2158.52 828.308 2156.07 834.884 2152.36 840.848C2148.64 846.811 2143.54 851.641 2138.46 852.162Z" fill="#54bc00" fill-rule="nonzero" opacity="1" stroke="none" vectornator:layerName="Curve 4"/>
<path d="M2094.75 748.231C2094.75 748.231 2093.64 740.905 2094.81 738.406C2095.98 735.907 2096.17 736.505 2096.17 736.505C2096.17 736.505 2098.86 748.172 2097.22 752.143C2095.57 756.114 2094.24 757.083 2092.78 757.404C2092.78 757.404 2091.32 756.954 2093.04 755.459C2094.76 753.965 2095.89 751.536 2094.75 748.231Z" fill="#54bc00" fill-rule="nonzero" opacity="1" stroke="none" vectornator:layerName="Curve 5"/>
<path d="M2153.04 627.595C2153.04 627.595 2165 633.481 2165.66 647.553C2166.32 661.624 2166.55 669.182 2157.87 684.66C2157.87 684.66 2155.08 690.008 2154.89 693.322C2154.7 696.636 2153.07 703.368 2151.26 708.407C2149.44 713.445 2147.28 726.631 2146.8 730.611C2146.32 734.591 2145.31 741.265 2144.63 743.785C2143.96 746.304 2145.05 702.39 2148.89 692.432C2152.73 682.474 2157.68 668.129 2158.57 657.544C2159.45 646.959 2160.32 639.669 2153.04 627.595Z" fill="#55bc00" fill-rule="nonzero" opacity="1" stroke="none" vectornator:layerName="Curve 6"/>
<path d="M2048.29 650.64C2048 645.148 2045.53 645.618 2043.85 642.175C2042.16 638.731 2038.45 637.661 2039.33 634.603C2040.31 631.2 2035.69 632.752 2035.69 632.752C2035.69 632.752 2044.21 628.665 2048.69 630.967C2056.78 635.133 2063.26 631.659 2067.58 631.314C2077.03 630.559 2092.14 639.004 2095.99 634.198C2097.75 632.004 2080.06 628.501 2079.98 627.901C2079.91 627.3 2072.87 626.267 2070.23 625.408C2067.59 624.549 2048.94 622.517 2039.18 624.96C2029.42 627.403 2023.7 628.489 2021.32 628.726C2018.94 628.963 2017.12 627.947 2017.12 627.947C2017.12 627.947 2019.4 634.27 2021.88 634.356C2024.36 634.442 2037.26 633.576 2040.16 645.422C2040.16 645.422 2041.9 653.51 2048.55 658.286C2048.55 658.286 2051.58 661.165 2056.96 659.135C2060.24 657.899 2063.8 658.592 2064.08 656.417C2064.34 654.36 2048.55 655.348 2048.29 650.64Z" fill="#62d30f" fill-rule="nonzero" opacity="1" stroke="none" vectornator:layerName="Curve 7"/>
<path d="M2085.28 631.216C2085.28 631.216 2100.57 632.371 2107.5 630.849C2114.42 629.327 2125.76 625.414 2129.95 624.115C2134.13 622.816 2144.17 621.59 2148.68 623.816C2153.2 626.041 2160.41 630.407 2161.58 634.806C2162.2 637.126 2160.78 638.357 2159.36 639.669C2158.09 640.845 2151.51 635.578 2147.68 634.852C2143.85 634.126 2138.01 633.985 2131.77 636.285C2125.53 638.584 2122.16 637.7 2118.97 636.997C2115.77 636.295 2110.56 635.031 2107.44 634.806C2104.32 634.581 2081.94 636.694 2093.65 634.115C2096.14 633.569 2085.28 631.216 2085.28 631.216Z" fill="#62d30f" fill-rule="nonzero" opacity="1" stroke="none" vectornator:layerName="Curve 8"/>
<g opacity="1" vectornator:layerName="Curve 9">
<path d="M2082.03 666.219C2081.94 666.303 2081.84 666.385 2081.75 666.469C2081.72 666.568 2081.78 666.659 2081.88 666.688C2081.97 666.716 2082.1 666.662 2082.12 666.562C2082.09 666.444 2082.06 666.337 2082.03 666.219Z" fill="#79ea00" stroke="none"/>
</g>
<path d="M2083.25 645.503C2090.7 650.356 2084.68 650.712 2087.95 656.417C2091.33 662.319 2091.66 670.848 2089.68 677.443C2089.02 679.677 2087.45 681.45 2086.71 683.557C2085.44 687.214 2085.06 691.236 2084.68 695.815C2084.3 700.399 2082.02 703.113 2086.71 708.898C2087.52 709.892 2089.85 711.746 2091.45 711.451C2093.93 710.995 2089.53 706.88 2089.25 706.276C2088 703.493 2087.53 699.44 2087.44 696.405C2087.26 690.143 2090.81 680.913 2091.94 678.886C2094.88 673.616 2092.2 669.605 2093.74 660.414C2094 658.875 2093.12 657.378 2092.78 655.872C2092.37 654.057 2092.28 652.165 2091.41 650.486C2090.76 649.239 2089.67 648.208 2088.79 647.119C2088.13 646.309 2084.59 642.285 2083.57 643.31C2083.16 643.728 2082.02 644.707 2083.25 645.503Z" fill="#74d111" fill-rule="nonzero" opacity="1" stroke="none" vectornator:layerName="Curve 10"/>
<path d="M2086.34 751.399C2085.07 747.48 2085.3 741.599 2086.71 736.375C2087.08 735.043 2087.52 732.202 2088.03 731.27C2089.15 729.23 2090.24 727.147 2091.91 725.489C2092.28 725.127 2093.28 724.405 2093.85 724.67C2095.88 725.61 2097.75 729.302 2096.11 731.744C2095.85 732.129 2096.14 733.481 2095.74 733.833C2094.66 734.784 2094.42 730.655 2092.9 730.826C2091.91 730.937 2090.46 729.835 2091 733.136C2091.41 735.678 2089.32 738.078 2088.97 740.646C2087.86 748.916 2090.81 747.726 2090.65 754.046C2090.58 756.73 2095.52 754.118 2094.98 754.996C2094.78 755.315 2094.98 757.707 2090.81 757.707C2087.86 757.707 2086.7 752.512 2086.34 751.399Z" fill="#62d30f" fill-rule="nonzero" opacity="1" stroke="none" vectornator:layerName="Curve 11"/>
<path d="M2029.66 633.028C2029.37 632.853 2028.35 632.456 2028.34 632.043C2028.33 631.042 2030.75 629.823 2031.47 629.53C2035.56 627.866 2040.16 628.386 2044.58 627.901C2047.78 627.55 2050.97 625.874 2053.93 626.742C2058.04 627.947 2059.68 626.325 2062.65 626.635C2065.61 626.942 2068.6 626.795 2071.56 627.002C2073.68 627.15 2081.09 629.608 2081.94 628.726C2082.03 628.632 2079.76 627.297 2079.64 627.239C2078.69 626.77 2077.66 626.52 2076.65 626.184C2073.04 624.976 2069.32 624.401 2065.61 623.561C2056.63 621.53 2046.87 621.7 2038.64 623.313C2035.07 624.013 2031.4 622.933 2027.91 623.991C2025.32 624.776 2022.67 625.181 2020.09 626.06C2019.42 626.29 2017.54 626.849 2017.22 627.579C2016.69 628.791 2018.25 630.47 2018.5 631.356C2020.01 636.694 2027.71 635.405 2031.49 636.094L2029.66 633.028Z" fill="#86e41b" fill-rule="nonzero" opacity="1" stroke="none" vectornator:layerName="Curve 14"/>
<path d="M2105.67 632.004C2104.34 630.159 2113.13 628.623 2115.34 627.57C2118.57 626.022 2121.25 623.545 2124.57 622.179C2129.36 620.204 2135.66 620.132 2140.71 620.983C2144.1 621.555 2148.41 622.618 2150.87 625.248C2151.12 625.515 2152.85 627.076 2152.71 627.471C2152.57 627.891 2151.41 627.339 2151.19 627.26C2149.63 626.684 2148.1 626.144 2146.49 625.681C2142.6 624.558 2138.54 623.746 2134.47 623.819C2130.34 623.893 2128.05 624.971 2124.22 626.498C2122.41 627.215 2119.39 628.338 2117.63 629.024C2114.67 630.187 2107.41 634.411 2105.67 632.004Z" fill="#82e313" fill-rule="nonzero" opacity="1" stroke="none" vectornator:layerName="Curve 15"/>
<path d="M2129.64 672.133C2129.76 674.916 2132.15 677.787 2131.86 680.587C2131.08 688.262 2131.96 688.514 2131.98 692.458C2132 697.631 2130.34 701.531 2132.91 707.999C2137.49 719.527 2129.82 713.142 2137.93 732.25C2138.78 734.258 2139.52 727.942 2139.39 726.28C2139.27 724.784 2138.98 719.847 2139.02 718.635C2139.11 715.905 2139.52 716.985 2137.72 711.701C2134.93 703.528 2136.88 700.292 2137.2 694.135C2137.49 688.598 2134.02 688.262 2134.55 675.303C2134.73 670.957 2134.08 666.618 2132.94 662.374C2132.02 658.96 2129.64 654.428 2127.25 651.862C2126.92 651.512 2121.87 647.694 2121.9 649.723C2121.97 655.076 2129.35 665.702 2129.64 672.133Z" fill="#5bd900" fill-rule="nonzero" opacity="1" stroke="none" vectornator:layerName="Curve 16"/>
<path d="M2146.5 769.041C2145.14 764.58 2144.8 755.384 2144.8 749.651C2144.8 740.16 2146.98 730.986 2148.43 723.528C2149.31 719.006 2148.31 718.196 2149.11 713.61C2149.18 713.196 2149.99 709.549 2148.98 709.693C2148.18 709.807 2147.54 711.917 2147.32 712.518C2146.17 715.688 2146.2 719.142 2145.36 722.376C2143.4 729.994 2144.28 737.292 2143.86 745.126C2143.6 749.956 2141.05 755.097 2141.63 759.92C2141.99 762.992 2142.18 766.015 2142.88 769.041C2143 769.538 2144.84 779.936 2145.82 779.537C2146.71 779.176 2151.26 784.75 2146.5 769.041Z" fill="#55bc00" fill-rule="nonzero" opacity="1" stroke="none" vectornator:layerName="Curve 17"/>
<path d="M2138.46 852.162C2136.18 853.007 2133.26 852.263 2131.08 851.156C2124.34 847.738 2122.07 839.031 2121.38 831.967C2120.39 821.869 2118.78 823.159 2120.83 803.831C2122 792.907 2127.01 782.808 2131.22 768.402C2132.87 762.754 2134.12 756.96 2135.82 751.364C2135.99 750.825 2136.8 746.001 2136.83 745.994C2137.79 745.755 2138.13 749.51 2138.13 749.934C2138.13 753.524 2137.72 757.11 2137.4 760.675C2136.97 765.456 2135.88 770.187 2135.31 774.954C2134.95 777.967 2134.73 781.096 2133.95 784.039C2131.94 791.644 2129.16 798.928 2128.22 806.799C2127.18 815.41 2124.38 828.861 2127.68 837.115C2128.93 840.258 2130.92 842.421 2133.72 844.246C2136.43 846.01 2140.75 845.683 2139.61 850.774" fill="#5bd900" fill-rule="nonzero" opacity="1" stroke="none" vectornator:layerName="Curve 18"/>
<path d="M2131.06 770.375C2133.07 763.124 2132.92 755.363 2135.48 746.923C2136.97 742.007 2134.02 728.783 2134.02 720.354C2134.02 715.242 2134.71 723.127 2134.97 717.977C2135.03 716.935 2134.69 713.122 2136.58 713.749C2137.73 714.133 2137.56 716.095 2137.58 717.044C2137.65 720.388 2139.12 724.718 2139.51 728.044C2140.68 738.091 2137.17 747.447 2137.03 757.524C2136.97 761.288 2135.39 769.536 2134.02 772.945C2133.35 774.617 2133.58 777.443 2131.22 776.406C2129.59 775.692 2130.64 771.896 2131.06 770.375Z" fill="#5bd800" fill-rule="nonzero" opacity="1" stroke="none" vectornator:layerName="Curve 19"/>
<path d="M2034.77 626.6C2029.5 626.6 2031.17 627.596 2026.97 628.762C2025.67 629.12 2021.12 629.597 2023.47 631.679C2024.46 632.565 2026 632.869 2027.1 633.646C2027.72 634.092 2028.22 634.794 2028.84 635.22C2030.75 636.532 2034.82 637.176 2036.97 636.274C2038.86 635.48 2040.55 633.45 2042.19 632.214C2043.82 630.98 2046.09 630.638 2048.05 630.394C2051.27 629.994 2054.26 630.772 2057.53 629.99C2058.35 629.792 2070.55 630.191 2070.23 629.207C2069.6 627.298 2063.7 626.6 2056.78 627.901C2053.56 628.506 2050.45 628.611 2048.55 628.726C2042.83 629.073 2036.18 626.6 2034.77 626.6Z" fill="#62d30f" fill-rule="nonzero" opacity="1" stroke="none" vectornator:layerName="Curve 20"/>
<path d="M2147.83 648.895C2146.19 648.895 2144.41 651.191 2143.5 652.43C2141.26 655.475 2135.49 666.726 2142.08 668.677C2144.37 669.357 2146.27 668.181 2148.17 667.08C2149.69 666.205 2151.26 665.458 2152.34 664.002C2154.39 661.235 2156.55 655.496 2155.41 652.088C2154.19 648.407 2149.26 645.982 2146.46 649.18" fill="#55bc00" fill-rule="nonzero" opacity="1" stroke="none" vectornator:layerName="Curve 22"/>
<path d="M2145.24 673.693C2143.68 674.748 2141.79 676.057 2141.79 678.14C2141.79 680.349 2144.09 681.523 2145.95 680.591C2147.9 679.617 2149.63 677.441 2149.83 675.232C2150.14 671.759 2147.44 672.205 2145.24 673.693Z" fill="#55bc00" fill-rule="nonzero" opacity="1" stroke="none" vectornator:layerName="Curve 23"/>
<path d="M2086.02 750.515C2084.62 745.611 2085.41 737.274 2087.6 732.7C2088.29 731.246 2088.74 729.641 2089.85 728.401C2089.96 728.276 2090.72 727.328 2090.96 727.455C2091.54 727.763 2090.6 729.667 2090.43 729.985C2089.21 732.352 2088.48 735.21 2088 737.833C2087.31 741.611 2087.3 744.943 2087.85 748.718C2087.95 749.36 2089.14 754.238 2087.95 754.166C2087.1 754.114 2086.15 750.994 2086.02 750.515Z" fill="#79ea00" fill-rule="nonzero" opacity="1" stroke="none" vectornator:layerName="Curve 25"/>
<path d="M2132.53 829.475C2127.85 833.589 2133.71 844.035 2139.75 840.36C2143.85 837.861 2145.2 831.944 2140.67 828.933C2138.45 827.456 2134.23 827.982 2132.53 829.475Z" fill="#87e937" fill-rule="nonzero" opacity="1" stroke="none" vectornator:layerName="Curve 1"/>
<path d="M2143.25 814.656C2138.96 815.893 2139.46 823.879 2144.18 822.8C2146.98 822.158 2149.58 818.767 2148.39 815.808C2147.66 813.996 2144.63 814.257 2143.25 814.656Z" fill="#87e937" fill-rule="nonzero" opacity="1" stroke="none" vectornator:layerName="Curve 2"/>
<path d="M2126.93 807.622C2123.71 809.979 2122.42 815.483 2124.05 819.109C2124.52 820.164 2125.43 821.81 2126.44 822.438C2128.61 823.782 2132.81 823.108 2134.72 821.556C2135.5 820.917 2135.79 819.768 2136.2 818.89C2137.08 817.019 2139.22 812.135 2138.18 810.155C2136.38 806.702 2129.97 805.401 2126.93 807.622Z" fill="#87e937" fill-rule="nonzero" opacity="1" stroke="none" vectornator:layerName="Curve 3"/>
<path d="M2088.4 693.881C2087.62 694.075 2087.18 695.698 2086.93 696.413C2086.01 698.998 2088.19 702.091 2091.05 701.444C2094.03 700.771 2095.45 695.398 2092.84 693.521C2091.47 692.535 2089.76 693.545 2088.4 693.881Z" fill="#87e937" fill-rule="nonzero" opacity="1" stroke="none" vectornator:layerName="Curve 4"/>
<path d="M2051.87 645.148C2049.86 650.317 2058.99 654.283 2061.39 649.175C2063.27 645.188 2055.8 639.11 2052.47 644.009" fill="#87e937" fill-rule="nonzero" opacity="1" stroke="none" vectornator:layerName="Curve 5"/>
<path d="M2054.28 630.577C2053.32 630.156 2051.85 629.574 2050.86 629.403C2047.27 628.787 2041.98 629.484 2040.55 633.461C2040.21 634.41 2040.22 635.669 2040.68 636.582C2041.5 638.194 2043.1 639.041 2044.62 639.828C2048.39 641.78 2053.98 641.734 2055.94 637.297C2056.72 635.529 2057.25 633.605 2056.17 631.846C2055.78 631.2 2055.02 630.901 2054.28 630.577Z" fill="#87e937" fill-rule="nonzero" opacity="1" stroke="none" vectornator:layerName="Curve 6"/>
<path d="M2124.24 630.558C2124.53 629.696 2126.59 629.385 2127.47 629.126C2131.26 628.008 2136.86 629.115 2137.19 634.001C2137.43 637.76 2131.6 639.946 2128.64 639.641C2127.83 639.556 2126.84 639.05 2126.17 638.595C2124.65 637.569 2122.29 634.793 2122.84 632.769C2123.06 631.951 2124.01 631.271 2124.24 630.558Z" fill="#87e937" fill-rule="nonzero" opacity="1" stroke="none" vectornator:layerName="Curve 7"/>
<path d="M2142.28 627.769C2141.37 628.286 2140.2 629.674 2139.96 630.462C2139.21 632.981 2141.28 635.256 2143.84 634.729C2147.02 634.074 2147.84 630.479 2145.33 628.504C2144.82 628.102 2143.24 627.223 2142.28 627.769Z" fill="#87e937" fill-rule="nonzero" opacity="1" stroke="none" vectornator:layerName="Curve 8"/>
</g>
</svg>
