<?xml version="1.0" encoding="UTF-8" standalone="no"?>
<!DOCTYPE svg PUBLIC "-//W3C//DTD SVG 1.1//EN" "http://www.w3.org/Graphics/SVG/1.1/DTD/svg11.dtd">
<!-- Created with Vectornator (http://vectornator.io/) -->
<svg height="100%" stroke-miterlimit="10" style="fill-rule:nonzero;clip-rule:evenodd;stroke-linecap:round;stroke-linejoin:round;" version="1.1" viewBox="381.834 521.213 601.929 279.379" width="100%" xml:space="preserve" xmlns="http://www.w3.org/2000/svg" xmlns:vectornator="http://vectornator.io" xmlns:xlink="http://www.w3.org/1999/xlink">
<defs>
<filter color-interpolation-filters="sRGB" filterUnits="userSpaceOnUse" height="279.379" id="Filter" width="601.929" x="381.834" y="521.213">
<feDropShadow dx="0" dy="0" flood-color="#a8faec" flood-opacity="0.9" in="SourceGraphic" result="Shadow" stdDeviation="5.17123"/>
<feGaussianBlur in="Shadow" result="Blur" stdDeviation="0.193798"/>
</filter>
<filter color-interpolation-filters="sRGB" filterUnits="userSpaceOnUse" height="179.442" id="Filter_2" width="545.043" x="390.297" y="544.831">
<feDropShadow dx="3.37996" dy="3.73089" flood-color="#0a0a0a" flood-opacity="0.6" in="SourceGraphic" result="Shadow" stdDeviation="3.71575"/>
<feGaussianBlur in="Shadow" result="Blur" stdDeviation="2.90698"/>
</filter>
<filter color-interpolation-filters="sRGB" filterUnits="userSpaceOnUse" height="127.892" id="Filter_3" width="176.833" x="649.153" y="660.657">
<feDropShadow dx="1.3106" dy="1.44667" flood-color="#0a0a0a" flood-opacity="0.6" in="SourceGraphic" result="Shadow" stdDeviation="7.39726"/>
<feGaussianBlur in="Shadow" result="Blur" stdDeviation="2.61701"/>
</filter>
<path d="M415.304 636.087C415.304 636.087 419.767 610.827 429.509 595.723C439.252 580.62 447.126 579.32 476.486 577.063C505.846 574.806 518.684 576.76 528.541 582.104C543.921 590.441 535.922 612.359 534.908 621.582C534.908 621.582 497.811 621.79 488.539 622.509C488.539 622.509 467.772 622.387 467.749 624.823C467.706 629.237 469.044 631.378 474.736 631.624C480.429 631.87 520.902 630.218 524.039 630.361C527.176 630.505 533.733 630.611 532.191 636.863C530.65 643.115 523.188 671.35 515.767 681.674C511.969 686.958 505.081 693.06 488.559 695.056C472.037 697.052 442.876 697.825 432.259 693.189C421.642 688.552 413.218 682.829 411.378 672.858C411.378 672.858 410.183 661.403 412.926 653.511C412.926 653.511 412.978 651.406 416.209 651.479C419.439 651.551 451.035 651.104 456.532 650.925C462.03 650.746 468.949 649.979 468.949 649.979C468.949 649.979 468.24 643.841 464.462 642.862C460.684 641.883 437.076 643.292 437.076 643.292C437.076 643.292 423.717 643.654 420.635 643.369C417.554 643.084 416.69 641.846 416.078 641.256C415.466 640.666 414.754 638.35 415.304 636.087Z" id="Fill"/>
<filter color-interpolation-filters="sRGB" filterUnits="userSpaceOnUse" height="141.209" id="Filter_4" width="147.49" x="400.758" y="565.778">
<feDropShadow dx="0" dy="0" flood-color="#e0ff7b" flood-opacity="0.8" in="SourceGraphic" result="Shadow" stdDeviation="4.0818"/>
<feGaussianBlur in="Shadow" result="Blur" stdDeviation="0.0625983"/>
</filter>
<path d="M536.004 689.756C536.004 689.756 532.107 687.742 533.183 680.007C534.259 672.272 540.422 643.786 540.422 643.786C540.422 643.786 547.451 613.04 549.367 608.817C551.283 604.594 555.522 589.732 568.111 581.956C568.111 581.956 581.087 571.416 599.092 574.312L600.876 574.825L582.89 650.055C582.89 650.055 616.787 646.441 626.483 652.348C636.179 658.256 640.345 666.658 641.112 672.583C641.88 678.508 640.581 686.319 638.052 689.807L550.728 692.365C550.728 692.365 539.675 693.18 536.004 689.756Z" id="Fill_2"/>
<filter color-interpolation-filters="sRGB" filterUnits="userSpaceOnUse" height="139.051" id="Filter_5" width="128.746" x="522.791" y="563.604">
<feDropShadow dx="0" dy="0" flood-color="#e0ff7b" flood-opacity="0.8" in="SourceGraphic" result="Shadow" stdDeviation="4.0818"/>
</filter>
<path d="M691.842 645.262L707.62 577.349C707.62 577.349 708.846 573.373 708.627 571.701C708.408 570.029 704.485 570.086 703.135 569.999C701.786 569.912 678.442 568.235 665.412 593.393C659.021 605.734 654.233 635.562 652 652.041C649.767 668.521 649.887 678.965 650.187 680.236C650.491 681.529 651.973 685.052 653.767 685.861C655.561 686.67 658.504 687.785 660.284 687.702C662.064 687.62 732.083 685.567 732.083 685.567C732.083 685.567 741.856 685.565 746.809 682.463C751.762 679.36 756.021 675.701 757.431 670.002C758.842 664.303 775.991 580.11 775.991 580.11L777.19 572.853C777.19 572.853 776.503 570.131 775.071 569.189C773.638 568.246 756.777 564.588 743.412 573.805C736.988 578.235 732.222 584.636 727.659 606.926C723.095 629.216 721.073 641.421 717.421 643.849C713.768 646.277 714.968 646.773 691.842 645.262Z" id="Fill_3"/>
<filter color-interpolation-filters="sRGB" filterUnits="userSpaceOnUse" height="140.437" id="Filter_6" width="147.575" x="639.82" y="557.474">
<feDropShadow dx="0" dy="0" flood-color="#e0ff7b" flood-opacity="0.8" in="SourceGraphic" result="Shadow" stdDeviation="4.0818"/>
</filter>
<path d="M810.432 647.694C810.432 647.694 811.475 614.57 817.405 605.411C817.405 605.411 819.679 601.859 825.65 601.868C831.622 601.876 881.869 600.792 881.869 600.792C881.869 600.792 900.8 601.63 905.936 583.551L908.798 572.289C908.798 572.289 908.699 567.14 905.359 566.364C903.051 565.828 845.31 565.425 808.639 567.678C777.25 569.608 775.036 617.124 769.994 653.136C768.454 664.138 771.687 669.33 771.687 669.33C771.687 669.33 775.222 680.605 799.411 684.905C813.085 687.335 849.021 687.55 867.243 683.484C888.834 678.665 888.622 675.014 894.263 660.078C899.071 647.348 900.591 612.123 900.219 611.482C899.847 610.841 899.538 608.163 894.458 607.94C889.379 607.717 824.97 608.457 823.172 608.611C821.374 608.766 820.15 613.884 820.933 620.635C821.716 627.387 823.432 633.913 831.092 636.012C838.752 638.112 842.226 637.217 847.629 637.467C853.031 637.717 860.926 642.763 861.226 647.694C861.226 647.694 810.949 647.697 810.432 647.694Z" id="Fill_4"/>
<filter color-interpolation-filters="sRGB" filterUnits="userSpaceOnUse" height="141.115" id="Filter_7" width="159.629" x="759.374" y="555.741">
<feDropShadow dx="0" dy="0" flood-color="#e0ff7b" flood-opacity="0.8" in="SourceGraphic" result="Shadow" stdDeviation="4.0818"/>
</filter>
<path d="M703.236 710.479L684.867 710.908C684.867 710.908 682.997 710.897 683.263 708.546C683.528 706.196 683.17 702.205 689.771 699.691C696.372 697.177 700.97 697.361 709.381 697.119C717.793 696.876 722.488 697.951 721.981 703.378C721.981 703.378 722.092 705.023 717.926 710.392C713.761 715.761 711.627 719.499 711.627 719.499C711.627 719.499 716.718 718.853 719.107 719.986C721.496 721.118 723.14 722.678 722.687 725.774C722.234 728.87 717.641 744.906 712.816 749.708C707.991 754.51 705.852 754.085 702.896 754.252C699.94 754.418 689.018 756.113 684.602 752.872C680.185 749.631 679.237 745.907 678.468 743.343C677.699 740.778 680.154 740.591 680.623 740.451C681.092 740.31 703.059 739.886 703.059 739.886C703.059 739.886 705.693 738.414 706.494 733.479C707.295 728.544 707.008 729.185 701.148 728.999C695.288 728.812 692.021 728.453 691.675 724.624C691.675 724.624 691.399 722.936 695.178 718.999C698.956 715.063 703.236 710.479 703.236 710.479Z" id="Fill_5"/>
<filter color-interpolation-filters="sRGB" filterUnits="userSpaceOnUse" height="76.6854" id="Filter_8" width="63.3722" x="668.855" y="687.622">
<feDropShadow dx="0" dy="0" flood-color="#e0ff7b" flood-opacity="0.8" in="SourceGraphic" result="Shadow" stdDeviation="3.78605"/>
</filter>
<path d="M724.694 736.436C724.694 736.436 726.956 732.593 731.357 731.858C735.759 731.122 736.959 731.445 737.59 731.943C738.221 732.441 739.576 733.648 739.786 734.438C739.996 735.228 741.012 743.353 737.555 745.524C734.098 747.695 731.97 748.817 728.01 745.577C724.05 742.338 722.829 740.545 724.694 736.436Z" id="Fill_6"/>
<filter color-interpolation-filters="sRGB" filterUnits="userSpaceOnUse" height="35.1073" id="Filter_9" width="35.1785" x="714.374" y="721.961">
<feDropShadow dx="0" dy="0" flood-color="#e0ff7b" flood-opacity="0.8" in="SourceGraphic" result="Shadow" stdDeviation="3.78605"/>
</filter>
<path d="M745.795 710.988C745.849 710.68 746.324 707.681 748.725 704.854C748.725 704.854 752.297 699.857 757.627 698.263C762.958 696.67 776.856 695.139 776.856 695.139C776.856 695.139 786.189 693.112 789.883 698.435C793.576 703.757 791.521 709.691 791.521 709.691L788.353 719.84C788.353 719.84 781.877 740.616 777.19 744.04C773.857 746.476 757.336 748 752.928 747.197C747.717 746.248 745.364 741.288 745.364 741.288C745.364 741.288 742.572 729.483 745.795 710.988Z" id="Fill_7"/>
<filter color-interpolation-filters="sRGB" filterUnits="userSpaceOnUse" height="71.5828" id="Filter_10" width="66.7803" x="734.776" y="685.295">
<feDropShadow dx="0" dy="0" flood-color="#e0ff7b" flood-opacity="0.8" in="SourceGraphic" result="Shadow" stdDeviation="3.78605"/>
</filter>
<filter color-interpolation-filters="sRGB" filterUnits="userSpaceOnUse" height="30.306" id="Filter_11" width="17.743" x="757.447" y="708.358">
<feDropShadow dx="0.164389" dy="0.0479258" flood-color="#e0ff7b" flood-opacity="0.8" in="SourceGraphic" result="Shadow" stdDeviation="1.62586"/>
</filter>
</defs>
<g id="logo" vectornator:layerName="logo">
<path d="M570.091 562.514C570.091 562.514 715.992 499.474 908.542 562.954C908.542 562.954 951.897 582.14 965.688 608.826C965.688 608.826 981.98 635.716 953.656 671.799C953.656 671.799 931.987 703.687 872.853 731.085C872.853 731.085 812.416 759.926 748.309 772.376C748.309 772.376 608.568 800.857 517.416 778.811C517.416 778.811 458.385 766.829 421.868 739.185C421.868 739.185 399.984 724.22 396.129 699.623C396.129 699.623 391.968 683.071 401.72 669.96C401.72 669.96 401.231 679.421 405.078 690.634C408.924 701.846 419.472 732.361 496.095 747.28C508.141 749.626 557.751 759.285 687.058 741.044C761.269 730.576 788.534 723.137 788.534 723.137C788.534 723.137 832.779 709.561 862.588 693.565C892.397 677.569 955.009 620.526 909.48 591.656C886.747 577.241 837.417 560.851 837.417 560.851C837.417 560.851 761.037 551.826 718.762 551.5C676.487 551.175 662.793 552.153 662.793 552.153C662.793 552.153 658.001 552.104 632.418 554.505C606.834 556.906 579.413 562.056 579.413 562.056C579.413 562.056 566.439 565.639 570.091 562.514Z" fill="#5acdb9" fill-rule="nonzero" filter="url(#Filter)" stroke="none" vectornator:blur="0.387597" vectornator:layerName="Curve 1" vectornator:shadowAngle="0.834709" vectornator:shadowColor="#a8faec" vectornator:shadowOffset="0" vectornator:shadowOpacity="0.9" vectornator:shadowRadius="10.3425"/>
<path d="M410.316 643.48C410.316 643.48 403.231 640.456 417.166 604.539C424.565 585.466 432.839 576.104 448.638 572.417C464.436 568.731 496.4 566.692 515.001 568.039C515.001 568.039 532.276 570.631 542.063 582.245C542.063 582.245 546.476 588.353 545.549 595.338C545.549 595.338 554.108 579.895 565.208 573.541C576.309 567.188 587.066 566.052 587.066 566.052C587.066 566.052 602.231 565.094 604.737 565.935C607.243 566.776 610.752 570.481 610.833 574.303C610.913 578.125 610.871 579.461 608.838 587.417C606.805 595.372 596.163 637.904 596.163 637.904C596.163 637.904 595.59 640.219 596.76 641.219C597.929 642.219 603.18 641.634 603.18 641.634C603.18 641.634 621.267 641.17 629.022 644.082C637.254 647.172 644.919 656.016 644.919 656.016C644.919 656.016 641.521 655.508 642.67 655.47C643.819 655.432 644.949 645.669 645.736 641.558C646.523 637.447 652.797 597.756 661.403 585.157C670.009 572.558 681.637 567.015 681.637 567.015C681.637 567.015 692.764 561.729 704.246 562.392C715.728 563.055 716.669 563.463 716.669 563.463C716.669 563.463 719.841 564.298 719.879 567.73C719.917 571.162 702.862 634.306 702.862 634.306C702.862 634.306 701.706 635.365 706.031 635.246C710.357 635.126 713.361 634.08 714.11 631.621C714.858 629.161 720.571 599.158 724.235 588.892C727.899 578.626 729.968 567.205 745.279 562.861C760.589 558.518 771.599 559.697 771.599 559.697C771.599 559.697 782.311 559.875 784.814 566.367C784.814 566.367 785.381 568.282 785.458 570.131C785.534 571.979 785.722 571.479 787.387 569.437C789.053 567.396 796.004 560.834 807.076 559.7C818.148 558.567 839.026 558.028 839.026 558.028L882.019 557.657L905.973 558.247C905.973 558.247 910.565 558.365 912.884 560.877C915.203 563.388 915.217 565.462 915.32 566.968C915.423 568.474 916.434 585.42 907.453 594.771C907.453 594.771 903.387 599.479 901.815 600.154C900.244 600.829 901.697 601.189 902.067 601.407C902.437 601.624 909.391 606.968 909.082 611.482C904.355 680.465 892.563 686.551 867.02 691.447C867.02 691.447 816.096 698.538 794.355 692.1L788.273 688.879L778.47 687.111C778.47 687.111 771.564 687.385 767.022 680.923L765.932 678.485C765.932 678.485 765.235 677.527 764.634 678.982C764.033 680.437 757.883 690.23 744.959 692.71C732.036 695.189 723.879 694.484 723.879 694.484L686.357 695.519C686.357 695.519 664.289 697.203 659.401 696.276C654.514 695.349 651.076 695.748 647.397 690.441C647.397 690.441 646.523 689.343 646.049 690.608C645.575 691.872 643.903 695.865 638.943 697.773C633.982 699.681 619.632 700.094 619.632 700.094L572.02 701.453L547.403 701.209C547.403 701.209 536.502 702.391 528.172 695.873C528.172 695.873 524.108 692.267 522.806 688.295C522.806 688.295 513.599 700.033 497.349 702.335C481.099 704.637 441.562 704.774 429.817 701.181C418.072 697.588 403.881 690.083 403.492 668.502C403.247 654.94 405.551 644.871 410.316 643.48Z" fill="#262823" fill-opacity="0.9" fill-rule="nonzero" filter="url(#Filter_2)" stroke="none" vectornator:blur="5.81395" vectornator:layerName="Curve 1" vectornator:shadowAngle="0.834709" vectornator:shadowColor="#0a0a0a" vectornator:shadowOffset="5.03425" vectornator:shadowOpacity="0.6" vectornator:shadowRadius="7.43151"/>
<path d="M688.906 692.665C688.906 692.665 677.417 697.603 676.617 704.318C675.818 711.033 676.528 713.801 676.528 713.801C676.528 713.801 677.163 715.671 680.48 716.006C683.797 716.34 690.141 715.651 690.141 715.651C690.141 715.651 690.912 716.169 689.603 717.14C688.294 718.11 682.205 724.405 682.701 726.705C683.197 729.005 683.894 730.399 684.866 731.097C685.838 731.794 686.939 732.822 691.889 732.891C691.889 732.891 694.117 734.413 689.679 734.387C685.242 734.362 677.731 734.938 677.731 734.938C677.731 734.938 673.427 734.786 673.141 738.873C672.856 742.959 672.724 747.397 673.157 748.735C673.591 750.072 676.037 758.374 682.42 760.176C688.804 761.978 706.098 763.357 710.862 760.11C715.627 756.863 716.124 755.131 717.855 753.637C719.587 752.142 721.298 749.844 723.491 751.185C725.684 752.527 732.326 757.37 738.119 753.968C743.913 750.567 744.145 750.221 744.145 750.221C744.145 750.221 749.645 755.596 760.262 754.593C770.88 753.59 774.769 754.85 780.398 749.293C786.028 743.735 790.194 734.618 794.459 720.724C798.725 706.83 801.408 702.164 796.39 696.21C791.372 690.255 792.355 691.888 792.355 691.888C792.355 691.888 795.131 692.11 798.16 692.651C801.188 693.193 798.632 689.625 798.632 689.625L781.553 684.246L775.191 685.617C775.191 685.617 776.087 687.689 776.657 688.567C776.657 688.567 769.745 687.701 764.8 689.088C759.855 690.475 749.835 692.205 745.31 698.967C740.785 705.729 740.26 706.807 739.578 710.222C738.895 713.638 737.564 723.842 737.564 723.842L737.474 724.785C737.474 724.785 732.192 724.62 729.563 725.185C729.563 725.185 729.394 719.987 728.679 718.556C727.964 717.124 727.254 715.89 723.305 714.148C723.305 714.148 729.43 706.703 729.362 703.028C729.295 699.353 729.372 697.048 724.033 694.025C718.694 691.001 718.695 691.084 718.695 691.084L688.906 692.665Z" fill="#242424" fill-opacity="0.75" fill-rule="nonzero" filter="url(#Filter_3)" stroke="none" vectornator:blur="5.23401" vectornator:layerName="Curve 2" vectornator:shadowAngle="0.834709" vectornator:shadowColor="#0a0a0a" vectornator:shadowOffset="1.95205" vectornator:shadowOpacity="0.6" vectornator:shadowRadius="14.7945"/>
<g filter="url(#Filter_4)" vectornator:blur="0.125197" vectornator:layerName="s" vectornator:shadowAngle="0.283676" vectornator:shadowColor="#e0ff7b" vectornator:shadowOffset="0" vectornator:shadowOpacity="0.8" vectornator:shadowRadius="8.1636">
<use fill="#b4eb00" fill-rule="nonzero" stroke="none" xlink:href="#Fill"/>
<mask height="120.487" id="StrokeMask" maskUnits="userSpaceOnUse" width="126.768" x="411.119" y="576.139">
<rect fill="#000000" height="120.487" stroke="none" width="126.768" x="411.119" y="576.139"/>
<use fill="#ffffff" fill-rule="evenodd" stroke="none" xlink:href="#Fill"/>
</mask>
<use fill="none" mask="url(#StrokeMask)" stroke="#e0ff7b" stroke-linecap="square" stroke-linejoin="round" stroke-opacity="0.2" stroke-width="7.51908" xlink:href="#Fill"/>
</g>
<g filter="url(#Filter_5)" vectornator:layerName="l" vectornator:shadowAngle="0.283676" vectornator:shadowColor="#e0ff7b" vectornator:shadowOffset="0" vectornator:shadowOpacity="0.8" vectornator:shadowRadius="8.1636">
<use fill="#b4eb00" fill-rule="nonzero" stroke="none" xlink:href="#Fill_2"/>
<mask height="118.642" id="StrokeMask_2" maskUnits="userSpaceOnUse" width="108.337" x="532.995" y="573.808">
<rect fill="#000000" height="118.642" stroke="none" width="108.337" x="532.995" y="573.808"/>
<use fill="#ffffff" fill-rule="evenodd" stroke="none" xlink:href="#Fill_2"/>
</mask>
<use fill="none" mask="url(#StrokeMask_2)" stroke="#e0ff7b" stroke-linecap="square" stroke-linejoin="round" stroke-opacity="0.2" stroke-width="7.51908" xlink:href="#Fill_2"/>
</g>
<g filter="url(#Filter_6)" vectornator:layerName="u" vectornator:shadowAngle="0.283676" vectornator:shadowColor="#e0ff7b" vectornator:shadowOffset="0" vectornator:shadowOpacity="0.8" vectornator:shadowRadius="8.1636">
<use fill="#b4eb00" fill-rule="nonzero" stroke="none" xlink:href="#Fill_3"/>
<mask height="120.028" id="StrokeMask_3" maskUnits="userSpaceOnUse" width="127.166" x="650.024" y="567.678">
<rect fill="#000000" height="120.028" stroke="none" width="127.166" x="650.024" y="567.678"/>
<use fill="#ffffff" fill-rule="evenodd" stroke="none" xlink:href="#Fill_3"/>
</mask>
<use fill="none" mask="url(#StrokeMask_3)" stroke="#e0ff7b" stroke-linecap="square" stroke-linejoin="round" stroke-opacity="0.2" stroke-width="7.51908" xlink:href="#Fill_3"/>
</g>
<g filter="url(#Filter_7)" vectornator:layerName="g" vectornator:shadowAngle="0.283676" vectornator:shadowColor="#e0ff7b" vectornator:shadowOffset="0" vectornator:shadowOpacity="0.8" vectornator:shadowRadius="8.1636">
<use fill="#b4eb00" fill-rule="nonzero" stroke="none" xlink:href="#Fill_4"/>
<mask height="120.706" id="StrokeMask_4" maskUnits="userSpaceOnUse" width="139.22" x="769.578" y="565.946">
<rect fill="#000000" height="120.706" stroke="none" width="139.22" x="769.578" y="565.946"/>
<use fill="#ffffff" fill-rule="evenodd" stroke="none" xlink:href="#Fill_4"/>
</mask>
<use fill="none" mask="url(#StrokeMask_4)" stroke="#e0ff7b" stroke-linecap="square" stroke-linejoin="round" stroke-opacity="0.2" stroke-width="7.51908" xlink:href="#Fill_4"/>
</g>
<g filter="url(#Filter_8)" vectornator:layerName="Curve 1" vectornator:shadowAngle="0.283676" vectornator:shadowColor="#e0ff7b" vectornator:shadowOffset="0" vectornator:shadowOpacity="0.8" vectornator:shadowRadius="7.57209">
<use fill="#b4eb00" fill-rule="nonzero" stroke="none" xlink:href="#Fill_5"/>
<mask height="57.7552" id="StrokeMask_5" maskUnits="userSpaceOnUse" width="44.4419" x="678.32" y="697.087">
<rect fill="#000000" height="57.7552" stroke="none" width="44.4419" x="678.32" y="697.087"/>
<use fill="#ffffff" fill-rule="evenodd" stroke="none" xlink:href="#Fill_5"/>
</mask>
<use fill="none" mask="url(#StrokeMask_5)" stroke="#e0ff7b" stroke-linecap="square" stroke-linejoin="round" stroke-opacity="0.2" stroke-width="4.1738" xlink:href="#Fill_5"/>
</g>
<g filter="url(#Filter_9)" vectornator:layerName="Curve 2" vectornator:shadowAngle="0.283676" vectornator:shadowColor="#e0ff7b" vectornator:shadowOffset="0" vectornator:shadowOpacity="0.8" vectornator:shadowRadius="7.57209">
<use fill="#b4eb00" fill-rule="nonzero" stroke="none" xlink:href="#Fill_6"/>
<mask height="16.1771" id="StrokeMask_6" maskUnits="userSpaceOnUse" width="16.2483" x="723.839" y="731.426">
<rect fill="#000000" height="16.1771" stroke="none" width="16.2483" x="723.839" y="731.426"/>
<use fill="#ffffff" fill-rule="evenodd" stroke="none" xlink:href="#Fill_6"/>
</mask>
<use fill="none" mask="url(#StrokeMask_6)" stroke="#e0ff7b" stroke-linecap="square" stroke-linejoin="round" stroke-opacity="0.2" stroke-width="3.28397" xlink:href="#Fill_6"/>
</g>
<g filter="url(#Filter_10)" vectornator:layerName="Curve 3" vectornator:shadowAngle="0.283676" vectornator:shadowColor="#e0ff7b" vectornator:shadowOffset="0" vectornator:shadowOpacity="0.8" vectornator:shadowRadius="7.57209">
<use fill="#b4eb00" fill-rule="nonzero" stroke="none" xlink:href="#Fill_7"/>
<mask height="52.6526" id="StrokeMask_7" maskUnits="userSpaceOnUse" width="47.8501" x="744.241" y="694.76">
<rect fill="#000000" height="52.6526" stroke="none" width="47.8501" x="744.241" y="694.76"/>
<use fill="#ffffff" fill-rule="evenodd" stroke="none" xlink:href="#Fill_7"/>
</mask>
<use fill="none" mask="url(#StrokeMask_7)" stroke="#e0ff7b" stroke-linecap="square" stroke-linejoin="round" stroke-opacity="0.2" stroke-width="4.56126" xlink:href="#Fill_7"/>
</g>
<path d="M761.348 732.998C761.348 732.998 761.315 718.646 762.788 715.384C764.261 712.122 765.923 712.548 767.114 712.401C768.306 712.253 771.69 712.675 770.82 715.324C769.949 717.973 766.172 730.188 766.172 730.188C766.172 730.188 765.094 733.79 764.516 734.134C763.939 734.478 761.631 735.27 761.348 732.998Z" fill="#131312" fill-opacity="0.9" fill-rule="nonzero" filter="url(#Filter_11)" stroke="none" vectornator:blendMode="difference" vectornator:layerName="Curve 1" vectornator:shadowAngle="0.283676" vectornator:shadowColor="#e0ff7b" vectornator:shadowOffset="0.171233" vectornator:shadowOpacity="0.8" vectornator:shadowRadius="3.25172"/>
</g>
</svg>
