<?xml version="1.0" encoding="UTF-8" standalone="no"?>
<!DOCTYPE svg PUBLIC "-//W3C//DTD SVG 1.1//EN" "http://www.w3.org/Graphics/SVG/1.1/DTD/svg11.dtd">
<!-- Created with Vectornator (http://vectornator.io/) -->
<svg height="100%" stroke-miterlimit="10" style="fill-rule:nonzero;clip-rule:evenodd;stroke-linecap:round;stroke-linejoin:round;" version="1.1" viewBox="1985.36 315.035 303.23 296.01" width="100%" xml:space="preserve" xmlns="http://www.w3.org/2000/svg" xmlns:vectornator="http://vectornator.io" xmlns:xlink="http://www.w3.org/1999/xlink">
<defs>
<linearGradient gradientTransform="matrix(1 0 0 1 0 0)" gradientUnits="userSpaceOnUse" id="LinearGradient" x1="1992.05" x2="2281.62" y1="462.278" y2="462.278">
<stop offset="0" stop-color="#d04aff"/>
<stop offset="1" stop-color="#993cba"/>
</linearGradient>
<radialGradient cx="2131.08" cy="461.797" gradientTransform="matrix(1 0 0 1 0 0)" gradientUnits="userSpaceOnUse" id="RadialGradient" r="115.795">
<stop offset="0" stop-color="#d4a6ef"/>
<stop offset="0.847917" stop-color="#d5a1f4" stop-opacity="0.934685"/>
<stop offset="1" stop-color="#d8bbea" stop-opacity="0.936385"/>
<stop offset="1" stop-color="#ffffff" stop-opacity="0.726717"/>
</radialGradient>
<linearGradient gradientTransform="matrix(1 0 0 1 0 0)" gradientUnits="userSpaceOnUse" id="LinearGradient_2" x1="2160.32" x2="2268.37" y1="476.762" y2="476.762">
<stop offset="0" stop-color="#f6d700"/>
<stop offset="1" stop-color="#caad16"/>
</linearGradient>
</defs>
<g id="mini-cd" vectornator:layerName="mini cd">
<path d="M1990.75 538.938C1990.75 538.938 2024.02 344.925 2027.33 328.792C2030.64 312.659 2037.47 317.896 2043.78 317.681C2049.28 317.494 2221.72 348.71 2221.72 348.71C2221.72 348.71 2266.87 352.89 2275.91 358.128C2284.95 363.366 2286.12 371.277 2285.75 379.63C2285.37 387.984 2269.29 450.623 2269.29 450.623C2269.29 450.623 2274.58 450.604 2272.94 457.744C2264.6 494.18 2267.25 519.94 2257.24 518.947L2245.75 579.354L2245.79 581.533C2245.79 581.533 2247.12 581.631 2246.7 585.077C2246.27 588.522 2243.17 604.205 2243.17 604.205C2243.17 604.205 2243.85 607.553 2236.76 608.6C2229.67 609.647 2208.3 608.517 2208.3 608.517C2208.3 608.517 2193 609.507 2189.62 600.707L2078.06 582.683C2078.06 582.683 2051.43 577.149 2038.18 572.995C2024.92 568.841 2010.82 566.647 2005.22 565.814C1999.62 564.982 1986.76 562.76 1987.38 556.698C1987.99 550.637 1990.75 538.938 1990.75 538.938Z" fill="#131313" fill-rule="nonzero" opacity="1" stroke="#131313" stroke-linecap="square" stroke-linejoin="round" stroke-width="4" vectornator:layerName="Curve 8"/>
<path d="M1992.05 555.544C1992.05 555.544 2009.07 452.331 2012.16 436.85C2015.26 421.368 2025.09 366.452 2025.09 366.452L2031.19 328.57C2031.19 328.57 2031.08 322.884 2034.24 321.878C2037.4 320.871 2037.03 320.687 2038.88 320.935C2040.73 321.182 2067.75 326.209 2068.86 326.2C2069.97 326.191 2144.68 339.081 2144.68 339.081L2220.29 352.906L2268.94 360.864C2268.94 360.864 2277.12 361.95 2280.07 368.178C2283.02 374.405 2281.38 382.752 2278.3 396.924C2275.22 411.096 2266.1 449.905 2266.1 449.905L2253.33 518.947L2242.51 577.823L2239.74 581.682L2238.57 583.398C2238.57 583.398 2242.52 583.504 2241.35 587.901C2240.19 592.297 2239.71 598.569 2237.86 601.369C2236.01 604.169 2234.39 603.671 2230.8 603.706C2227.21 603.74 2215.9 602.505 2214.33 602.624C2212.76 602.744 2209.46 602.309 2206.53 602.257C2203.6 602.204 2198.7 602.105 2197.19 600.181C2195.68 598.258 2195.49 595.17 2196.9 589.015C2198.32 582.861 2192.14 592.367 2192.14 592.367L2190.44 595.559C2190.44 595.559 2128.47 587.012 2110.19 583.167C2091.91 579.321 2062.9 572.538 2056.93 571.55C2050.97 570.563 2027.4 565.048 2019.94 563.191C2012.49 561.335 2002.12 558.201 1999.18 558.088C1996.25 557.976 1993.38 558.819 1992.05 555.544Z" fill="url(#LinearGradient)" fill-rule="nonzero" opacity="1" stroke="none" vectornator:layerName="Curve 1"/>
<path d="M2015.53 452.744C2015.53 452.744 2022.14 330.875 2154.2 349.384C2154.2 349.384 2260.67 357.7 2245.37 482.642C2245.37 482.642 2233.93 592.454 2114.35 574.042C2114.35 574.042 2009.5 562.818 2015.53 452.744Z" fill="url(#RadialGradient)" fill-rule="nonzero" opacity="1" stroke="none" vectornator:layerName="Curve 3"/>
<path d="M2121.26 423.188L2101.3 350.018C2101.3 350.018 2104.95 349.096 2110.64 348.463L2125.76 421.167L2121.26 423.188Z" fill="#ebb7f9" fill-opacity="0.264394" fill-rule="nonzero" opacity="1" stroke="none" vectornator:layerName="Curve 6"/>
<path d="M2129.42 421.971L2120.83 347.651C2120.83 347.651 2125.76 347.282 2131.08 347.471L2133.95 420.313L2134.02 423.188L2129.42 421.971Z" fill="#9d62ad" fill-opacity="0.212635" fill-rule="nonzero" opacity="1" stroke="none" vectornator:layerName="Curve 7"/>
<path d="M2131.63 496.162L2149.08 575.836C2149.08 575.836 2151.25 576.172 2156.09 574.804L2136.47 497.225L2131.63 496.162Z" fill="#ca90ed" fill-rule="nonzero" opacity="1" stroke="none" vectornator:layerName="Curve 10"/>
<path d="M2146.5 494.538L2178.91 569.052C2178.91 569.052 2186.31 567.728 2196.24 560.223L2150.98 493.975L2146.5 494.538Z" fill="#ca90ed" fill-rule="nonzero" opacity="1" stroke="none" vectornator:layerName="Curve 9"/>
<path d="M2094.82 458.853L2015.28 467.009C2015.28 467.009 2015.28 464.828 2015.28 457.371L2096.27 455.408L2094.82 458.853Z" fill="#ebb7f9" fill-opacity="0.787602" fill-rule="nonzero" opacity="1" stroke="none" vectornator:layerName="Curve 8"/>
<path d="M2094.39 448.562L2016.16 446.791C2016.16 446.791 2018.56 431.663 2020.78 426.057L2095.99 444.253L2094.39 448.562Z" fill="#d8a7f8" fill-opacity="0.679668" fill-rule="nonzero" opacity="1" stroke="none" vectornator:layerName="Curve 11"/>
<path d="M2144.8 422.066L2173.97 353.683C2173.97 353.683 2179.89 355.43 2181.41 356.17L2148.32 423.096L2144.8 422.066Z" fill="#cd9aeb" fill-rule="nonzero" opacity="1" stroke="none" vectornator:layerName="Curve 12"/>
<path d="M2151.26 425.946L2188.82 359.464C2188.82 359.464 2191.55 360.653 2195.01 362.587L2152.12 427.179L2151.26 425.946Z" fill="#c88ed7" fill-opacity="0.666978" fill-rule="nonzero" opacity="1" stroke="none" vectornator:layerName="Curve 13"/>
<path d="M2146.11 494.18L2180.7 569.252C2180.7 569.252 2173.85 572.452 2168.06 573.363L2142.45 496.891L2146.11 494.18Z" fill="#cd9aeb" fill-rule="nonzero" opacity="1" stroke="none" vectornator:layerName="Curve 14"/>
<path d="M2155.7 485.826L2217.63 544.154C2217.63 544.154 2212.26 550.206 2207.26 554.054L2190.63 534.287L2153.04 489.845L2155.7 485.826Z" fill="#cd9aeb" fill-rule="nonzero" opacity="1" stroke="none" vectornator:layerName="Curve 28"/>
<path d="M2129.35 495.042L2123.62 575.239C2123.62 575.239 2117.13 574.656 2112.32 573.757L2124.61 494.013L2129.35 495.042Z" fill="#dcb5f6" fill-opacity="0.777504" fill-rule="nonzero" opacity="1" stroke="none" vectornator:layerName="Curve 15"/>
<path d="M2093.64 453.011C2093.64 453.011 2096.51 415.742 2140.22 421.479C2140.22 421.479 2175.51 426.917 2169.39 464.628C2169.39 464.628 2160.75 503.919 2125.35 496.755C2125.35 496.755 2088.57 490.532 2093.64 453.011Z" fill="#cd9aeb" fill-rule="nonzero" opacity="1" stroke="none" vectornator:layerName="Curve 27"/>
<path d="M2096.71 453.636C2096.71 453.636 2099.35 419.94 2139.52 425.127C2139.52 425.127 2158.94 428.07 2165.13 445.186C2166.94 450.196 2167.61 456.42 2166.34 464.14C2166.34 464.14 2158.4 499.663 2125.86 493.186C2125.86 493.186 2092.05 487.56 2096.71 453.636Z" fill="#c083e8" fill-rule="nonzero" opacity="1" stroke="none" vectornator:layerName="Curve 4"/>
<path d="M2113.35 455.718C2113.35 455.718 2118.35 438.039 2135.4 443.067C2135.4 443.067 2151.46 445.061 2147.92 463.315C2147.92 463.315 2144.1 479.361 2128.16 477.384C2128.16 477.384 2111.18 475.977 2113.35 455.718Z" fill="#b86acd" fill-rule="nonzero" opacity="1" stroke="none" vectornator:layerName="Curve 29"/>
<path d="M2115.26 456.247C2115.26 456.247 2119.69 440.826 2134.8 445.212C2134.8 445.212 2149.04 446.951 2145.9 462.873C2145.9 462.873 2142.51 476.87 2128.38 475.146C2128.38 475.146 2113.34 473.919 2115.26 456.247Z" fill="#d157fd" fill-rule="nonzero" opacity="1" stroke="none" vectornator:layerName="Curve 5"/>
<path d="M2172.57 434.475C2190.09 434.475 2265.72 449.094 2268.29 450.789C2271.38 452.819 2270.1 462.407 2270.1 462.407L2262.52 503.918L2259.47 515.084C2259.47 515.084 2257.14 519.98 2252.6 518.749C2248.06 517.517 2215.74 510.819 2201.86 508.141C2187.62 505.393 2160.65 500.078 2160.65 500.078C2160.65 500.078 2156.13 499.142 2157.22 487.973C2158.33 476.715 2163.69 447.858 2164.33 445.241C2164.97 442.623 2168.3 434.475 2172.57 434.475Z" fill="#131313" fill-rule="nonzero" opacity="1" stroke="none" vectornator:layerName="Curve 26"/>
<path d="M2177.76 438.358C2209.81 440.218 2237.5 447.247 2250.77 449.748C2270.24 453.418 2268.51 453.494 2268.18 458.548C2267.85 463.603 2264.48 514.133 2257.59 515.177C2250.62 516.231 2200.3 504.436 2200.3 504.436C2200.3 504.436 2180.74 501.898 2163.1 497.628C2157.05 496.162 2162.47 478.449 2164.24 467.991C2165.58 460.113 2166.99 445.415 2170.1 440.218C2171.38 438.075 2175.03 438.2 2177.76 438.358Z" fill="url(#LinearGradient_2)" fill-rule="nonzero" opacity="1" stroke="none" vectornator:layerName="Curve 2"/>
<path d="M2270.53 360.136L2268.61 374.989C2268.61 374.989 2266.84 379.238 2271.71 379.683C2276.58 380.128 2281.85 380.716 2281.85 380.716L2282.74 377.465L2272.53 375.862C2272.53 375.862 2272.86 363.847 2273.84 362.123C2274.82 360.398 2270.53 360.136 2270.53 360.136Z" fill="#131313" fill-rule="nonzero" opacity="1" stroke="none" vectornator:layerName="Curve 16"/>
<path d="M2245 359.883C2245 359.883 2258.6 361.022 2257.13 371.919C2257.13 371.919 2253.91 381.659 2242.85 381.099C2242.85 381.099 2232.22 379.886 2231.95 370.995C2231.95 370.995 2229.66 359.091 2245 359.883Z" fill="#131313" fill-rule="nonzero" opacity="1" stroke="none" vectornator:layerName="Curve 17"/>
<path d="M2258.62 380.219C2258.62 380.219 2267.2 378.722 2267.86 386.507C2267.86 386.507 2269.86 393.315 2260.2 394.303C2260.2 394.303 2254.36 394.858 2252.05 391.448C2252.05 391.448 2247.57 382.9 2258.62 380.219Z" fill="#131313" fill-rule="nonzero" opacity="1" stroke="none" vectornator:layerName="Curve 18"/>
<path d="M2242.2 578.165C2242.2 578.165 2206.47 567.249 2203.04 568.04C2199.61 568.832 2195.69 571.341 2194.21 575.341C2192.74 579.341 2187.43 592.225 2190.01 596.898C2192.6 601.571 2197.41 603.971 2197.41 603.971L2195.89 597.591C2195.89 597.591 2196.83 583.585 2200.03 577.176C2200.03 577.176 2200.26 574.592 2203.12 574.829C2205.97 575.066 2217.76 578.443 2218.16 578.429C2218.56 578.415 2237.87 584.482 2240.83 583.386C2243.8 582.29 2244.12 579.526 2244.12 579.526L2242.2 578.165Z" fill="#131313" fill-rule="nonzero" opacity="1" stroke="none" vectornator:layerName="Curve 19"/>
<path d="M2228.56 576.32C2228.56 576.32 2233.68 541.306 2238.51 516.116L2239.8 513.289L2242.51 515.439C2242.51 515.439 2236.87 545.187 2235.37 553.531C2233.87 561.875 2232.65 576.763 2231.74 577.621C2230.84 578.479 2228.56 576.32 2228.56 576.32Z" fill="#000002" fill-rule="nonzero" opacity="1" stroke="none" vectornator:layerName="Curve 20"/>
<path d="M2251.03 448.454C2251.03 448.454 2251.87 442.103 2254.42 431.452C2256.97 420.8 2256.86 417.34 2257.3 413.522C2257.74 409.704 2259.85 399.471 2259.85 399.471L2260.31 393.425L2264.14 392.206C2264.14 392.206 2263.4 404.902 2261.85 412.979C2260.31 421.055 2254.82 449.748 2254.82 449.748L2251.03 448.454Z" fill="#131313" fill-rule="nonzero" opacity="1" stroke="none" vectornator:layerName="Curve 21"/>
<path d="M2254.58 383.335C2254.58 383.335 2247.98 380.096 2244.56 380.103C2241.14 380.111 2247.23 377.698 2247.23 377.698L2251.21 376.54L2253.33 377.465C2253.33 377.465 2257.54 378.941 2257.99 381.225C2258.44 383.51 2254.58 383.335 2254.58 383.335Z" fill="#131313" fill-rule="nonzero" opacity="1" stroke="none" vectornator:layerName="Curve 22"/>
<path d="M2237.7 379.156L2047.11 345.045C2047.11 345.045 2044.94 344.035 2043.22 347.235C2041.49 350.435 2040.01 358.925 2040.01 358.925C2040.01 358.925 2021.2 481.802 2020.34 489.613C2019.48 497.424 2014.48 526.828 2014.48 526.828L2012.92 536.697L2012.41 539.499L2009.54 537.805L2036.04 361.584C2036.04 361.584 2037.77 348.175 2040.39 344.812C2043.02 341.449 2044.02 340.352 2050.14 341.224C2056.27 342.096 2113.99 353.037 2113.99 353.037L2196.13 367.75L2233.81 374.109L2237.7 379.156Z" fill="#131313" fill-rule="nonzero" opacity="1" stroke="none" vectornator:layerName="Curve 23"/>
<path d="M2011.88 542.161L2011.59 537.333C2011.59 537.333 2049.87 545.514 2064.35 548.447C2078.83 551.379 2156.39 566.83 2166.66 569.015C2176.93 571.199 2195.84 574.829 2196.7 575.226C2197.56 575.622 2195.83 579.09 2195.83 579.09C2195.83 579.09 2106.56 561.464 2081.48 555.933C2056.39 550.402 2016.17 540.472 2011.88 542.161Z" fill="#131313" fill-rule="nonzero" opacity="1" stroke="none" vectornator:layerName="Curve 24"/>
<path d="M2010.2 562.382C2010.2 562.382 2015.75 549.113 2015.28 540.581C2015.28 540.581 2015.43 536.665 2012.14 536.355C2008.85 536.045 1997.24 534.595 1995.71 535.287C1994.18 535.98 1992.57 541.585 1992.57 541.585C1992.57 541.585 1996.23 541.464 2000.37 541.624C2004.52 541.785 2008.07 540.549 2008.99 542.11C2009.91 543.671 2009.19 548.563 2007.64 554.526C2006.08 560.489 2005.7 561.761 2005.7 561.761L2010.2 562.382Z" fill="#131313" fill-rule="nonzero" opacity="1" stroke="none" vectornator:layerName="Curve 25"/>
<path d="M2235.79 370.344C2235.79 370.344 2236.21 364.646 2241.34 363.689C2246.48 362.733 2253.52 364.819 2253.33 368.285C2253.14 371.75 2251.78 377.197 2245.41 377.45C2239.05 377.704 2236.1 374.566 2235.79 370.344Z" fill="#d157fd" fill-rule="nonzero" opacity="1" stroke="none" vectornator:layerName="Curve 31"/>
<path d="M2281.2 437.309C2281.2 437.309 2275.63 461.598 2262.77 456.132C2262.77 456.132 2275.63 456.132 2273.56 480.969C2273.56 480.969 2275.63 461.598 2288.59 462.46C2288.59 462.46 2278.57 465.214 2281.2 437.309Z" fill="#ffffff" fill-rule="nonzero" opacity="1" stroke="none" vectornator:layerName="Curve 30"/>
<path d="M2254.62 388.054C2254.62 388.054 2253.85 384.048 2259.44 383.523C2259.44 383.523 2264.98 382.07 2264.58 387.252C2264.58 387.252 2263.95 391.532 2259.92 391.304C2259.92 391.304 2258.1 391.544 2256.59 390.865C2255.6 390.424 2254.75 389.593 2254.62 388.054Z" fill="#d157fd" fill-rule="nonzero" opacity="1" stroke="none" vectornator:layerName="Curve 32"/>
</g>
</svg>
