<?xml version="1.0" encoding="UTF-8" standalone="no"?>
<!DOCTYPE svg PUBLIC "-//W3C//DTD SVG 1.1//EN" "http://www.w3.org/Graphics/SVG/1.1/DTD/svg11.dtd">
<!-- Created with Vectornator (http://vectornator.io/) -->
<svg height="100%" stroke-miterlimit="10" style="fill-rule:nonzero;clip-rule:evenodd;stroke-linecap:round;stroke-linejoin:round;" version="1.1" viewBox="1347.78 88.9939 1131.68 1262.01" width="100%" xml:space="preserve" xmlns="http://www.w3.org/2000/svg" xmlns:vectornator="http://vectornator.io" xmlns:xlink="http://www.w3.org/1999/xlink">
<defs/>
<g id="paper" vectornator:layerName="paper">
<path d="M1348.69 1299.81C1351.36 1287.18 1345.66 1304.5 1348.69 1256.99C1348.83 1254.79 1357.17 1181.17 1357.32 1179C1359.95 1138.95 1363.45 1106.71 1363.89 1099.91C1364.88 1084.81 1359.82 1029.78 1357.32 1012.32C1354.82 994.864 1364.4 909.446 1367.51 873.251C1370.62 837.055 1370.54 744.448 1365.14 699.882C1362.57 678.669 1363.06 651.762 1362.17 631.181C1361.19 608.524 1359.03 592.146 1360.59 567.481C1363.56 520.413 1368.19 484.298 1363.62 445.358C1359.06 406.419 1370.53 348.382 1368.75 315.997C1368.12 304.609 1368.6 265.37 1368.72 250.294C1368.93 222.497 1366.83 194.988 1364.9 174.284C1363.22 156.25 1361.32 142.882 1359.58 131.626C1359.52 131.262 1362.17 110.45 1362.17 110.45L1374.03 105.303C1374.03 105.303 1375.84 104.89 1390.43 105.303C1398.78 105.54 1445.99 107.475 1506.4 105.303C1551.54 103.68 1615.49 98.57 1637.38 97.7469C1688.56 95.8223 1829.61 85.7172 1899.66 90.0739C1969.72 94.4305 2138.01 105.296 2178.48 106.19C2218.96 107.084 2305.3 105.784 2340.49 104.947C2375.69 104.11 2440.63 109.373 2446.18 111.166C2451.72 112.96 2479.46 141.327 2479.46 141.327L2470.61 245.897C2470.61 245.897 2472 480.543 2476.48 555.321C2478.85 594.698 2474.8 652.309 2473.64 707.646C2472.59 757.391 2471.89 792.768 2471.59 796.566C2471.04 803.586 2464.55 918.965 2465.23 962.652C2465.46 977.602 2461.99 1056.81 2462.04 1059.58C2463.01 1113.45 2460.88 1160.13 2462.04 1175.86C2463.9 1201 2467.22 1292.21 2468.91 1307.7C2469.05 1309.02 2462.04 1328.31 2462.04 1328.69C2462.04 1329.66 2446.26 1343.17 2443.46 1344.35C2437.26 1346.98 2416.31 1350.74 2414.78 1350.83C2399.78 1351.71 2294.44 1348.96 2294.44 1348.96C2294.44 1348.96 2196.87 1352.3 2172.62 1348.76C2148.36 1345.21 2010.77 1339.28 1985.1 1342.5C1959.43 1345.72 1851.83 1345.48 1816.74 1346.38C1781.65 1347.28 1673.88 1341.15 1629.12 1344.84C1584.36 1348.54 1480.01 1333.03 1453.14 1334.67C1446.27 1335.08 1391.02 1334.68 1382.35 1330.19C1380.17 1329.05 1347.99 1303.13 1348.69 1299.81Z" fill="#131313" fill-rule="nonzero" opacity="1" stroke="none" vectornator:layerName="Curve 1"/>
<path d="M2462.04 149.968L2406.27 149.56L2397.05 175.723L2396.97 148.41L2244.02 147.901L2037.81 134.339L1880.88 131.626L1666.34 138.059L1520.44 145.004L1491.19 144.406L1412.91 142.805L1399.74 146.956L1399.04 157.976L1403.53 203.503L1402.4 271.64L1406.46 347.09L1399.53 454.349L1399.42 565.45L1403.04 579.374L1399.45 597.509L1400.18 700.772L1406.76 785.115L1403.37 922.893L1396.82 1041.34L1398.18 1124.02L1384.91 1314.08L1384.53 1316.13L1384.96 1318.77L1384.34 1320.75L1388.96 1320.95L1394.15 1320.11L1408.93 1321.08L1695.96 1326.83L1774.8 1329.78L1960.5 1325.85L2129.96 1326.49L2245.93 1334.67L2358.9 1326.36L2430.64 1327.8L2443.75 1318.45L2445.34 1307.99L2443.86 1187.14L2441.56 1169.05L2443.43 1152.08L2442.24 1054.54L2445.46 937.615L2450.21 857.323L2454.1 797.898L2451.24 780.036L2453.91 763.407L2459.84 637.615L2456.15 548.21L2452.1 423.924L2452.44 369.69L2450.72 347.38L2453.75 341.82L2453.16 254.031L2462.04 149.968Z" fill="#cbbb6d" fill-rule="nonzero" opacity="1" stroke="none" vectornator:layerName="Rectangle 1"/>
<path d="M2438.13 123.645L2382.36 123.238L2373.14 149.4L2373.06 122.088L2220.11 121.579L2013.9 108.016L1856.96 105.303L1642.43 111.737L1496.53 118.681L1467.28 118.083L1389 116.483L1375.83 120.634L1375.13 131.654L1379.62 177.18L1378.49 245.317L1382.55 320.768L1375.62 428.027L1375.51 539.127L1379.13 553.051L1375.54 571.187L1376.27 674.45L1382.85 758.792L1379.46 896.57L1372.91 1015.02L1374.27 1097.7L1361 1287.76L1360.62 1289.81L1361.05 1292.45L1360.43 1294.42L1365.05 1294.63L1370.24 1293.79L1385.02 1294.76L1441.28 1291.43L1452.32 1296.11L1511.26 1294.72L1672.05 1300.5L1750.89 1303.46L1936.59 1299.53L2106.05 1300.16L2222.91 1309.99L2339.53 1302.25L2417.03 1302.9L2422.97 1294.87L2421.43 1281.66L2422.76 1168.36L2422.81 1165.21L2422.49 1162.55L2420.27 1161.97L2415.13 1160.98L2391.56 1155.56L2409.6 1156.53L2419.88 1158.01L2423.14 1156.31L2424.57 1152.73L2424.1 1023.83L2421.55 911.293L2426.3 831.001L2430.19 771.576L2427.33 753.713L2430 737.085L2435.93 611.293L2432.24 521.888L2428.19 397.601L2428.53 343.368L2426.81 321.057L2429.84 315.498L2429.25 227.709L2438.13 123.645Z" fill="#fff8a5" fill-rule="nonzero" opacity="1" stroke="none" vectornator:layerName="Rectangle 1"/>
</g>
</svg>
