<?xml version="1.0" encoding="UTF-8" standalone="no"?>
<!DOCTYPE svg PUBLIC "-//W3C//DTD SVG 1.1//EN" "http://www.w3.org/Graphics/SVG/1.1/DTD/svg11.dtd">
<!-- Created with Vectornator (http://vectornator.io/) -->
<svg height="100%" stroke-miterlimit="10" style="fill-rule:nonzero;clip-rule:evenodd;stroke-linecap:round;stroke-linejoin:round;" version="1.1" viewBox="1301.86 665.702 358.352 230.039" width="100%" xml:space="preserve" xmlns="http://www.w3.org/2000/svg" xmlns:vectornator="http://vectornator.io" xmlns:xlink="http://www.w3.org/1999/xlink">
<defs/>
<g id="salt" vectornator:layerName="salt">
<path d="M1322.86 687.883C1322.86 687.883 1323.39 660.365 1359.85 666.63C1396.31 672.895 1433.88 686.269 1433.88 686.269L1484.24 706.081L1492.95 709.416C1492.95 709.416 1496.01 711.017 1499.98 708.644C1503.95 706.271 1515.61 708.511 1515.61 708.511C1515.61 708.511 1517.56 709.832 1518.49 712.432C1519.41 715.032 1519.36 714.948 1519.36 714.948L1520.29 717.234C1520.29 717.234 1531.02 716.51 1534.63 716.888C1538.24 717.266 1539.45 719.665 1540.08 721.146C1540.71 722.627 1541.65 729.762 1541.65 729.762C1541.65 729.762 1548.65 730.702 1554.89 733.908C1561.13 737.115 1579.34 747.77 1581.56 765.202C1583.77 782.635 1580.66 796.478 1580.66 796.478C1580.66 796.478 1576.93 811.654 1564.22 819.821C1551.52 827.988 1544.98 829.459 1538.67 829.399C1532.36 829.34 1528.82 827.728 1528.82 827.728L1525.94 827.631C1525.94 827.631 1524.95 833.898 1521.44 834.469C1517.93 835.039 1515.15 835.456 1510.59 834.753C1510.59 834.753 1508.43 833.94 1507.02 833.119C1505.6 832.298 1502.17 832.651 1502.17 832.651L1500.67 834.424C1500.67 834.424 1499.52 836.227 1492.79 834.625C1486.06 833.022 1478.33 829.589 1475.85 822.702C1475.85 822.702 1473.73 820.706 1465.58 820.044C1457.43 819.382 1446.86 817.301 1438.6 814.903C1430.34 812.506 1419.82 807.32 1414.91 807.009C1410.01 806.699 1386.49 803.611 1386.49 803.611C1386.49 803.611 1360.92 800.608 1347.86 799.809C1334.8 799.01 1322.66 796.869 1314.65 787.401C1306.64 777.933 1303.71 774.7 1302.58 764.793C1301.45 754.885 1301.2 750.053 1305.2 739.977C1309.19 729.9 1315.77 717.672 1315.77 717.672C1315.77 717.672 1320.53 703.395 1322.86 687.883Z" fill="#131313" fill-rule="nonzero" opacity="1" stroke="none" vectornator:layerName="salt"/>
<path d="M1336.21 681.788C1336.21 681.788 1341.01 672.058 1354.15 673.938C1367.28 675.818 1360.29 671.625 1393 682.558C1425.72 693.49 1462.33 707.583 1462.33 707.583C1462.33 707.583 1484.01 716.24 1487.53 716.907C1491.06 717.575 1493.96 717.888 1493.77 720.012C1493.57 722.135 1482.83 756.831 1481.07 772.192C1479.32 787.552 1478.11 796.335 1478.11 796.335L1476.07 806.225L1475.32 808.59C1475.32 808.59 1474.41 802.052 1472.7 798.91C1470.98 795.768 1468.48 794.291 1468.53 792.211C1468.58 790.131 1468.81 786.981 1466.93 784.654C1465.04 782.326 1462.48 781.378 1462.48 781.378L1460.94 780.221L1460.55 778.349C1460.55 778.349 1459.56 776.256 1458.79 776.036C1458.02 775.815 1457.08 775.595 1457.08 775.595L1454.72 775.485C1452.62 775.099 1452.07 773.888 1452.07 773.888C1452.07 773.888 1451.69 773.282 1451.36 772.511C1451.03 771.74 1450.04 771.079 1450.04 771.079C1448.05 770.804 1447.61 770.363 1447.61 770.363L1447.06 768.16L1447.28 764.36C1447.28 764.36 1447.12 762.984 1446.73 762.157C1446.35 761.331 1445.8 761.166 1445.19 760.23C1444.58 759.294 1444.91 759.514 1444.2 758.963C1443.48 758.412 1442.11 758.082 1442.11 758.082C1442.11 758.082 1440.95 757.586 1440.56 756.43C1440.18 755.273 1439.46 755.053 1438.86 754.227C1438.25 753.401 1437.81 753.456 1437.09 752.299C1436.38 751.143 1435.83 751.583 1435 751.583C1434.17 751.583 1433.84 751.914 1433.46 750.978C1433.07 750.041 1432.69 749.766 1432.14 748.61C1431.59 747.453 1430.04 746.847 1430.04 746.847L1427.21 744.876L1424.42 744.088L1421.8 743.494L1421.47 739.058L1421.24 736.78L1420.21 733.86L1418.38 731.099L1416.41 729.095L1414.62 726.666L1412.24 725.799L1409.39 724.86L1407.19 724.005C1407.19 724.005 1405.59 722.028 1404.41 722.16C1403.23 722.292 1401.8 722.442 1401.8 722.442C1401.8 722.442 1401.09 721.15 1400.78 719.96C1400.47 718.771 1400.41 719.058 1400.48 717.532C1400.56 716.006 1401.1 715.608 1400.24 713.941C1399.38 712.273 1400.02 713.414 1399.3 711.866C1398.57 710.317 1396.06 708.711 1396.06 708.711L1393.46 706.879L1391.47 705.237L1389.38 702.382L1384.69 699.453L1381.75 698.351L1377.76 697.054L1373.36 695.29L1369.33 693.903C1369.33 693.903 1367.08 695.403 1366.03 694.458C1364.98 693.512 1363.49 692.54 1363.49 692.54L1361.49 690.609L1357.24 688.457C1357.24 688.457 1354 688.663 1352.96 687.717L1349.39 686.666L1346 685.007L1341.3 683.049L1336.21 681.788Z" fill="#917f51" fill-rule="nonzero" opacity="1" stroke="none" vectornator:layerName="Curve 1"/>
<path d="M1530.01 788.19C1530.01 788.19 1534.63 767.178 1536.18 755.264C1537.73 743.35 1537.54 739.652 1538.28 738.501C1539.01 737.35 1541.25 737.352 1546.63 739.522C1552 741.691 1572.71 754.085 1572.92 769.372C1573.12 784.659 1573.19 789.905 1571.06 794.248C1568.93 798.59 1556 816.017 1543.3 818.055C1530.6 820.093 1528.03 821.464 1526.43 816.926C1524.83 812.387 1527.02 800.546 1530.01 788.19Z" fill="#9b9a98" fill-rule="nonzero" opacity="1" stroke="none" vectornator:layerName="Curve 2"/>
<path d="M1519.05 825.812C1519.05 825.812 1520.32 810.592 1522.84 796.546C1525.36 782.501 1528.93 770.16 1529.47 762.237C1530.01 754.315 1532.78 745.435 1533.26 740.527C1533.74 735.62 1533.95 728.239 1533.44 726.04C1532.94 723.842 1524.14 724.332 1521.52 725.195C1518.91 726.057 1519.31 727.334 1518.45 733.112C1517.59 738.891 1514.9 748.006 1513.9 756.629C1512.9 765.252 1510.94 772.696 1509.64 780.256C1508.35 787.816 1508.44 791.102 1507.17 795.302C1505.89 799.502 1505.84 803.504 1502.93 802.514C1500.02 801.524 1499.23 799.304 1499.23 799.304C1499.23 799.304 1498.66 797.675 1500.73 788.028C1502.81 778.381 1506.51 761.231 1507.24 757.795C1507.97 754.358 1509.61 743.86 1510.6 741.315C1511.58 738.77 1512.12 733.384 1512.47 731.034C1512.82 728.684 1514.27 727.89 1514.11 725.886C1513.96 723.883 1513.75 722.436 1512.47 720.835C1511.18 719.235 1510.06 717.369 1505.67 717.002C1501.27 716.635 1498.96 718.36 1498.96 718.36C1498.96 718.36 1498.38 719.177 1497.59 726.39C1496.8 733.603 1495.03 738.374 1494.03 743.915C1493.03 749.457 1488.71 764.757 1488.05 770.217C1487.39 775.677 1486.23 777.505 1485.37 782.575C1484.51 787.644 1482.35 798.366 1481.41 803.836C1480.48 809.307 1478.45 813.8 1479.71 815.058C1480.97 816.317 1484.04 824.055 1497.9 825.695C1497.9 825.695 1499.02 825.404 1499.01 822.899C1499 820.395 1501.03 819.84 1504.84 820.35C1508.65 820.859 1510.11 822.251 1510.72 824.354C1511.32 826.458 1516.87 830.295 1519.05 825.812Z" fill="#9b9a98" fill-rule="nonzero" opacity="1" stroke="none" vectornator:layerName="Curve 3"/>
<path d="M1363.91 790.38C1363.91 790.38 1382.37 792.112 1399.94 794.518C1417.51 796.925 1429.52 799.373 1434.61 800.983C1439.7 802.593 1445.6 804.821 1450.69 806.208C1455.78 807.595 1456.94 808.339 1460.23 809.031C1463.51 809.723 1465.1 811.383 1466.59 810.977C1468.08 810.571 1469.33 810.407 1468.69 808.777C1468.06 807.148 1466.86 807.063 1466.98 805.89C1467.09 804.718 1467.98 805.483 1468.3 803.452C1468.62 801.422 1467.87 799.265 1466.96 798.737C1466.05 798.21 1465.31 797.672 1465.42 796.771C1465.53 795.87 1465.85 794.538 1464.92 794.49C1463.99 794.442 1462.73 794.024 1462.73 794.024C1462.73 794.024 1462.41 793.162 1462.46 792.372C1462.51 791.583 1462.9 790.235 1462.9 790.235L1462.58 788.65L1461.78 786.494L1460.41 785.467C1460.41 785.467 1460.01 784.465 1459.19 784.874C1458.37 785.282 1458.35 785.536 1457.98 785.062C1456.79 783.56 1457.8 783.805 1457.8 783.805L1455.33 783.36L1454.17 783.532L1452.65 782.366L1451.33 780.512L1448.86 779.917L1448.05 778.463L1446.58 776.273L1445.07 775.479L1443.57 775.657L1442.85 774.858L1443.61 772.908L1443.47 771.254C1443.47 771.254 1443.5 770.007 1443.53 769.362C1443.56 768.717 1442.7 766.564 1442.7 766.564C1442.7 766.564 1441.62 764.915 1440.84 764.354C1440.07 763.794 1439.85 763.695 1439.1 763.542C1438.35 763.388 1439.45 763.57 1437.51 763.03C1435.58 762.491 1435.83 762.43 1435.11 762.418C1434.4 762.406 1434.03 762.457 1434.03 762.457L1433.51 761.234L1432.83 759.844L1430.85 759.86L1430.93 757.174L1429.9 755.098L1428.3 753.001L1426.75 753.16L1424.96 751.83L1423.34 751.676L1421.53 752.048L1420.98 750.018L1418.44 748.685L1417.11 748.353L1416.92 745.709C1416.92 745.709 1416.79 744.946 1416.27 744.317C1415.75 743.688 1415.85 742.606 1415.85 742.606L1416.55 740.354C1416.55 740.354 1416.95 739.335 1416.37 738.939C1415.8 738.543 1414.62 738.022 1414.62 738.022L1413.38 735.569L1413.06 733.476L1411.12 732.19L1407.87 731.131L1405.74 730.715L1402.03 728.465L1398.33 728.47L1396.39 727.506L1394.52 722.87C1394.52 722.87 1394.35 720.615 1394.55 718.778C1394.74 716.941 1394.22 715.718 1394.22 715.718L1392.33 714.07L1389.38 713.624L1387.7 711.731L1383.41 708.476L1379.8 707.458L1376.67 704.295L1373.25 702.973L1369.68 700.6C1365.93 700.072 1364.03 699.715 1364.03 699.715L1361.54 698.233L1358.57 696.245L1353.83 695.938L1351.9 694.038L1348.63 694.386L1348.45 691.791C1348.45 691.791 1345.66 692.275 1344.49 692.183L1342.11 691.197L1339.64 689.098L1337.25 688.359C1337.25 688.359 1334.91 688.06 1334.09 688.514C1333.28 688.967 1329.23 693.254 1327.74 711.258C1327.74 711.258 1328.37 714.508 1322.57 727.021C1316.76 739.534 1312.72 746.729 1312.35 752.696C1311.99 758.662 1309.36 774.699 1324.92 781.465C1324.92 781.465 1336.29 788.394 1345.5 789.115C1354.71 789.835 1363.91 790.38 1363.91 790.38Z" fill="#ebebeb" fill-rule="nonzero" opacity="1" stroke="none" vectornator:layerName="Curve 4"/>
<path d="M1484.58 804.796C1485.53 796.45 1488.17 785.614 1489.84 780.275C1491.5 774.935 1492.41 763.953 1494.73 758.601C1497.05 753.249 1496.48 753.385 1497.51 746.801C1498.54 740.218 1498.7 733.891 1501.4 731.221C1504.09 728.552 1507.08 730.144 1506.89 732.579C1506.69 735.014 1505.47 745.182 1504.3 748.624C1503.14 752.066 1502.12 757.884 1501.26 760.715C1500.41 763.545 1499.7 767.219 1498.96 771.107C1498.23 774.996 1496.27 783.414 1494.87 788.08C1493.47 792.747 1492.02 798.119 1491.84 800.447C1491.67 802.775 1492.01 810.437 1490.47 812.345C1488.93 814.253 1483.62 813.142 1484.58 804.796Z" fill="#000002" fill-opacity="0.495755" fill-rule="nonzero" opacity="1" stroke="none" vectornator:layerName="Curve 5"/>
<path d="M1515.08 774.397C1515.08 774.397 1515.67 769.375 1516.3 766.881C1516.94 764.388 1517.58 764.87 1519.46 764.875C1521.34 764.88 1522.97 765.016 1522.86 767.024C1522.75 769.031 1522.36 774.664 1522.36 774.664C1522.36 774.664 1522.04 775.572 1519.9 775.921C1517.75 776.271 1515.28 776.548 1515.08 774.397Z" fill="#000002" fill-opacity="0.495755" fill-rule="nonzero" opacity="1" stroke="none" vectornator:layerName="Curve 6"/>
<path d="M1508.27 810.325C1508.27 810.325 1508.94 804.537 1509.53 800.994C1510.12 797.45 1510.87 795.6 1511.34 792.096C1511.82 788.592 1511.23 785.245 1513.31 784.655C1515.4 784.064 1518.63 783.946 1518.27 787.726C1517.92 791.505 1517.84 793.08 1517.29 794.891C1516.74 796.702 1516.19 799.183 1515.83 801.309C1515.48 803.435 1514.93 808.356 1514.49 809.616C1514.06 810.876 1513.31 813.356 1511.3 813.002C1509.3 812.647 1508.31 812.254 1508.27 810.325Z" fill="#000002" fill-opacity="0.682693" fill-rule="nonzero" opacity="1" stroke="none" vectornator:layerName="Curve 7"/>
<path d="M1549.52 755.561C1550.48 754.98 1552.16 756.802 1552.62 757.478C1553.5 758.79 1553.71 761.321 1552.45 762.516C1551.73 763.21 1550.69 763.39 1549.72 763.406C1546.75 763.453 1545.39 759.788 1546.27 757.429C1546.77 756.064 1548.65 754.677 1550.03 755.79" fill="#000002" fill-rule="nonzero" opacity="1" stroke="none" vectornator:layerName="Curve 8"/>
<path d="M1564.12 764.39C1563.65 764.208 1563.14 764.281 1562.63 764.253C1558.43 764.021 1558.76 769.314 1561.95 770.691C1562.57 770.959 1563.25 771.101 1563.92 771.18C1565.81 771.406 1567.49 769.975 1567.1 768.005C1566.83 766.659 1565.24 764.815 1564.12 764.39Z" fill="#000002" fill-rule="nonzero" opacity="1" stroke="none" vectornator:layerName="Curve 9"/>
<path d="M1559.04 781.057C1559.53 780.981 1560.55 781.262 1560.98 781.468C1562.51 782.193 1564.79 784.528 1562.79 785.991C1560.94 787.347 1558.59 786.873 1557.2 785.211C1556.3 784.136 1555.77 782.055 1557.09 781.091C1557.75 780.608 1558.27 781.178 1559.04 781.057Z" fill="#000002" fill-rule="nonzero" opacity="1" stroke="none" vectornator:layerName="Curve 10"/>
<path d="M1551.53 772.965C1551.19 772.652 1550.68 772.758 1550.23 772.674C1547.98 772.251 1545.62 773.224 1545.74 775.981C1545.78 776.8 1546.67 777.723 1547.25 778.246C1548.82 779.66 1550.93 778.998 1552.38 777.785C1552.67 777.544 1553.04 777.259 1553.17 776.888C1553.71 775.333 1552.56 773.899 1551.53 772.965Z" fill="#000002" fill-rule="nonzero" opacity="1" stroke="none" vectornator:layerName="Curve 11"/>
<path d="M1540.59 784.094C1540.64 783.373 1542.64 784.141 1543.13 784.34C1545.42 785.274 1546.42 788.231 1543.82 789.541C1542.26 790.331 1539.46 789.642 1538.78 787.882C1538.45 787.001 1538.63 785.722 1539.17 784.944C1539.49 784.47 1540.56 784.496 1540.59 784.094Z" fill="#000002" fill-rule="nonzero" opacity="1" stroke="none" vectornator:layerName="Curve 12"/>
<path d="M1554.63 795.408C1553.95 794.113 1551.43 793.765 1550.46 794.912C1549.58 795.948 1549.88 797.796 1550.47 798.88C1551.42 800.615 1553.83 801.037 1555.41 799.969C1555.71 799.768 1555.98 799.584 1556.11 799.235C1556.59 797.924 1555.73 796.749 1554.93 795.793" fill="#000002" fill-rule="nonzero" opacity="1" stroke="none" vectornator:layerName="Curve 13"/>
<path d="M1540.3 800.008C1541.02 800.232 1541.48 801.267 1541.69 801.953C1541.88 802.592 1542.04 803.343 1541.88 804.006C1541.55 805.392 1539.8 806.83 1538.34 806.748C1537.65 806.71 1537.15 805.747 1536.93 805.204C1536.41 803.898 1535.96 800.96 1536.88 799.788C1537.67 798.779 1538.64 799.208 1539.61 799.657C1539.86 799.768 1540.06 799.936 1540.3 800.008Z" fill="#000002" fill-rule="nonzero" opacity="1" stroke="none" vectornator:layerName="Curve 14"/>
<path d="M1354.22 713.796C1352.94 712.899 1349.14 714.118 1349.2 715.992C1349.23 717.135 1351.08 719.289 1351.95 719.876C1353.29 720.774 1354.02 720.358 1354.93 719.033C1355.14 718.733 1355.46 718.498 1355.59 718.155C1355.67 717.928 1355.51 717.609 1355.55 717.377C1355.87 715.575 1355.5 714.698 1354.22 713.796Z" fill="#676767" fill-opacity="0.254858" fill-rule="nonzero" opacity="1" stroke="none" vectornator:layerName="Curve 15"/>
<path d="M1374.29 725.144C1376.45 724.119 1379.42 724.61 1381.45 725.817C1382.76 726.594 1382.81 729.194 1381.67 730.21C1380.74 731.034 1378.61 730.437 1377.77 729.758C1377.46 729.508 1377.28 728.995 1377.07 728.81C1376.9 728.667 1376.06 728.746 1375.83 728.694C1374.3 728.337 1373.29 727.73 1373.77 726.03C1373.89 725.616 1373.99 725.284 1374.29 725.144Z" fill="#676767" fill-opacity="0.254858" fill-rule="nonzero" opacity="1" stroke="none" vectornator:layerName="Curve 16"/>
<path d="M1359.99 734.127C1360.08 733.642 1359.33 731.83 1358.63 731.796C1358.21 731.776 1357.86 732.139 1357.45 732.214C1356.63 732.362 1355.27 732.256 1355.02 733.332C1354.97 733.525 1355.6 736.848 1355.69 737.027C1355.84 737.314 1356.4 737.492 1356.64 737.623C1357.8 738.269 1359.36 739.134 1360.32 737.384C1360.95 736.231 1359.79 735.159 1359.99 734.127Z" fill="#676767" fill-opacity="0.254858" fill-rule="nonzero" opacity="1" stroke="none" vectornator:layerName="Curve 17"/>
<path d="M1396.18 749.167C1396.21 748.871 1396.18 748.462 1396.03 748.2C1395.58 747.439 1391.91 747.656 1391.48 748.407C1391.31 748.702 1390.79 750.154 1390.79 750.505C1390.8 751.411 1392.03 751.91 1392.63 752.274C1393.13 752.576 1393.24 753.124 1393.71 753.448C1394.19 753.778 1395.85 754.11 1396.43 753.967C1397.13 753.793 1397.01 750.148 1396.59 749.598C1396.42 749.388 1396.16 749.34 1396.18 749.167Z" fill="#676767" fill-opacity="0.254858" fill-rule="nonzero" opacity="1" stroke="none" vectornator:layerName="Curve 18"/>
<path d="M1385.89 770.406C1387.51 770.621 1390.52 772.412 1388.92 773.86C1388.41 774.325 1387.44 774.041 1386.89 773.929C1385.87 773.717 1385.34 775.136 1384.41 774.296C1382.4 772.487 1381.77 769.86 1385.89 770.406Z" fill="#676767" fill-opacity="0.254858" fill-rule="nonzero" opacity="1" stroke="none" vectornator:layerName="Curve 19"/>
<path d="M1363.39 770.485C1362.44 771.152 1358.22 770.075 1358.55 772.656C1358.65 773.424 1360.21 774.057 1360.24 774.185C1360.29 774.381 1359.82 775.192 1360.48 775.444C1360.8 775.567 1361.78 775.219 1362.15 775.187C1363.97 775.032 1366.03 775.236 1365.59 772.538C1365.48 771.879 1364 770.05 1363.39 770.485Z" fill="#676767" fill-opacity="0.254858" fill-rule="nonzero" opacity="1" stroke="none" vectornator:layerName="Curve 20"/>
<path d="M1335.92 747.585C1336.69 747.953 1341.58 748.043 1341.52 749.416C1341.5 749.925 1340.72 750.337 1340.68 750.905C1340.62 751.809 1341.38 752.668 1340.54 753.441C1339.63 754.277 1338.95 753.986 1337.89 753.774C1336.68 753.534 1335.42 753.809 1334.68 752.546C1334.22 751.75 1334.68 751.243 1334.67 750.456C1334.66 749.819 1333.81 746.571 1335.92 747.585Z" fill="#676767" fill-opacity="0.254858" fill-rule="nonzero" opacity="1" stroke="none" vectornator:layerName="Curve 21"/>
<path d="M1426.57 763.707C1427.23 763.765 1428.95 764.299 1429.27 764.958C1429.73 765.895 1429.4 766.403 1429.4 767.361C1429.41 768.068 1430.3 768.684 1430.17 769.353C1430.07 769.891 1429.49 769.937 1429.17 770.229C1428.25 771.066 1427.44 771.745 1426.05 771.289C1425.33 771.049 1425.64 771.003 1425.43 770.395C1424.65 768.228 1425.17 768.041 1425.78 765.975C1425.97 765.322 1425.31 764.744 1425.5 764.197C1425.73 763.512 1426.29 763.681 1426.57 763.707Z" fill="#676767" fill-opacity="0.254858" fill-rule="nonzero" opacity="1" stroke="none" vectornator:layerName="Curve 22"/>
<path d="M1408.97 779.556C1406.82 778.853 1405.53 782.197 1407.15 783.587C1408.06 784.368 1411.21 785.595 1411.77 783.679C1411.89 783.249 1411.37 782.811 1411.45 782.37C1411.49 782.177 1411.88 782.141 1411.86 781.944C1411.8 781.25 1409.65 779.777 1408.97 779.556Z" fill="#676767" fill-opacity="0.254858" fill-rule="nonzero" opacity="1" stroke="none" vectornator:layerName="Curve 23"/>
<path d="M1446.11 793.437C1445.05 792.8 1443.65 793.137 1442.42 793.153C1438.2 793.209 1440.78 798.801 1442.66 798.193C1443.05 798.066 1443.04 797.379 1443.41 797.21C1443.8 797.035 1444.24 797.459 1444.66 797.512C1445.17 797.574 1447.22 796.597 1447.41 796.082C1447.79 795.039 1446.8 793.855 1446.11 793.437Z" fill="#676767" fill-opacity="0.254858" fill-rule="nonzero" opacity="1" stroke="none" vectornator:layerName="Curve 24"/>
<path d="M1409.38 732.214C1408.86 732.313 1407.38 732.781 1407.8 733.593C1408 733.969 1408.74 733.93 1408.78 734.48C1408.82 735.2 1407.06 736.242 1408.7 736.504C1409.01 736.554 1409.39 736.549 1409.7 736.48C1410.37 736.332 1410.82 735.856 1411.41 735.578C1411.64 735.469 1412.63 735.346 1412.71 735.045C1412.93 734.117 1410.09 732.075 1409.38 732.214Z" fill="#676767" fill-opacity="0.254858" fill-rule="nonzero" opacity="1" stroke="none" vectornator:layerName="Curve 25"/>
<path d="M1585.49 842.328C1584.54 841.915 1584.68 843.267 1584.94 843.526C1585.39 843.973 1585.4 841.683 1585.4 841.683C1585.4 841.683 1585.33 842.697 1585.68 842.697C1585.88 842.697 1585.76 841.915 1585.49 842.052C1585.32 842.136 1585.77 842.756 1585.95 842.697C1586.29 842.583 1586.57 841.429 1586.32 841.683C1585.66 842.341 1586.35 842.701 1585.49 842.328Z" fill="none" opacity="1" stroke="#dedede" stroke-linecap="round" stroke-linejoin="round" stroke-width="1.03532" vectornator:layerName="Curve 26"/>
<path d="M1612.2 843.894C1611.25 843.894 1613.68 845.497 1613.68 843.434C1613.68 842.879 1611.91 843.491 1612.2 844.078C1612.56 844.79 1614.87 843.709 1614.69 843.341C1614.65 843.253 1613.68 843.599 1613.68 843.71C1613.68 843.974 1614.2 843.934 1614.32 844.171" fill="none" opacity="1" stroke="#dedede" stroke-linecap="round" stroke-linejoin="round" stroke-width="1.03532" vectornator:layerName="Curve 27"/>
<path d="M1598.43 848.546C1598.2 848.544 1597.95 848.595 1597.74 848.5C1597.66 848.464 1597.84 848.316 1597.93 848.316C1598.15 848.316 1597.83 849.8 1598.39 849.052C1598.43 848.997 1598.53 848.917 1598.48 848.868C1598.4 848.79 1598.22 849.066 1598.29 849.145C1598.71 849.56 1599.96 848.234 1599.95 848.223C1599.38 847.649 1598.51 848.547 1598.43 848.546Z" fill="none" opacity="1" stroke="#dedede" stroke-linecap="round" stroke-linejoin="round" stroke-width="1.03532" vectornator:layerName="Curve 28"/>
<path d="M1582.54 861.027C1582.08 860.681 1581.95 861.489 1581.62 862.04C1581.54 862.182 1581.28 862.461 1581.44 862.501C1582.4 862.74 1582.75 861.184 1582.54 861.027Z" fill="none" opacity="1" stroke="#dedede" stroke-linecap="round" stroke-linejoin="round" stroke-width="1.03532" vectornator:layerName="Curve 29"/>
<path d="M1589.45 824.182L1589.36 824.366L1589.36 824.551L1589.54 824.735L1589.73 824.735L1589.91 824.643L1589.91 824.459L1589.91 824.643L1589.91 824.827L1590.1 824.827L1590.28 824.735L1590.37 824.551" fill="none" opacity="1" stroke="#dedede" stroke-linecap="round" stroke-linejoin="round" stroke-width="1.03532" vectornator:layerName="Curve 30"/>
<path d="M1601.56 828.235C1601.76 828.086 1601.09 828.641 1600.87 828.512C1600.58 828.328 1600.8 827.498 1601.15 827.498C1601.34 827.498 1600.83 827.914 1600.97 828.051C1601.26 828.343 1601.7 826.852 1601.89 827.222C1602.18 827.801 1601.05 828.626 1601.56 828.235Z" fill="none" opacity="1" stroke="#dedede" stroke-linecap="round" stroke-linejoin="round" stroke-width="1.03532" vectornator:layerName="Curve 31"/>
<path d="M1583 832.564C1583.76 832.208 1582.29 831.569 1582.08 832.38C1582.04 832.547 1582.75 832.686 1583 832.564Z" fill="none" opacity="1" stroke="#dedede" stroke-linecap="round" stroke-linejoin="round" stroke-width="1.03532" vectornator:layerName="Curve 32"/>
<path d="M1598.11 838.828C1597.41 838.828 1598.38 838.816 1598.76 838.367C1599.01 838.06 1599.04 837.175 1599.4 837.354C1599.57 837.441 1599.43 838.909 1599.95 838.736C1600.32 838.613 1600.4 837.078 1600.6 837.078C1600.7 837.078 1601.02 838.331 1601.15 838.46C1601.52 838.829 1601.89 838.355 1601.89 837.999" fill="none" opacity="1" stroke="#dedede" stroke-linecap="round" stroke-linejoin="round" stroke-width="1.03532" vectornator:layerName="Curve 33"/>
<path d="M1615.15 833.163C1612.97 833.755 1614.2 833.141 1614.32 833.393C1614.4 833.541 1614.14 833.854 1614.14 833.854C1614.14 833.854 1614.59 832.328 1615.06 832.564C1615.18 832.624 1614.98 833.244 1614.97 833.301C1614.94 833.422 1614.97 833.793 1614.97 833.67C1614.97 833.25 1615.12 833.273 1615.43 833.025C1615.5 832.971 1615.69 832.811 1615.61 832.841C1615.2 832.991 1615.48 833.074 1615.15 833.163Z" fill="none" opacity="1" stroke="#dedede" stroke-linecap="round" stroke-linejoin="round" stroke-width="1.03532" vectornator:layerName="Curve 34"/>
<path d="M1594.84 865.402C1594.21 865.546 1594.58 865.409 1594.24 864.988C1593.94 864.606 1594.17 865.185 1594.52 865.356C1594.83 865.511 1595.81 865.182 1594.84 865.402Z" fill="none" opacity="1" stroke="#dedede" stroke-linecap="round" stroke-linejoin="round" stroke-width="1.03532" vectornator:layerName="Curve 35"/>
<path d="M1606.82 857.112C1606.34 857.444 1606.33 856.607 1606.22 857.158C1606.1 857.72 1606.42 857.601 1606.68 857.342C1606.83 857.19 1607.11 856.91 1606.82 857.112Z" fill="none" opacity="1" stroke="#dedede" stroke-linecap="round" stroke-linejoin="round" stroke-width="1.03532" vectornator:layerName="Curve 36"/>
<path d="M1588.72 855.777C1588.72 855.838 1588.72 855.899 1588.72 855.961" fill="none" opacity="1" stroke="#dedede" stroke-linecap="round" stroke-linejoin="round" stroke-width="1.03532" vectornator:layerName="Curve 37"/>
<path d="M1622.43 844.263L1622.24 844.263L1621.97 844.078L1622.06 844.263L1622.34 844.171L1622.43 843.986L1622.43 844.171L1622.43 844.355L1622.7 844.355L1622.89 844.263L1623.07 844.078L1623.26 843.894" fill="none" opacity="1" stroke="#dedede" stroke-linecap="round" stroke-linejoin="round" stroke-width="1.03532" vectornator:layerName="Curve 38"/>
<path d="M1619.94 858.448C1619.82 858.202 1619.79 858.233 1620.03 858.356" fill="none" opacity="1" stroke="#dedede" stroke-linecap="round" stroke-linejoin="round" stroke-width="1.03532" vectornator:layerName="Curve 39"/>
<path d="M1636.66 858.356C1635.43 857.945 1636.44 858.901 1636.8 858.724C1637.05 858.597 1637.03 857.781 1636.8 857.895C1636.37 858.11 1637.41 858.608 1636.66 858.356Z" fill="none" opacity="1" stroke="#dedede" stroke-linecap="round" stroke-linejoin="round" stroke-width="1.03532" vectornator:layerName="Curve 40"/>
<path d="M1633.71 850.066C1632.9 849.806 1632.46 851.162 1632.74 851.447C1632.84 851.545 1633.55 850.871 1633.76 851.079C1633.96 851.283 1633.66 851.908 1634.03 851.908C1634.81 851.908 1634.72 850.296 1634.68 850.25C1634.35 849.918 1633.76 850.08 1633.71 850.066Z" fill="none" opacity="1" stroke="#dedede" stroke-linecap="round" stroke-linejoin="round" stroke-width="1.03532" vectornator:layerName="Curve 41"/>
<path d="M1641.03 868.626C1640.85 868.349 1640.76 867.659 1640.76 867.659C1640.76 867.659 1640.32 868.329 1640.11 868.672C1640.04 868.79 1639.79 869.041 1639.93 869.041C1640.28 869.041 1640.61 868.027 1640.76 868.027C1640.95 868.027 1641.09 868.709 1641.03 868.626Z" fill="none" opacity="1" stroke="#dedede" stroke-linecap="round" stroke-linejoin="round" stroke-width="1.03532" vectornator:layerName="Curve 42"/>
<path d="M1616.53 870.054C1615.6 870.565 1615.72 870.066 1615.52 871.067C1615.51 871.127 1615.49 871.306 1615.52 871.251C1615.66 870.971 1615.39 870.33 1615.7 870.33C1615.81 870.33 1616.03 870.975 1616.35 870.975C1616.63 870.975 1617.08 869.314 1617.27 869.501C1617.64 869.872 1616.74 869.937 1616.53 870.054Z" fill="none" opacity="1" stroke="#dedede" stroke-linecap="round" stroke-linejoin="round" stroke-width="1.03532" vectornator:layerName="Curve 43"/>
<path d="M1624.73 866.001C1624.73 864.902 1624.79 866.542 1625.19 866.462C1625.51 866.399 1626.02 865.443 1625.84 865.08C1625.66 864.725 1625.2 865.826 1625.38 866.001C1625.79 866.412 1626.49 864.976 1626.67 864.804" fill="none" opacity="1" stroke="#dedede" stroke-linecap="round" stroke-linejoin="round" stroke-width="1.03532" vectornator:layerName="Curve 44"/>
<path d="M1603.73 867.567L1603.91 868.396" fill="none" opacity="1" stroke="#dedede" stroke-linecap="round" stroke-linejoin="round" stroke-width="1.03532" vectornator:layerName="Curve 45"/>
<path d="M1612.85 862.685C1612.6 862.685 1612.72 862.712 1612.48 862.593" fill="none" opacity="1" stroke="#dedede" stroke-linecap="round" stroke-linejoin="round" stroke-width="1.03532" vectornator:layerName="Curve 46"/>
<path d="M1622.89 851.355C1622.64 851.355 1622.76 851.383 1622.52 851.263" fill="none" opacity="1" stroke="#dedede" stroke-linecap="round" stroke-linejoin="round" stroke-width="1.03532" vectornator:layerName="Curve 47"/>
<path d="M1605.76 846.289C1605.46 846.139 1605.62 846.246 1605.3 845.921" fill="none" opacity="1" stroke="#dedede" stroke-linecap="round" stroke-linejoin="round" stroke-width="1.03532" vectornator:layerName="Curve 48"/>
<path d="M1577.59 881.796C1578.75 880.749 1576.74 881.637 1577.33 882.828C1577.6 883.368 1578.14 882.183 1578.36 882.183C1578.63 882.183 1578.59 883.457 1578.88 883.602C1579.13 883.729 1580.3 882.589 1580.3 882.183C1580.3 881.02 1577.46 881.912 1577.59 881.796Z" fill="none" opacity="1" stroke="#dedede" stroke-linecap="round" stroke-linejoin="round" stroke-width="1.03532" vectornator:layerName="Curve 49"/>
<path d="M1596.56 880.634C1595.99 879.78 1597.04 881.302 1597.2 881.796C1597.31 882.132 1597.1 882.828 1597.46 882.828C1597.52 882.828 1597.7 881.748 1597.72 881.667C1597.74 881.539 1597.72 881.151 1597.72 881.28C1597.72 881.345 1598.14 883.495 1598.36 882.828C1598.58 882.186 1598.12 881.314 1597.85 880.763C1597.76 880.591 1597.43 880.141 1597.59 880.247C1597.91 880.463 1599.59 882.419 1599.91 882.312C1600.35 882.167 1599.94 879.962 1599.27 880.634C1598.95 880.952 1598.95 882.417 1599.65 882.183C1600.07 882.044 1599.91 880.454 1599.91 880.893C1599.91 881.549 1599.99 882.735 1600.81 882.183" fill="none" opacity="1" stroke="#dedede" stroke-linecap="round" stroke-linejoin="round" stroke-width="1.03532" vectornator:layerName="Curve 50"/>
<path d="M1568.86 866.213C1567.36 863.182 1570.5 865.767 1569.51 866.756C1569.29 866.985 1569.4 865.887 1569.08 865.887C1568.92 865.887 1568.98 866.436 1568.86 866.322C1568.71 866.168 1569.01 866.505 1568.86 866.213Z" fill="none" opacity="1" stroke="#dedede" stroke-linecap="round" stroke-linejoin="round" stroke-width="1.03532" vectornator:layerName="Curve 51"/>
<path d="M1584.29 871.537C1580.89 870.294 1582.64 873.058 1582.99 873.058C1583.96 873.058 1583.33 871.849 1583.64 871.537C1583.68 871.498 1583.91 872.974 1584.07 873.058C1584.78 873.408 1585.27 872.412 1585.6 871.972C1585.69 871.842 1585.97 871.592 1585.81 871.537C1584.98 871.236 1584.63 871.661 1584.29 871.537Z" fill="none" opacity="1" stroke="#dedede" stroke-linecap="round" stroke-linejoin="round" stroke-width="1.03532" vectornator:layerName="Curve 52"/>
<path d="M1595.81 873.927L1595.37 873.927L1594.51 873.927L1595.16 873.71L1595.81 873.276L1596.24 873.276L1596.68 873.058L1597.11 872.841L1596.68 872.841" fill="none" opacity="1" stroke="#dedede" stroke-linecap="round" stroke-linejoin="round" stroke-width="1.03532" vectornator:layerName="Curve 53"/>
<path d="M1586.68 882.185C1586.09 882.185 1586.18 882.315 1586.47 881.751" fill="none" opacity="1" stroke="#dedede" stroke-linecap="round" stroke-linejoin="round" stroke-width="1.03532" vectornator:layerName="Curve 54"/>
<path d="M1612.54 881.751L1612.98 881.099" fill="none" opacity="1" stroke="#dedede" stroke-linecap="round" stroke-linejoin="round" stroke-width="1.03532" vectornator:layerName="Curve 55"/>
<path d="M1627.43 877.622C1627.31 877.488 1626.72 877.541 1626.89 877.622C1627.17 877.767 1627.63 877.837 1627.43 877.622Z" fill="none" opacity="1" stroke="#dedede" stroke-linecap="round" stroke-linejoin="round" stroke-width="1.03532" vectornator:layerName="Curve 56"/>
<path d="M1563.65 880.881L1564.73 880.881" fill="none" opacity="1" stroke="#dedede" stroke-linecap="round" stroke-linejoin="round" stroke-width="1.03532" vectornator:layerName="Curve 57"/>
<path d="M1555.5 895.007C1555.67 894.832 1555.17 894.112 1555.17 894.355C1555.17 894.867 1555.22 895.298 1555.5 895.007Z" fill="none" opacity="1" stroke="#dedede" stroke-linecap="round" stroke-linejoin="round" stroke-width="1.03532" vectornator:layerName="Curve 58"/>
<path d="M1548.22 878.056C1548.15 877.911 1548.07 877.767 1548 877.622" fill="none" opacity="1" stroke="#dedede" stroke-linecap="round" stroke-linejoin="round" stroke-width="1.03532" vectornator:layerName="Curve 59"/>
<path d="M1537.79 892.834C1537.64 892.761 1537.5 892.689 1537.35 892.616" fill="none" opacity="1" stroke="#dedede" stroke-linecap="round" stroke-linejoin="round" stroke-width="1.03532" vectornator:layerName="Curve 60"/>
<path d="M1654.27 850.24C1653.68 849.652 1653.83 850.011 1653.83 849.154" fill="none" opacity="1" stroke="#dedede" stroke-linecap="round" stroke-linejoin="round" stroke-width="1.03532" vectornator:layerName="Curve 61"/>
<path d="M1610.37 895.224C1610.15 895.152 1609.93 895.079 1609.72 895.007" fill="none" opacity="1" stroke="#dedede" stroke-linecap="round" stroke-linejoin="round" stroke-width="1.03532" vectornator:layerName="Curve 63"/>
<path d="M1640.58 874.797C1640.36 874.29 1640.14 873.783 1639.92 873.276" fill="none" opacity="1" stroke="#dedede" stroke-linecap="round" stroke-linejoin="round" stroke-width="1.03532" vectornator:layerName="Curve 64"/>
<path d="M1551.59 886.523C1551.44 886.546 1551.28 886.569 1551.13 886.592" fill="none" opacity="1" stroke="#dedede" stroke-linecap="round" stroke-linejoin="round" stroke-width="1.03532" vectornator:layerName="Curve 65"/>
<path d="M1557.91 879.144C1557.78 878.206 1557.51 877.29 1557.27 876.373" fill="none" opacity="1" stroke="#dedede" stroke-linecap="round" stroke-linejoin="round" stroke-width="1.03532" vectornator:layerName="Curve 66"/>
<path d="M1652.1 887.751C1651.84 887.629 1651.59 887.508 1651.33 887.386" fill="none" opacity="1" stroke="#dedede" stroke-linecap="round" stroke-linejoin="round" stroke-width="1.03532" vectornator:layerName="Curve 67"/>
<path d="M1659.69 864.659C1659 863.895 1659.28 864.259 1658.82 863.593" fill="none" opacity="1" stroke="#dedede" stroke-linecap="round" stroke-linejoin="round" stroke-width="1.03532" vectornator:layerName="Curve 68"/>
<path d="M1650.61 871.318L1651.39 871.155" fill="none" opacity="1" stroke="#dedede" stroke-linecap="round" stroke-linejoin="round" stroke-width="1.03532" vectornator:layerName="Curve 69"/>
<path d="M1651.76 858.999L1651.61 859.379" fill="none" opacity="1" stroke="#dedede" stroke-linecap="round" stroke-linejoin="round" stroke-width="1.03532" vectornator:layerName="Curve 70"/>
<path d="M1644.53 861.09C1644.43 860.994 1644.33 860.898 1644.24 860.802" fill="none" opacity="1" stroke="#dedede" stroke-linecap="round" stroke-linejoin="round" stroke-width="1.03532" vectornator:layerName="Curve 71"/>
<path d="M1639.74 840.95C1639.72 841.032 1639.7 841.114 1639.68 841.196" fill="none" opacity="1" stroke="#dedede" stroke-linecap="round" stroke-linejoin="round" stroke-width="1.03532" vectornator:layerName="Curve 72"/>
<path d="M1594.6 802.149C1594.15 801.998 1594.52 801.185 1594.6 800.715C1594.68 800.294 1595.07 801.447 1595.18 801.862C1595.28 802.253 1594.84 803.409 1594.79 803.009C1594.72 802.377 1595.04 802.293 1594.6 802.149Z" fill="none" opacity="1" stroke="#dedede" stroke-linecap="round" stroke-linejoin="round" stroke-width="1.03532" vectornator:layerName="Curve 73"/>
<path d="M1584.85 814.101L1584.47 814.292" fill="none" opacity="1" stroke="#dedede" stroke-linecap="round" stroke-linejoin="round" stroke-width="1.03532" vectornator:layerName="Curve 74"/>
<path d="M1568.5 805.4C1569.12 803.291 1568.54 805.506 1568.79 805.878C1568.94 806.115 1569.55 805.781 1569.55 805.495C1569.55 804.538 1568.15 806.589 1568.5 805.4Z" fill="none" opacity="1" stroke="#dedede" stroke-linecap="round" stroke-linejoin="round" stroke-width="1.03532" vectornator:layerName="Curve 75"/>
<path d="M1581.5 798.133C1583.82 797.731 1580.36 797.88 1581.98 798.42C1582.16 798.48 1582.42 798.555 1582.56 798.42C1582.76 798.216 1580.07 798.382 1581.5 798.133Z" fill="none" opacity="1" stroke="#dedede" stroke-linecap="round" stroke-linejoin="round" stroke-width="1.03532" vectornator:layerName="Curve 76"/>
<path d="M1572.23 817.735C1572.48 818.245 1572.29 818.053 1572.8 818.308" fill="none" opacity="1" stroke="#dedede" stroke-linecap="round" stroke-linejoin="round" stroke-width="1.03532" vectornator:layerName="Curve 77"/>
<path d="M1559.22 816.778C1558.97 816.268 1558.97 816.523 1559.22 816.013" fill="none" opacity="1" stroke="#dedede" stroke-linecap="round" stroke-linejoin="round" stroke-width="1.03532" vectornator:layerName="Curve 78"/>
<path d="M1564.01 792.683C1564.13 792.555 1564.26 792.428 1564.39 792.3" fill="none" opacity="1" stroke="#dedede" stroke-linecap="round" stroke-linejoin="round" stroke-width="1.03532" vectornator:layerName="Curve 79"/>
<path d="M1582.75 786.563L1582.94 785.989L1583.7 785.989L1584.09 786.372L1584.28 786.754L1584.28 787.137L1583.51 787.137L1583.13 787.137L1582.56 787.137" fill="none" opacity="1" stroke="#dedede" stroke-linecap="round" stroke-linejoin="round" stroke-width="1.03532" vectornator:layerName="Curve 80"/>
<path d="M1611.34 814.484C1610.97 813.606 1612.35 812.213 1611.62 813.91C1611.5 814.203 1611.38 814.59 1611.34 814.484Z" fill="none" opacity="1" stroke="#dedede" stroke-linecap="round" stroke-linejoin="round" stroke-width="1.03532" vectornator:layerName="Curve 81"/>
<path d="M1599.58 812.954C1599.02 812.864 1599.75 814.088 1599.77 814.101C1599.93 814.267 1600.76 813.145 1599.58 812.954Z" fill="none" opacity="1" stroke="#dedede" stroke-linecap="round" stroke-linejoin="round" stroke-width="1.03532" vectornator:layerName="Curve 82"/>
<path d="M1566.11 832.938C1564.29 833.652 1566.58 830.559 1566.11 832.46C1566.01 832.851 1566.47 832.797 1566.11 832.938Z" fill="none" opacity="1" stroke="#dedede" stroke-linecap="round" stroke-linejoin="round" stroke-width="1.03532" vectornator:layerName="Curve 83"/>
<path d="M1589.63 774.898L1589.82 775.663" fill="none" opacity="1" stroke="#dedede" stroke-linecap="round" stroke-linejoin="round" stroke-width="1.03532" vectornator:layerName="Curve 84"/>
<path d="M1608.95 788.475C1608.95 788.348 1608.95 788.22 1608.95 788.093" fill="none" opacity="1" stroke="#dedede" stroke-linecap="round" stroke-linejoin="round" stroke-width="1.03532" vectornator:layerName="Curve 85"/>
<path d="M1594.51 789.432C1593.49 790.063 1593.72 790.044 1594.41 788.667C1594.48 788.539 1594.46 788.284 1594.6 788.284C1594.7 788.284 1593.73 790.197 1594.41 790.197C1594.64 790.197 1595.52 788.134 1595.37 788.284C1594.76 788.891 1594.77 789.266 1594.51 789.432Z" fill="none" opacity="1" stroke="#dedede" stroke-linecap="round" stroke-linejoin="round" stroke-width="1.03532" vectornator:layerName="Curve 86"/>
<path d="M1579.21 807.408C1578.82 807.564 1578.36 807.356 1577.97 807.217C1576.69 806.765 1579.53 807.775 1579.88 807.599C1580.97 807.054 1579.82 807.163 1579.21 807.408Z" fill="none" opacity="1" stroke="#dedede" stroke-linecap="round" stroke-linejoin="round" stroke-width="1.03532" vectornator:layerName="Curve 87"/>
<path d="M1596.32 806.834C1596.43 806.419 1595.48 806.563 1595.18 806.26C1594.99 806.075 1595.81 806.226 1595.94 806.452C1596.13 806.77 1597.25 807.143 1596.9 807.025C1596.41 806.863 1596.22 807.271 1596.32 806.834Z" fill="none" opacity="1" stroke="#dedede" stroke-linecap="round" stroke-linejoin="round" stroke-width="1.03532" vectornator:layerName="Curve 88"/>
</g>
</svg>
