<?xml version="1.0" encoding="UTF-8" standalone="no"?>
<!DOCTYPE svg PUBLIC "-//W3C//DTD SVG 1.1//EN" "http://www.w3.org/Graphics/SVG/1.1/DTD/svg11.dtd">
<!-- Created with Vectornator (http://vectornator.io/) -->
<svg height="100%" stroke-miterlimit="10" style="fill-rule:nonzero;clip-rule:evenodd;stroke-linecap:round;stroke-linejoin:round;" version="1.1" viewBox="1409.88 723.149 648.163 403.948" width="100%" xml:space="preserve" xmlns="http://www.w3.org/2000/svg" xmlns:vectornator="http://vectornator.io" xmlns:xlink="http://www.w3.org/1999/xlink">
<defs/>
<g id="slug" vectornator:layerName="slug">
<path d="M1409.88 1084.4C1409.88 1084.4 1414.82 1057.21 1443.01 1047.32C1471.2 1037.43 1465.16 1028.09 1476.29 1014.24C1487.42 1000.4 1524.35 969.93 1562.68 963.254C1601 956.578 1612.87 958.556 1646.99 962.265C1681.11 965.974 1707.84 970.502 1762.58 965.962C1818.73 961.305 1863.56 928.021 1880.12 917.707C1896.69 907.393 1935.21 870.316 1940.7 832.624C1946.52 792.696 1935.21 785.986 1945.42 762.014C1947.34 757.519 1947.39 757.787 1947.39 757.787C1947.39 757.787 1937.3 752.461 1936.31 742.736C1935.32 733.011 1941.02 727.118 1952.6 724.627C1964.18 722.135 1968.36 722.975 1975.75 725.795C1983.14 728.615 1989.69 732.7 1990.25 743.161C1990.81 753.623 1977.55 761.466 1969.65 761.85C1969.65 761.85 1968.69 780.518 1966.94 798.459C1963.78 830.692 1979.97 825.271 1986.46 823.813C1992.95 822.355 1998.71 823.96 2000.41 818.358C2014.96 770.604 2011.34 767.721 2011.34 767.721C2011.34 767.721 2000.77 760.756 2002.03 750.541C2003.28 740.326 2005.8 730.523 2024.37 731.289C2042.95 732.055 2046.1 730.997 2054.8 741.124C2054.8 741.124 2057.29 745.14 2057.95 751.35C2058.62 757.559 2055.65 766.383 2046.67 769.828C2037.7 773.273 2032.7 773.03 2032.7 773.03C2032.7 773.03 2034.16 767.352 2032.49 787.342C2031.33 801.2 2022.58 818.51 2017.25 825.819C2017.25 825.819 2016.92 844.349 2019.85 854.811C2027.94 883.616 2012.37 914.832 1990.52 934.066C1990.52 934.066 1976.06 946.946 1973.3 950.486C1970.55 954.027 1952.55 982.446 1948.2 994.843C1943.85 1007.24 1938.58 1049.01 1907.56 1077.44C1887.31 1096.01 1856.53 1121.31 1797.83 1122.79C1739.13 1124.28 1686.28 1103.13 1646.3 1098.72C1603.94 1094.04 1530.07 1114.62 1512.64 1115.01C1495.21 1115.4 1485.39 1123.67 1485.39 1123.67C1485.39 1123.67 1420.96 1144.29 1409.88 1084.4Z" fill="#000002" fill-rule="nonzero" opacity="1" stroke="none" vectornator:layerName="Curve 11"/>
<path d="M1466.69 1043.38C1466.69 1043.38 1496.65 994.705 1543.99 979.472C1591.32 964.239 1603.05 963.532 1668.55 975.582C1668.55 975.582 1742.11 986.267 1798.19 966.59C1854.26 946.912 1911.95 914.97 1931.07 876.334C1950.18 837.699 1950.79 836.529 1948.27 813.227C1944.61 779.385 1945.08 775.996 1946.81 770.579C1948.54 765.162 1952.44 758.953 1952.44 758.953C1952.44 758.953 1961.34 761.78 1964.16 761.572L1963.54 779.038C1963.54 779.038 1961.16 812.733 1963.98 819.334C1966.8 825.936 1969.48 827.792 1974.83 829.275C1980.18 830.757 1987.01 829.559 1991.41 828.82C1995.81 828.082 1999.11 827.928 2000.74 826.396C2002.37 824.863 2004.48 825.646 2007.19 812.623C2009.89 799.599 2016.31 771.732 2016.31 771.732L2016.53 770.283C2016.53 770.283 2024.21 773.476 2028.16 772.936C2028.16 772.936 2031.53 792.23 2012.85 823.936C2012.85 823.936 2012.67 824.644 2012.46 825.953C2011.84 829.657 2010.88 838.173 2012.59 849.084C2014.9 863.85 2015.48 865.573 2014.02 876.302C2012.56 887.031 2010.16 890.496 2007.6 897.002C2005.05 903.508 1998.74 912.389 1975.1 935.211C1951.46 958.032 1952.83 963.862 1949.42 971.802C1946.01 979.742 1936.6 1001.49 1903.94 1015.29C1871.28 1029.1 1844.23 1030.18 1823.82 1031.77C1803.41 1033.35 1765.56 1031.83 1741.41 1031.11C1717.26 1030.38 1649.63 1035.78 1624.4 1037.5C1599.18 1039.21 1592.66 1039.86 1581.43 1043.91C1570.2 1047.97 1519.97 1071.72 1514.96 1079.57L1518.72 1081.9C1518.72 1081.9 1539.61 1081.32 1535 1082.42C1530.39 1083.52 1518.28 1091.59 1531.99 1092.73C1545.7 1093.88 1535.37 1099.44 1527.44 1101.54C1519.5 1103.64 1501.2 1106.95 1495.74 1109.8C1490.28 1112.65 1486.92 1112.66 1477.46 1112.98C1468.01 1113.3 1432.52 1108.05 1425.7 1095.33C1418.88 1082.62 1419.66 1074.68 1436.85 1062.22C1454.05 1049.76 1454.06 1053.05 1458.56 1050.33C1463.05 1047.61 1465.17 1046.16 1466.69 1043.38Z" fill="#a36f3d" fill-rule="nonzero" opacity="1" stroke="none" vectornator:layerName="Curve 1"/>
<path d="M1944.61 737.423L1981.94 738.597C1981.94 738.597 1978.43 728.785 1966.3 728.188C1954.16 727.591 1946.21 728.521 1944.61 737.423Z" fill="#a36f3d" fill-rule="nonzero" opacity="1" stroke="none" vectornator:layerName="Curve 2"/>
<path d="M2010.48 745.086L2049.16 745.345C2049.16 745.345 2041.82 734.629 2029.5 735.111C2017.18 735.592 2011.93 736.032 2010.48 745.086Z" fill="#a36f3d" fill-rule="nonzero" opacity="1" stroke="none" vectornator:layerName="Curve 3"/>
<path d="M1944.11 743.454L1956.43 743.583C1956.43 743.583 1960.39 749.044 1963.85 748.984C1967.3 748.925 1971 746.302 1972.02 743.793L1983.69 744.303C1983.69 744.303 1986.2 756.228 1967.25 754.13C1948.31 752.032 1945.79 752.066 1944.11 743.454Z" fill="#ffffff" fill-rule="nonzero" opacity="1" stroke="none" vectornator:layerName="Curve 4"/>
<path d="M2009.26 751.991L2022.87 752.107C2022.87 752.107 2023.57 758.16 2029.04 758.858C2034.51 759.556 2036.03 755.599 2036.96 753.155L2049.65 752.573C2049.65 752.573 2052.32 768.286 2030.56 765.609C2008.79 762.932 2009.26 756.647 2009.26 751.991Z" fill="#ffffff" fill-rule="nonzero" opacity="1" stroke="none" vectornator:layerName="Curve 5"/>
<path d="M1959.85 872.121C1960.72 874.537 1963.9 875.979 1962.35 876.745C1960.81 877.51 1957.93 882.973 1960.64 884.721C1963.35 886.47 1970.67 888.759 1973.72 885.814L1974.5 885.283C1974.5 885.283 1975.7 887.268 1978.89 887.519C1982.08 887.769 1988.43 886.684 1989.28 885.149C1990.12 883.614 1997.06 877.636 1991.01 870.982C1991.01 870.982 1986 869.961 1985.59 871.464C1985 873.593 1986.53 874.312 1987.32 874.403C1988.1 874.495 1988.86 877.233 1988.86 877.233C1988.86 877.233 1987.94 879.833 1986.61 880.617C1981.94 883.356 1979.08 881.633 1977.95 881.536C1976.83 881.438 1977.02 880.465 1976.87 879.99C1976.71 879.515 1976.05 877.692 1974.66 877.241C1973.27 876.79 1971.49 877.884 1971.3 879.394C1971.1 880.904 1971.07 881.816 1968.76 881.665C1966.45 881.515 1965.15 880.2 1965.99 879.689C1968.9 877.917 1966.92 875.353 1966.74 874.179C1966.56 873.005 1965.68 871.531 1963.95 869.062C1962.69 867.255 1958.53 868.467 1959.85 872.121Z" fill="#000002" fill-rule="nonzero" opacity="1" stroke="none" vectornator:layerName="Curve 6"/>
<path d="M1512.97 1082.42C1512.97 1082.42 1509.46 1078.78 1519.5 1073.77C1530.8 1068.14 1569.24 1042.7 1600.36 1038.65C1631.48 1034.59 1705.31 1027.23 1742 1031.16C1778.69 1035.08 1823.67 1028.27 1840.35 1028.51C1857.03 1028.75 1903.02 1014 1903.02 1014L1935.21 997.228L1929.68 1016.26C1929.68 1016.26 1913 1062.96 1878.21 1081.08C1843.43 1099.2 1814.01 1107.64 1775.62 1106.71C1737.22 1105.78 1678.56 1093.98 1678.56 1093.98L1628.65 1086.76C1628.65 1086.76 1590.93 1085.69 1578.77 1089.32C1566.61 1092.96 1512.97 1104.91 1512.97 1104.91C1512.97 1104.91 1534.27 1087.82 1512.97 1082.42Z" fill="#b88434" fill-rule="nonzero" opacity="1" stroke="none" vectornator:layerName="Curve 9"/>
<path d="M1512.97 1081.22C1512.97 1081.22 1553.2 1045.13 1623.87 1037.87C1694.53 1030.62 1767.42 1031.01 1783.02 1031.78C1798.62 1032.55 1904.94 1036.77 1943.68 984.108L1941.75 995.246L1934.02 1001.06C1934.02 1001.06 1899.23 1032.94 1825.79 1037.91C1825.79 1037.91 1610.61 1032.6 1558.09 1061.11C1558.09 1061.11 1525.46 1077.03 1522.01 1080.01C1518.56 1083 1516.57 1082.98 1512.97 1081.22Z" fill="#000002" fill-rule="nonzero" opacity="1" stroke="none" vectornator:layerName="Curve 8"/>
</g>
</svg>
