<?xml version="1.0" encoding="UTF-8" standalone="no"?>
<!DOCTYPE svg PUBLIC "-//W3C//DTD SVG 1.1//EN" "http://www.w3.org/Graphics/SVG/1.1/DTD/svg11.dtd">
<!-- Created with Vectornator (http://vectornator.io/) -->
<svg height="100%" stroke-miterlimit="10" style="fill-rule:nonzero;clip-rule:evenodd;stroke-linecap:round;stroke-linejoin:round;" version="1.1" viewBox="391.886 546.563 583.016 346.868" width="100%" xml:space="preserve" xmlns="http://www.w3.org/2000/svg" xmlns:vectornator="http://vectornator.io" xmlns:xlink="http://www.w3.org/1999/xlink">
<defs>
<filter color-interpolation-filters="sRGB" filterUnits="userSpaceOnUse" height="346.868" id="Filter" width="583.016" x="391.886" y="546.563">
<feGaussianBlur in="SourceGraphic" result="Blur" stdDeviation="0.387597"/>
</filter>
</defs>
<g id="slug-copy-copy" vectornator:layerName="slug copy copy">
<path d="M392.855 853.444C392.855 853.444 397.888 829.52 423.046 821.463C448.205 813.405 443.1 805.002 453.273 793.032C463.446 781.062 496.841 755.025 530.883 750.055C564.926 745.086 575.37 747.123 605.443 751.231C635.517 755.34 659.042 759.993 707.543 757.311C757.294 754.559 797.736 726.224 812.632 717.509C827.527 708.793 862.483 676.952 868.256 643.764C874.372 608.606 864.534 602.399 874.146 581.455C875.949 577.528 875.986 577.766 875.986 577.766C875.986 577.766 867.195 572.812 866.56 564.19C865.925 555.569 871.107 550.498 881.405 548.577C891.704 546.655 895.376 547.5 901.84 550.172C908.303 552.845 913.994 556.616 914.234 565.878C914.473 575.14 902.567 581.752 895.572 581.899C895.572 581.899 894.27 598.379 892.28 614.198C888.705 642.617 903.153 638.218 908.925 637.087C914.697 635.955 919.746 637.514 921.391 632.604C935.417 590.74 932.286 588.103 932.286 588.103C932.286 588.103 923.111 581.689 924.467 572.688C925.824 563.688 928.287 555.083 944.689 556.212C961.091 557.34 963.91 556.483 971.348 565.646C971.348 565.646 973.454 569.258 973.89 574.763C974.325 580.269 971.489 587.998 963.469 590.825C955.449 593.652 951.036 593.316 951.036 593.316C951.036 593.316 952.468 588.332 950.505 605.964C949.143 618.187 940.982 633.277 936.097 639.609C936.097 639.609 935.349 655.982 937.691 665.303C944.139 690.964 929.619 718.182 909.835 734.656C909.835 734.656 896.733 745.691 894.213 748.753C891.692 751.816 875.084 776.503 870.938 787.356C866.793 798.21 855.418 832.027 827.306 856.41C808.952 872.329 790.79 888.372 738.858 888.257C686.926 888.142 625.401 874.78 601.519 871.846C577.638 868.913 559.599 862.625 528.235 871.98C496.871 881.335 498.373 883.08 482.955 883C467.538 882.92 458.659 889.991 458.659 889.991C458.659 889.991 401.199 906.655 392.855 853.444Z" fill="#605230" fill-rule="nonzero" filter="url(#Filter)" opacity="1" stroke="none" vectornator:blur="0.775194" vectornator:layerName="Curve 11"/>
<path d="M444.08 818.556C444.08 818.556 471.746 776.254 513.965 763.939C556.184 751.623 566.569 751.283 624.18 763.529C624.18 763.529 688.954 774.764 739.007 758.731C789.06 742.699 840.84 715.863 858.676 682.172C876.511 648.48 877.079 647.461 875.417 626.8C873.002 596.792 873.507 593.807 875.167 589.061C876.827 584.314 880.429 578.92 880.429 578.92C880.429 578.92 888.228 581.635 890.72 581.52L889.75 596.946C889.75 596.946 886.825 626.676 889.159 632.581C891.492 638.486 893.818 640.192 898.51 641.632C903.202 643.072 909.273 642.18 913.178 641.634C917.082 641.088 920.005 641.032 921.483 639.717C922.961 638.402 924.808 639.145 927.519 627.698C930.23 616.25 936.581 591.77 936.581 591.77L936.811 590.494C936.811 590.494 943.517 593.504 947.026 593.122C947.026 593.122 949.534 610.261 932.251 637.837C932.251 637.837 932.079 638.459 931.854 639.61C931.219 642.87 930.165 650.376 931.409 660.063C933.091 673.173 933.568 674.711 932.016 684.16C930.465 693.609 928.253 696.615 925.836 702.304C923.419 707.994 917.624 715.692 896.171 735.293C874.719 754.893 875.79 760.08 872.582 767.017C869.373 773.953 860.527 792.952 831.318 804.36C802.108 815.769 778.167 816.07 760.083 816.976C741.999 817.882 708.578 815.615 687.247 814.386C665.916 813.158 605.993 816.284 583.648 817.19C561.304 818.096 555.525 818.51 545.5 821.82C535.475 825.13 490.494 844.904 485.867 851.726L489.136 853.876C489.136 853.876 507.62 853.875 503.518 854.736C499.417 855.596 488.517 862.429 500.607 863.776C512.698 865.124 503.431 869.791 496.367 871.453C489.302 873.115 473.037 875.598 468.14 877.984C463.244 880.369 460.273 880.296 451.907 880.351C443.542 880.407 412.298 874.895 406.575 863.488C400.853 852.082 401.738 845.083 417.243 834.486C432.748 823.889 432.68 826.799 436.719 824.505C440.757 822.212 442.666 820.978 444.08 818.556Z" fill="#edbf4b" fill-opacity="0.95" fill-rule="nonzero" opacity="1" stroke="none" vectornator:layerName="Curve 1"/>
<path d="M874.022 559.695L906.997 561.641C906.997 561.641 904.136 552.881 893.424 552.058C882.711 551.236 875.661 551.864 874.022 559.695Z" fill="#edbf4b" fill-opacity="0.95" fill-rule="nonzero" opacity="1" stroke="none" vectornator:layerName="Curve 2"/>
<path d="M932.072 568.071L966.265 569.241C966.265 569.241 960.035 559.589 949.133 559.715C938.23 559.841 933.574 560.102 932.072 568.071Z" fill="#edbf4b" fill-opacity="0.95" fill-rule="nonzero" opacity="1" stroke="none" vectornator:layerName="Curve 3"/>
<path d="M873.438 565.014L884.324 565.428C884.324 565.428 887.696 570.352 890.753 570.384C893.81 570.415 897.145 568.186 898.107 565.993L908.407 566.728C908.407 566.728 910.336 577.331 893.64 575.016C876.943 572.7 874.712 572.669 873.438 565.014Z" fill="#ffffff" fill-rule="nonzero" opacity="1" stroke="none" vectornator:layerName="Curve 4"/>
<path d="M930.823 574.146L942.86 574.58C942.86 574.58 943.33 579.948 948.149 580.698C952.969 581.448 954.403 577.987 955.285 575.848L966.516 575.642C966.516 575.642 968.5 589.599 949.323 586.703C930.145 583.807 930.71 578.262 930.823 574.146Z" fill="#ffffff" fill-rule="nonzero" opacity="1" stroke="none" vectornator:layerName="Curve 5"/>
<path d="M884.221 679.146C884.934 681.304 887.707 682.656 886.325 683.295C884.943 683.935 882.259 688.693 884.614 690.305C886.969 691.917 893.39 694.119 896.15 691.589L896.858 691.139C896.858 691.139 897.865 692.923 900.683 693.222C903.5 693.521 909.14 692.717 909.924 691.38C910.707 690.043 916.982 684.927 911.798 678.897C911.798 678.897 907.397 677.873 906.992 679.191C906.419 681.06 907.756 681.732 908.45 681.832C909.144 681.932 909.743 684.371 909.743 684.371C909.743 684.371 908.874 686.647 907.673 687.308C903.477 689.616 900.991 688.023 900 687.91C899.009 687.797 899.202 686.941 899.078 686.517C898.954 686.094 898.409 684.466 897.192 684.033C895.974 683.6 894.375 684.525 894.167 685.855C893.958 687.185 893.904 687.99 891.869 687.801C889.833 687.612 888.71 686.418 889.466 685.987C892.087 684.491 890.393 682.176 890.263 681.134C890.132 680.091 889.388 678.767 887.927 676.542C886.857 674.914 883.142 675.884 884.221 679.146Z" fill="#73643d" fill-rule="nonzero" opacity="1" stroke="none" vectornator:layerName="Curve 6"/>
<path d="M484.043 854.2C484.043 854.2 481.03 850.889 490.024 846.709C500.153 842.001 534.757 820.448 562.368 817.622C589.978 814.797 655.424 810.085 687.767 814.447C720.109 818.809 760.034 813.879 774.773 814.499C789.512 815.119 830.536 803.194 830.536 803.194L859.397 789.15L854.046 805.839C854.046 805.839 838.165 846.719 806.97 861.892C775.776 877.066 749.568 883.814 715.646 882.056C681.724 880.298 630.148 868.445 630.148 868.445L586.205 860.845C586.205 860.845 552.886 858.985 542.047 861.9C531.209 864.815 483.497 874.075 483.497 874.075C483.497 874.075 502.741 859.489 484.043 854.2Z" fill="#e3c67d" fill-opacity="0.95" fill-rule="nonzero" opacity="1" stroke="none" vectornator:layerName="Curve 9"/>
<path d="M484.073 853.138C484.073 853.138 520.517 822.206 583.165 817.51C645.813 812.814 710.242 814.932 724.014 815.995C737.786 817.057 831.681 823.37 867.209 777.757L865.226 787.556L858.251 792.505C858.251 792.505 826.721 819.847 761.678 822.456C761.678 822.456 571.572 812.531 524.445 836.45C524.445 836.45 495.215 849.732 492.094 852.289C488.973 854.845 487.213 854.776 484.073 853.138Z" fill="#73643d" fill-rule="nonzero" opacity="1" stroke="none" vectornator:layerName="Curve 8"/>
</g>
</svg>
