<?xml version="1.0" encoding="UTF-8" standalone="no"?>
<!DOCTYPE svg PUBLIC "-//W3C//DTD SVG 1.1//EN" "http://www.w3.org/Graphics/SVG/1.1/DTD/svg11.dtd">
<!-- Created with Vectornator (http://vectornator.io/) -->
<svg height="100%" stroke-miterlimit="10" style="fill-rule:nonzero;clip-rule:evenodd;stroke-linecap:round;stroke-linejoin:round;" version="1.1" viewBox="198.693 195.871 1933.67 958.934" width="100%" xml:space="preserve" xmlns="http://www.w3.org/2000/svg" xmlns:vectornator="http://vectornator.io" xmlns:xlink="http://www.w3.org/1999/xlink">
<defs/>
<g id="black" vectornator:layerName="black">
<path d="M708.564 310.476C864.933 182.455 1881.93 73.3708 2102.76 497.449C2238.14 757.419 1919.9 1188.29 926.036 1152.74C638.099 1142.43 250.85 1057.05 202.56 871.117C202.56 871.117 179.88 760.555 244.374 705.814C244.374 705.814 237.379 767.2 250.85 822.407C276.463 927.372 570.762 1097.47 1316.13 1026.62C1858.91 975.03 2104.1 759.368 2006.08 545.095C1817.78 133.47 701.614 316.166 708.564 310.476Z" fill="#5acdb9" fill-rule="nonzero" opacity="1" stroke="none" vectornator:layerName="Curve 1"/>
<path d="M276.463 623.452C276.463 623.452 253.063 611.142 303.668 477.024C330.54 405.805 359.279 371.419 412.603 359.427C465.926 347.436 556.705 344.915 635.377 351.065C652.069 352.37 692.958 363 724.47 408.134C724.47 408.134 738.584 431.78 734.717 458.083C734.717 458.083 765.075 400.733 802.953 378.075C840.831 355.416 876.987 352.45 876.987 352.45C876.987 352.45 927.891 350.702 936.193 354.191C944.495 357.68 955.844 372.126 955.696 386.592C955.549 401.057 955.261 406.104 947.581 435.941C939.901 465.777 899.601 625.32 899.601 625.32C899.601 625.32 897.427 634.003 901.236 637.929C905.045 641.855 922.697 640.294 922.697 640.294C922.697 640.294 983.334 640.772 1008.99 652.741C1036.23 665.445 1046.77 677.382 1046.77 677.382C1046.77 677.382 1054.97 628.485 1058.05 613.034C1061.14 597.584 1087.86 481.003 1118.07 434.416C1148.28 387.829 1193.66 367.773 1193.66 367.773C1193.66 367.773 1238.77 342.413 1311.4 358.667C1317.09 359.939 1321.93 362.215 1321.68 375.2C1321.44 388.185 1257.4 624.889 1257.4 624.889C1257.4 624.889 1253.41 628.753 1267.91 628.834C1282.42 628.915 1292.59 625.33 1295.37 616.122C1298.15 606.914 1320.57 494.146 1333.96 455.773C1347.36 417.401 1355.54 374.459 1407.3 359.923C1459.06 345.387 1495.81 351.208 1495.81 351.208C1495.81 351.208 1531.67 353.203 1539.35 378.066C1539.35 378.066 1541.03 385.378 1541.09 392.379C1541.14 399.38 1541.83 397.509 1547.63 389.993C1553.43 382.478 1579.41 365.188 1609.69 362.101C1709.02 351.973 1914.52 361.146 1956.68 369.51C1969.71 372.096 1976.25 390.749 1976.43 396.456C1976.61 402.164 1978.14 466.38 1947.04 500.636C1947.04 500.636 1932.9 517.94 1927.56 520.299C1922.23 522.658 1926.85 524.605 1928.27 525.066C1953.23 533.151 1952.2 547.004 1950.67 564.037C1927.29 824.347 1887.12 845.91 1801.02 861.271C1801.02 861.271 1548.95 907.794 1462.44 798.588C1461.87 797.866 1460.51 798.769 1459.43 801.484C1457.26 806.913 1435.58 843.191 1392.02 850.971C1348.47 858.752 1320.77 855.154 1320.77 855.154L1195.42 854.359C1195.42 854.359 1121.31 858.001 1105.04 853.892C1088.77 849.783 1077.21 850.867 1065.47 830.343C1065.47 830.343 1062.66 826.082 1060.94 830.806C1059.21 835.53 1053.17 850.426 1036.35 857.029C1019.53 863.632 971.41 863.421 971.41 863.421L811.777 862.68L729.344 858.718C729.344 858.718 692.703 861.842 665.513 836.159C665.513 836.159 652.294 822.02 648.366 806.84C648.366 806.84 616.243 850.096 561.558 856.795C506.874 863.494 374.424 859.129 335.475 844.09C296.525 829.05 249.81 798.914 250.868 717.246C251.532 665.923 260.35 628.127 276.463 623.452Z" fill="#23271b" fill-rule="nonzero" opacity="1" stroke="none" vectornator:layerName="Curve 1"/>
<path d="M1205.55 854.236C1205.55 854.236 1165.24 861.137 1161.83 886.435C1158.42 911.732 1161.58 917.505 1161.58 917.505C1161.58 917.505 1165.2 927.596 1176.28 929.271C1187.35 930.946 1205.89 930.965 1205.89 930.965C1205.89 930.965 1206.94 933.476 1203.93 936.53C1199.86 940.65 1185.08 961.857 1184.49 965.943C1183.22 974.731 1183.41 981.708 1185.9 985.1C1188.41 988.513 1193.29 995.511 1209.86 996.382C1209.86 996.382 1217.16 1002.42 1202.3 1001.77C1187.44 1001.13 1162.21 1002.38 1162.21 1002.38C1162.21 1002.38 1147.81 1001.27 1146.41 1016.69C1145 1032.11 1144.08 1048.88 1145.38 1053.99C1146.69 1059.1 1153.97 1090.8 1175.16 1098.41C1196.35 1106.01 1256.98 1106.69 1273.29 1095C1289.61 1083.31 1291.41 1077.33 1297.37 1071.89C1303.33 1066.46 1306.52 1064.13 1313.72 1069.48C1320.91 1074.82 1341.89 1088.66 1362.97 1079.74C1378.22 1073.28 1382.11 1068.38 1382.11 1068.38C1382.11 1068.38 1400.88 1083.8 1436.52 1086.91C1465.24 1089.41 1485.08 1089.67 1504.54 1069.35C1524.01 1049.02 1538.96 1015.06 1554.77 963.036C1570.58 911.016 1571.45 894.062 1561.61 871.117C1546.74 836.43 1442.8 822.407 1405.08 849.795C1391.3 859.805 1376.84 882.138 1372.08 916.541C1370.28 929.562 1366.09 976.748 1366.09 976.748C1366.09 976.748 1348.52 971.429 1337.15 978.655C1337.15 978.655 1336.9 952.212 1334.66 946.711C1332.43 941.209 1330.18 936.452 1317.14 929.377C1317.14 929.377 1336.68 901.798 1338.65 888.069C1340.29 876.669 1340.95 859.313 1320.72 855.111C1302.98 851.425 1205.55 854.236 1205.55 854.236Z" fill="#23271b" fill-rule="nonzero" opacity="1" stroke="none" vectornator:layerName="Curve 2"/>
<path d="M293.982 596.11C293.982 596.11 311.692 501.127 345.979 445.209C380.267 389.291 406.783 385.348 505.377 380.438C603.971 375.527 646.758 384.503 679.192 405.93C729.799 439.361 700.608 521.266 696.202 556.025C696.202 556.025 571.918 552.228 540.779 553.804C540.779 553.804 471.231 550.775 470.885 559.986C470.26 576.677 474.506 584.936 493.548 586.569C512.59 588.203 648.342 586.954 658.834 587.885C669.325 588.817 691.277 590.026 685.43 613.482C679.582 636.938 651.499 742.798 625.512 780.928C612.213 800.443 588.472 822.67 532.911 828.178C477.349 833.686 379.586 833.011 344.529 814.163C309.472 795.315 281.879 772.631 276.807 734.692C276.807 734.692 274.058 691.224 284.109 661.714C284.109 661.714 284.513 653.761 295.327 654.433C306.142 655.106 412.025 657.319 430.459 657.319C448.892 657.32 472.156 655.277 472.156 655.277C472.156 655.277 470.451 631.973 457.902 627.804C445.353 623.635 366.121 626.046 366.121 626.046C366.121 626.046 321.332 625.768 311.042 624.31C300.752 622.852 297.993 618.063 296.007 615.756C294.021 613.449 291.892 604.602 293.982 596.11Z" fill="#b4eb00" fill-rule="nonzero" opacity="1" stroke="none" vectornator:layerName="s"/>
<path d="M692.417 813.994C692.417 813.994 679.583 805.897 684.033 776.775C688.482 747.654 712.243 640.682 712.243 640.682C712.243 640.682 739.15 525.268 746.03 509.532C752.91 493.797 768.736 438.111 811.754 410.259C811.754 410.259 856.374 372 916.367 385.173L922.287 387.336L853.81 669.635C853.81 669.635 967.749 660.152 999.582 683.692C1031.42 707.233 1044.45 739.523 1046.37 762.026C1048.3 784.528 1043.09 813.912 1034.24 826.791L741.449 825.68C741.449 825.68 704.338 827.398 692.417 813.994Z" fill="#b4eb00" fill-rule="nonzero" opacity="1" stroke="none" vectornator:layerName="l"/>
<path d="M1225.45 655.265L1279.57 410.064C1279.57 410.064 1284.11 395.18 1283.56 388.828C1283.01 382.476 1269.86 382.21 1265.35 381.714C1260.84 381.219 1182.83 371.991 1136.43 465.53C1113.67 511.414 1094.37 623.633 1085.09 685.682C1075.81 747.731 1075.07 787.248 1075.93 792.091C1076.81 797.017 1081.39 810.525 1087.31 813.806C1093.23 817.088 1102.97 821.668 1108.94 821.576C1114.91 821.484 1349.68 822.369 1349.68 822.369C1349.68 822.369 1382.41 823.569 1399.34 812.445C1416.27 801.322 1430.94 788.011 1436.29 766.63C1441.63 745.25 1508.29 428.952 1508.29 428.952L1513.1 401.652C1513.1 401.652 1511.09 391.275 1506.4 387.533C1501.7 383.792 1445.62 367.874 1399.85 401.08C1377.84 417.041 1361.18 440.662 1343.46 524.4C1325.73 608.137 1326.67 644.007 1314.17 652.738C1301.67 661.468 1302.75 663.836 1225.45 655.265Z" fill="#b4eb00" fill-rule="nonzero" opacity="1" stroke="none" vectornator:layerName="u"/>
<path d="M1617.53 681.157C1617.53 681.157 1623.38 563.662 1644.24 529.755C1644.24 529.755 1652.25 516.601 1672.25 517.372C1692.25 518.143 1860.68 520.246 1860.68 520.246C1860.68 520.246 1924 525.755 1943.18 458.013C1943.18 458.013 1952.66 427.212 1953.21 414.01C1953.43 408.753 1951.35 396.877 1945.03 394.974C1943.83 394.613 1937.23 392.342 1925.48 392.068C1861.36 390.579 1657.4 383.417 1609.67 389.611C1569.18 394.865 1553.29 418.582 1548.95 424.775C1521.46 464.04 1501.04 568.822 1480.21 704.395C1473.85 745.815 1484.11 765.851 1484.11 765.851C1484.11 765.851 1494.72 808.93 1575.27 828.178C1620.81 839.059 1741.16 844.309 1802.64 831.181C1875.49 815.626 1875.18 801.791 1895.71 745.998C1913.21 698.447 1922.15 565.414 1920.98 562.943C1919.8 560.472 1919.06 550.308 1902.07 548.836C1885.08 547.364 1669.25 542.208 1663.21 542.571C1657.17 542.933 1652.51 562.138 1654.4 587.769C1656.28 613.4 1661.31 638.293 1686.74 647.179C1712.17 656.065 1723.91 653.111 1741.98 654.724C1760.05 656.336 1781.68 668.515 1782.14 687.2C1782.14 687.2 1619.26 681.231 1617.53 681.157Z" fill="#b4eb00" fill-rule="nonzero" opacity="1" stroke="none" vectornator:layerName="g"/>
<path d="M1250.32 913.021L1188.74 912.378C1188.74 912.378 1182.48 912.105 1183.63 903.247C1184.78 894.389 1184.01 879.251 1206.4 870.559C1228.78 861.866 1244.17 863.132 1272.37 863.253C1300.57 863.374 1316.18 868.018 1313.89 888.481C1313.89 888.481 1314.08 894.717 1299.54 914.508C1285 934.299 1277.44 948.174 1277.44 948.174C1277.44 948.174 1294.57 946.358 1302.44 950.937C1310.32 955.516 1315.66 961.616 1313.8 973.27C1311.95 984.923 1294.81 1045.01 1278.12 1062.57C1261.43 1080.13 1254.31 1078.26 1244.39 1078.53C1234.47 1078.79 1197.7 1083.86 1183.26 1071.05C1168.83 1058.25 1166.06 1044.05 1163.76 1034.25C1161.47 1024.46 1169.71 1024.06 1171.3 1023.58C1172.88 1023.11 1246.51 1024.22 1246.51 1024.22C1246.51 1024.22 1255.49 1018.98 1258.72 1000.41C1261.94 981.847 1260.91 984.235 1241.3 982.806C1221.69 981.378 1210.79 979.614 1210.05 965.091C1210.05 965.091 1209.31 958.671 1222.4 944.252C1235.48 929.832 1250.32 913.021 1250.32 913.021Z" fill="#b4eb00" fill-rule="nonzero" opacity="1" stroke="none" vectornator:layerName="Curve 1"/>
<path d="M1319.36 1013.84C1319.36 1013.84 1327.35 999.589 1342.18 997.351C1357 995.113 1360.99 996.482 1363.05 998.443C1365.11 1000.41 1369.51 1005.14 1370.13 1008.15C1370.75 1011.16 1373.26 1042.02 1361.45 1049.8C1349.63 1057.59 1342.38 1061.57 1329.47 1048.82C1316.56 1036.08 1312.66 1029.15 1319.36 1013.84Z" fill="#b4eb00" fill-rule="nonzero" opacity="1" stroke="none" vectornator:layerName="Curve 2"/>
<path d="M1385.99 971.525C1385.99 971.525 1392.62 920.974 1394.98 911.897C1397.37 902.733 1405.31 866.862 1430.94 859.725C1454.57 853.145 1473.52 854.023 1496.23 858.12C1511.11 860.804 1536.32 865.589 1543.99 881.258C1551.66 896.928 1550.01 912.556 1541.93 935.912C1541.93 935.912 1522.6 994.164 1519.89 999.83L1465.22 976.985C1465.22 976.985 1473.63 950.582 1475.4 943.868C1477.18 937.154 1477.39 930.346 1466.24 927.82C1455.08 925.294 1452.93 929.578 1449.7 938.263C1446.47 946.949 1444.05 972.785 1444.01 974.836L1385.99 971.525Z" fill="#b4eb00" fill-rule="nonzero" opacity="1" stroke="none" vectornator:layerName="Curve 1"/>
<path d="M1409.09 1057.15C1399.14 1053.36 1387.98 1043.63 1386.39 1023.58C1384.79 1003.54 1385.27 976.041 1385.99 971.429C1386.95 965.243 1394.85 961.033 1394.85 961.033L1444.28 969.835C1444.28 969.835 1442.46 1001.07 1442.65 1005.45C1442.84 1009.83 1446.02 1011.87 1448.09 1011.65C1448.09 1011.65 1452.81 1011.93 1454.44 1008.03C1456.07 1004.13 1466.83 972.176 1466.83 972.176L1526.42 977.499L1525.51 982.489C1525.51 982.489 1507.99 1044.47 1487.8 1057.05C1479.8 1062.03 1443.41 1070.27 1409.09 1057.15Z" fill="#b4eb00" fill-rule="nonzero" opacity="1" stroke="none" vectornator:layerName="Curve 2"/>
</g>
</svg>
