<?xml version="1.0" encoding="UTF-8" standalone="no"?>
<!DOCTYPE svg PUBLIC "-//W3C//DTD SVG 1.1//EN" "http://www.w3.org/Graphics/SVG/1.1/DTD/svg11.dtd">
<!-- Created with Vectornator (http://vectornator.io/) -->
<svg height="100%" stroke-miterlimit="10" style="fill-rule:nonzero;clip-rule:evenodd;stroke-linecap:round;stroke-linejoin:round;" version="1.1" viewBox="220.706 250.729 2118.59 913.235" width="100%" xml:space="preserve" xmlns="http://www.w3.org/2000/svg" xmlns:vectornator="http://vectornator.io" xmlns:xlink="http://www.w3.org/1999/xlink">
<defs/>
<g id="black" vectornator:layerName="black">
<path d="M877.984 334.433C877.984 334.433 1421.09 120.525 2120.26 376.617C2120.26 376.617 2277.1 452.239 2324.52 551.846C2324.52 551.846 2381.1 652.503 2272.81 781.554C2272.81 781.554 2189.45 896.004 1969.1 989.484C1969.1 989.484 1743.81 1088.1 1507 1126.12C1507 1126.12 990.65 1213.91 658.709 1122.06C658.709 1122.06 443.465 1071.01 312.738 965.158C312.738 965.158 234.204 907.604 223.002 816.855C223.002 816.855 209.713 755.601 247.08 708.644C247.08 708.644 244.152 743.314 256.926 784.932C269.7 826.55 304.76 939.822 584.225 1003.77C628.161 1013.82 809.104 1055.23 1285.93 1003.77C1559.58 974.239 1660.55 950.202 1660.55 950.202C1660.55 950.202 1824.59 905.676 1935.92 850.533C2047.26 795.389 2283.92 593.513 2120.26 482.083C2038.55 426.447 1859.44 360.371 1859.44 360.371C1859.44 360.371 1580.16 318.089 1425.02 311.827C1269.88 305.564 1219.5 307.513 1219.5 307.513C1219.5 307.513 1201.92 306.759 1107.72 312.505C1013.53 318.251 912.256 333.871 912.256 333.871C912.256 333.871 864.205 345.465 877.984 334.433Z" fill="#5acdb9" fill-rule="nonzero" opacity="1" stroke="none" vectornator:layerName="Curve 1"/>
<path d="M281.806 612.475C281.806 612.475 256.163 600.527 311.617 470.359C341.064 401.238 372.556 367.864 430.989 356.226C489.422 344.587 606.991 340.934 675.108 348.11C675.108 348.11 738.207 359.694 772.738 403.498C772.738 403.498 788.204 426.447 783.967 451.976C783.967 451.976 817.234 396.315 858.741 374.324C900.248 352.333 939.868 349.454 939.868 349.454C939.868 349.454 995.65 347.757 1004.75 351.144C1013.84 354.53 1026.28 368.55 1026.12 382.59C1025.96 396.63 1025.64 401.528 1017.23 430.486C1008.81 459.444 964.649 614.288 964.649 614.288C964.649 614.288 962.267 622.715 966.441 626.525C970.615 630.335 989.958 628.82 989.958 628.82C989.958 628.82 1056.41 629.284 1084.52 640.9C1114.37 653.231 1141.44 686.613 1141.44 686.613C1141.44 686.613 1129.03 684.339 1133.25 684.338C1137.48 684.336 1142.79 648.635 1146.18 633.64C1149.56 618.644 1177.34 473.706 1210.44 428.491C1243.54 383.277 1286.89 364.326 1286.89 364.326C1286.89 364.326 1328.37 346.255 1370.43 350.064C1412.5 353.874 1415.9 355.487 1415.9 355.487C1415.9 355.487 1427.45 358.931 1427.17 371.534C1426.9 384.137 1356.73 613.869 1356.73 613.869C1356.73 613.869 1352.36 617.619 1368.25 617.698C1384.14 617.776 1395.3 614.297 1398.34 605.36C1401.38 596.423 1425.95 486.977 1440.63 449.734C1455.31 412.492 1464.27 370.815 1520.99 356.707C1577.71 342.599 1617.98 348.249 1617.98 348.249C1617.98 348.249 1657.28 350.185 1665.69 374.316C1665.69 374.316 1667.54 381.412 1667.6 388.207C1667.66 395.002 1668.41 393.185 1674.77 385.892C1681.13 378.598 1707.43 355.346 1748.21 352.512C1788.98 349.678 1865.68 350.202 1865.68 350.202L2023.54 353.994L2111.39 359.032C2111.39 359.032 2128.24 360.016 2136.45 369.512C2144.66 379.008 2144.46 386.625 2144.66 392.164C2144.85 397.703 2146.53 460.028 2112.45 493.275C2112.45 493.275 2096.96 510.07 2091.11 512.359C2085.26 514.649 2090.55 516.144 2091.88 516.986C2093.21 517.828 2118.1 538.278 2116.42 554.809C2090.8 807.453 2046.79 828.381 1952.44 843.289C1952.44 843.289 1764.67 863.213 1685.64 836.975L1663.7 824.424L1627.93 816.761C1627.93 816.761 1602.55 816.938 1586.65 792.672L1582.94 783.594C1582.94 783.594 1580.5 779.993 1578.12 785.262C1575.74 790.532 1551.99 825.741 1504.25 833.292C1456.52 840.844 1426.66 837.278 1426.66 837.278L1288.81 836.58C1288.81 836.58 1207.6 840.115 1189.78 836.127C1171.95 832.139 1159.28 833.191 1146.41 813.272C1146.41 813.272 1143.34 809.136 1141.44 813.721C1139.55 818.306 1132.94 832.763 1114.5 839.172C1096.06 845.58 1043.34 845.375 1043.34 845.375L868.41 844.656L778.079 840.811C778.079 840.811 737.927 843.843 708.132 818.917C708.132 818.917 693.647 805.193 689.342 790.461C689.342 790.461 654.141 832.443 594.217 838.944C534.293 845.446 389.153 841.21 346.471 826.614C303.79 812.017 252.599 782.768 253.758 703.506C254.486 653.694 264.149 617.011 281.806 612.475Z" fill="#0d0d0d" fill-rule="nonzero" opacity="1" stroke="none" vectornator:layerName="Curve 1"/>
<path d="M1298.51 826.411C1298.51 826.411 1255.74 843.159 1252 867.711C1248.27 892.264 1250.54 902.508 1250.54 902.508C1250.54 902.508 1252.65 909.448 1264.78 911.074C1276.92 912.7 1300.29 910.93 1300.29 910.93C1300.29 910.93 1303.06 912.926 1298.13 916.331C1293.21 919.736 1270.11 942.113 1271.65 950.614C1273.2 959.116 1275.59 964.317 1279.07 966.994C1282.56 969.671 1286.48 973.575 1304.64 974.421C1304.64 974.421 1312.63 980.276 1296.35 979.65C1280.06 979.024 1252.42 980.239 1252.42 980.239C1252.42 980.239 1236.64 979.165 1235.1 994.131C1233.57 1009.1 1232.55 1025.37 1233.98 1030.33C1235.41 1035.29 1243.39 1066.06 1266.61 1073.44C1289.83 1080.82 1353.14 1087.95 1371.02 1076.61C1388.9 1065.26 1390.93 1058.96 1397.46 1053.68C1404 1048.41 1410.56 1040.18 1418.44 1045.36C1426.33 1050.55 1450.13 1069.12 1471.8 1057.33C1493.48 1045.54 1494.37 1044.3 1494.37 1044.3C1494.37 1044.3 1513.92 1064.69 1553.01 1062.28C1592.1 1059.87 1606.22 1064.96 1627.55 1045.24C1648.88 1025.51 1665.27 992.545 1682.59 942.056C1699.91 891.568 1710.32 874.763 1692.62 852.305C1674.91 829.846 1678.32 835.96 1678.32 835.96C1678.32 835.96 1688.49 837.106 1699.54 839.456C1710.59 841.806 1701.64 828.405 1701.64 828.405L1639.59 806.613L1616.07 810.881C1616.07 810.881 1619.11 818.594 1621.1 821.888C1621.1 821.888 1595.83 817.88 1577.52 822.378C1559.2 826.876 1522.21 832.024 1504.79 856.303C1487.37 880.582 1485.31 884.476 1482.4 896.931C1479.49 909.385 1473.38 946.683 1473.38 946.683L1472.93 950.133C1472.93 950.133 1453.57 948.893 1443.85 950.653C1443.85 950.653 1443.85 931.551 1441.4 926.212C1438.94 920.873 1436.49 916.256 1422.2 909.389C1422.2 909.389 1445.58 882.794 1445.77 869.298C1445.96 855.801 1446.52 847.349 1427.28 835.612C1408.05 823.874 1408.04 824.176 1408.04 824.176L1298.51 826.411Z" fill="#0d0d0d" fill-rule="nonzero" opacity="1" stroke="none" vectornator:layerName="Curve 2"/>
<path d="M301.003 585.937C301.003 585.937 320.41 493.752 357.983 439.481C395.555 385.21 424.612 381.383 532.653 376.617C640.694 371.851 687.58 380.563 723.122 401.359C778.578 433.806 746.589 513.298 741.761 547.033C741.761 547.033 605.569 543.348 571.447 544.877C571.447 544.877 495.235 541.937 494.856 550.878C494.171 567.077 498.824 575.092 519.69 576.678C540.557 578.263 689.316 577.051 700.813 577.955C712.31 578.859 736.365 580.032 729.957 602.797C723.549 625.563 692.775 728.305 664.299 765.312C649.725 784.253 623.71 805.825 562.825 811.171C501.939 816.516 394.809 815.861 356.393 797.568C317.977 779.275 287.741 757.26 282.183 720.438C282.183 720.438 279.17 678.251 290.184 649.609C290.184 649.609 290.626 641.89 302.477 642.543C314.328 643.196 430.356 645.344 450.556 645.344C470.756 645.345 496.248 643.362 496.248 643.362C496.248 643.362 494.38 620.745 480.629 616.698C466.878 612.652 380.054 614.992 380.054 614.992C380.054 614.992 330.974 614.722 319.698 613.307C308.422 611.892 305.399 607.244 303.222 605.005C301.046 602.766 298.713 594.179 301.003 585.937Z" fill="#b4eb00" fill-rule="nonzero" opacity="1" stroke="none" vectornator:layerName="s"/>
<path d="M737.614 797.404C737.614 797.404 723.551 789.546 728.426 761.282C733.302 733.018 759.339 629.196 759.339 629.196C759.339 629.196 788.825 517.182 796.364 501.91C803.903 486.638 821.246 432.592 868.385 405.56C868.385 405.56 917.281 368.428 983.021 381.213L989.509 383.313L914.471 657.297C914.471 657.297 1039.33 648.093 1074.21 670.94C1109.09 693.788 1123.38 725.127 1125.48 746.967C1127.59 768.806 1121.89 797.325 1112.19 809.824L791.344 808.746C791.344 808.746 750.677 810.413 737.614 797.404Z" fill="#b4eb00" fill-rule="nonzero" opacity="1" stroke="none" vectornator:layerName="l"/>
<path d="M1314.97 652.762L1381.02 405.371C1381.02 405.371 1386 390.925 1385.4 384.76C1384.79 378.596 1370.39 378.337 1365.44 377.856C1360.5 377.376 1275.01 368.419 1224.17 459.203C1199.23 503.736 1178.08 612.65 1167.91 672.872C1157.74 733.093 1156.93 771.446 1157.87 776.147C1158.84 780.928 1163.85 794.037 1170.34 797.222C1176.83 800.408 1187.5 804.852 1194.04 804.763C1200.59 804.673 1457.85 805.533 1457.85 805.533C1457.85 805.533 1493.72 806.697 1512.27 795.901C1530.83 785.105 1546.9 772.186 1552.76 751.436C1558.62 730.685 1631.66 423.703 1631.66 423.703L1636.93 397.207C1636.93 397.207 1634.73 387.135 1629.59 383.504C1624.44 379.873 1562.99 364.424 1512.83 396.652C1488.71 412.143 1470.46 435.068 1451.03 516.339C1431.61 597.61 1422.73 642.17 1409.03 650.644C1395.33 659.117 1399.67 661.08 1314.97 652.762Z" fill="#b4eb00" fill-rule="nonzero" opacity="1" stroke="none" vectornator:layerName="u"/>
<path d="M1751.37 668.479C1751.37 668.479 1757.77 554.445 1780.64 521.537C1780.64 521.537 1789.41 508.77 1811.33 509.518C1833.25 510.267 2017.82 512.308 2017.82 512.308C2017.82 512.308 2087.2 517.655 2108.22 451.908C2108.22 451.908 2118.61 422.014 2119.21 409.201C2119.45 404.099 2117.17 392.573 2110.25 390.726C2108.93 390.375 2101.7 388.171 2088.82 387.906C2018.56 386.46 1795.05 379.509 1742.76 385.52C1698.39 390.62 1680.97 413.638 1676.22 419.649C1646.09 457.757 1623.72 559.454 1600.89 691.033C1593.92 731.234 1605.16 750.679 1605.16 750.679C1605.16 750.679 1616.79 792.49 1705.06 811.171C1754.96 821.731 1886.84 826.827 1954.22 814.085C2034.05 798.988 2033.71 785.56 2056.2 731.411C2075.38 685.261 2085.18 556.145 2083.89 553.747C2082.6 551.349 2081.79 541.484 2063.17 540.056C2044.55 538.627 1808.04 533.623 1801.42 533.975C1794.8 534.327 1789.7 552.966 1791.76 577.842C1793.83 602.718 1799.35 626.878 1827.21 635.502C1855.08 644.127 1867.93 641.26 1887.74 642.825C1907.54 644.39 1931.24 656.21 1931.75 674.345C1931.75 674.345 1753.26 668.552 1751.37 668.479Z" fill="#b4eb00" fill-rule="nonzero" opacity="1" stroke="none" vectornator:layerName="g"/>
<path d="M1348.97 893.515L1281.5 892.89C1281.5 892.89 1274.63 892.626 1275.89 884.028C1277.15 875.431 1276.31 860.739 1300.84 852.303C1325.37 843.866 1342.23 845.095 1373.13 845.213C1404.04 845.33 1421.14 849.837 1418.63 869.698C1418.63 869.698 1418.84 875.749 1402.91 894.958C1386.97 914.166 1378.69 927.632 1378.69 927.632C1378.69 927.632 1397.46 925.87 1406.09 930.314C1414.72 934.758 1420.57 940.678 1418.54 951.989C1416.5 963.299 1397.72 1021.61 1379.44 1038.66C1361.15 1055.71 1353.35 1053.89 1342.48 1054.15C1331.61 1054.41 1291.31 1059.32 1275.49 1046.89C1259.67 1034.47 1256.63 1020.68 1254.12 1011.18C1251.61 1001.67 1260.64 1001.28 1262.38 1000.82C1264.11 1000.36 1344.8 1001.44 1344.8 1001.44C1344.8 1001.44 1354.64 996.349 1358.17 978.331C1361.71 960.313 1360.58 962.631 1339.09 961.245C1317.6 959.858 1305.65 958.146 1304.84 944.051C1304.84 944.051 1304.03 937.82 1318.37 923.826C1332.71 909.831 1348.97 893.515 1348.97 893.515Z" fill="#b4eb00" fill-rule="nonzero" opacity="1" stroke="none" vectornator:layerName="Curve 1"/>
<path d="M1424.63 991.365C1424.63 991.365 1433.39 977.533 1449.63 975.361C1465.88 973.189 1470.24 974.517 1472.5 976.421C1474.76 978.325 1479.59 982.917 1480.26 985.841C1480.94 988.765 1483.7 1018.71 1470.75 1026.27C1457.79 1033.82 1449.85 1037.68 1435.7 1025.32C1421.56 1012.95 1417.29 1006.22 1424.63 991.365Z" fill="#b4eb00" fill-rule="nonzero" opacity="1" stroke="none" vectornator:layerName="Curve 2"/>
<path d="M1497.64 950.295C1497.64 950.295 1503.5 900.692 1507.5 892.424C1511.49 884.156 1519.97 861.533 1548.27 855.576C1576.58 849.619 1609.15 846.087 1625.65 845.714C1642.16 845.342 1662.38 847.48 1670.78 862.688C1679.19 877.895 1677.38 893.063 1668.53 915.732C1668.53 915.732 1653.07 956.301 1650.1 961.8L1584.46 955.595C1584.46 955.595 1593.68 929.969 1595.62 923.453C1597.56 916.937 1597.8 910.329 1585.58 907.878C1573.35 905.427 1570.99 909.584 1567.46 918.013C1563.92 926.443 1561.27 951.519 1561.22 953.509L1497.64 950.295Z" fill="#b4eb00" fill-rule="nonzero" opacity="1" stroke="none" vectornator:layerName="Curve 1"/>
<path d="M1600.94 1034.57C1600.94 1034.57 1533.2 1038.62 1522.95 1033.4C1512.7 1028.18 1499.82 1020.27 1498.08 1000.82C1496.33 981.364 1497.37 950.338 1498.12 945.856C1498.87 941.374 1507.35 940.112 1507.35 940.112L1561.52 948.655C1561.52 948.655 1559.52 978.975 1559.73 983.223C1559.94 987.47 1563.43 989.456 1565.69 989.235C1565.69 989.235 1570.87 989.506 1572.65 985.723C1574.44 981.939 1586.23 950.928 1586.23 950.928L1651.53 956.093L1650.53 960.936C1650.53 960.936 1626.28 1033.27 1600.94 1034.57Z" fill="#b4eb00" fill-rule="nonzero" opacity="1" stroke="none" vectornator:layerName="Curve 2"/>
</g>
</svg>
